<svg width="310" height="75" fill="none" xmlns="http://www.w3.org/2000/svg"><path d="M44.788 55.584h3.923v-.932h-2.75v-2.121h2.444v-.932H45.96v-2.047h2.75v-.921h-3.923v6.953zm9.842-4.735a2.328 2.328 0 00-.856-.622c-1.26-.578-2.761-.086-3.408 1.114a2.98 2.98 0 00-.35 1.468 3.09 3.09 0 00.35 1.49c.22.417.548.771.965 1.017a2.47 2.47 0 001.347.365c.406.01.8-.086 1.162-.257.318-.15.592-.386.79-.665v.825h1.172v-7.393h-1.173v2.658zm-.242 2.967a1.62 1.62 0 01-.625.643 1.75 1.75 0 01-.832.215c-.296 0-.581-.075-.833-.225a1.671 1.671 0 01-.636-.654 2.001 2.001 0 01-.241-.997 1.935 1.935 0 01.241-.985c.142-.257.362-.482.625-.632a1.717 1.717 0 011.666 0c.262.15.482.375.624.643.164.3.252.642.241.985.011.365-.066.707-.23 1.007zm7.134-.674c0 .493-.131.868-.383 1.136a1.38 1.38 0 01-1.042.397c-.438 0-.778-.129-1.03-.397s-.372-.643-.383-1.136v-3.064h-1.15v3.236c-.012.44.087.89.306 1.275.186.343.482.621.833.803.372.183.778.279 1.194.268.33 0 .647-.064.943-.193.285-.117.526-.3.723-.535v.653h1.15v-5.507h-1.16v3.064zm5.326-2.195c.296-.01.592.065.844.225.23.161.405.386.493.643h1.26a2.35 2.35 0 00-.91-1.36c-.449-.311-1.007-.472-1.687-.472a2.782 2.782 0 00-1.424.354 2.464 2.464 0 00-.976.996 3.337 3.337 0 000 2.99c.22.417.559.76.976.996.438.246.92.364 1.424.353.669 0 1.228-.16 1.677-.492a2.46 2.46 0 00.92-1.34h-1.26c-.22.579-.668.868-1.337.868a1.4 1.4 0 01-1.14-.503c-.284-.333-.427-.793-.427-1.393s.142-1.061.427-1.383a1.465 1.465 0 011.14-.482zm8.242-.065a2.247 2.247 0 00-.79-.632 2.554 2.554 0 00-1.162-.257 2.58 2.58 0 00-2.3 1.35 2.96 2.96 0 00-.352 1.468c-.01.514.11 1.028.351 1.49.22.417.548.77.953 1.017.757.45 1.7.493 2.5.107.317-.15.59-.375.81-.653v.825h1.173v-5.508h-1.184v.793zm-.242 2.936a1.62 1.62 0 01-.625.643 1.75 1.75 0 01-.832.214c-.296 0-.581-.075-.833-.225a1.671 1.671 0 01-.636-.653 2.001 2.001 0 01-.241-.997 1.935 1.935 0 01.241-.986c.142-.257.362-.482.625-.632a1.76 1.76 0 01.844-.214c.295 0 .58.075.832.214.263.15.483.375.625.643.164.3.252.643.241.986.011.364-.077.707-.241 1.007zm4.559-5.113h-1.173v1.372h-.668v.932h.668v3.053c0 .536.143.932.417 1.168.274.236.679.364 1.205.364h.92v-.953h-.712c-.24 0-.405-.043-.504-.14a.54.54 0 01-.142-.439V51.01h1.37v-.932h-1.37v-1.372h-.011zm3.298-.812a.726.726 0 00-.734.717c0 .397.329.718.734.718a.726.726 0 00.734-.718.723.723 0 00-.208-.503.746.746 0 00-.526-.214zm.57 2.185h-1.161v5.507h1.161v-5.507zm5.742.258a3.204 3.204 0 00-2.925 0 2.605 2.605 0 00-1.03.996c-.264.45-.384.965-.384 1.49a2.99 2.99 0 00.373 1.5c.23.418.58.76 1.008.996.438.236.942.364 1.446.354a3.11 3.11 0 001.48-.354 2.715 2.715 0 001.063-1.007 2.83 2.83 0 00.383-1.49 2.83 2.83 0 00-.383-1.489 2.604 2.604 0 00-1.03-.996zm-.032 3.514a1.62 1.62 0 01-.636.632c-.263.14-.548.215-.844.215a1.57 1.57 0 01-1.172-.482c-.307-.322-.472-.783-.472-1.372a2.19 2.19 0 01.22-1.018c.131-.257.35-.482.602-.621a1.718 1.718 0 011.666 0c.263.15.482.364.625.621.164.311.252.665.24 1.018a1.82 1.82 0 01-.23 1.007zm6.893-3.59a2.562 2.562 0 00-1.195-.267c-.329 0-.646.064-.942.193-.285.118-.537.3-.734.536v-.633h-1.162v5.508h1.172v-3.075c0-.493.132-.868.384-1.136a1.38 1.38 0 011.041-.397c.439 0 .778.129 1.03.397s.373.643.384 1.136v3.075h1.15V52.35c.011-.44-.087-.89-.295-1.275a2.01 2.01 0 00-.833-.814zm3.32 3.931a.731.731 0 00-.745.729.73.73 0 00.745.728.747.747 0 00.526-.214.739.739 0 000-1.039.785.785 0 00-.526-.204zm4.8-4.627h1.896v6.021h1.162v-6.021h1.895v-.921h-4.953v.921zm7.551 1.318v-.803h-1.162v5.507h1.162v-2.893c0-.557.12-.953.35-1.178.23-.226.581-.343 1.041-.343h.296v-1.179a2.06 2.06 0 00-1.008.236c-.285.16-.515.375-.679.653zm7.232 0a2.243 2.243 0 00-.789-.632 2.552 2.552 0 00-1.161-.257 2.582 2.582 0 00-2.302 1.35c-.241.45-.361.954-.35 1.468a3.077 3.077 0 00.35 1.49c.22.417.548.77.954 1.017.756.45 1.698.493 2.498.107a2.26 2.26 0 00.811-.653v.825h1.173v-5.508h-1.173v.793h-.011zm-.241 2.936a1.616 1.616 0 01-.624.643 1.76 1.76 0 01-.844.214 1.676 1.676 0 01-1.469-.879 2.006 2.006 0 01-.241-.996 1.939 1.939 0 01.241-.986 1.676 1.676 0 011.469-.846c.296 0 .581.075.844.214.263.15.482.375.624.643.165.3.252.643.241.986.011.364-.076.707-.241 1.007zm3.803-5.925a.748.748 0 00-.778.696.744.744 0 00.712.761h.055a.746.746 0 00.526-.214.739.739 0 000-1.04.737.737 0 00-.515-.203zm.57 2.185h-1.162v5.507h1.162v-5.507zm5.819.182a2.564 2.564 0 00-1.195-.267c-.328 0-.646.064-.942.193-.285.118-.537.3-.734.536v-.633h-1.162v5.508h1.162v-3.075c0-.493.131-.868.383-1.136a1.38 1.38 0 011.041-.397c.439 0 .778.129 1.03.397.253.268.373.643.384 1.136v3.075h1.151V52.35c.011-.44-.088-.89-.296-1.275a1.926 1.926 0 00-.822-.814zm3.452-2.367a.747.747 0 00-.778.696.744.744 0 00.712.761h.055a.746.746 0 00.526-.214.739.739 0 000-1.04.74.74 0 00-.515-.203zm.57 2.185h-1.162v5.507h1.162v-5.507zm5.819.182a2.564 2.564 0 00-1.195-.267c-.328 0-.646.064-.942.193-.285.118-.537.3-.734.536v-.633h-1.162v5.508h1.162v-3.075c0-.493.131-.868.383-1.136a1.38 1.38 0 011.041-.397c.439 0 .778.129 1.03.397s.373.643.373 1.136v3.075h1.151V52.35c.011-.44-.088-.89-.296-1.275a1.843 1.843 0 00-.811-.814zm7.079.622a2.243 2.243 0 00-.789-.633 2.698 2.698 0 00-1.161-.257 2.582 2.582 0 00-2.302 1.35c-.241.45-.361.954-.35 1.468a3.077 3.077 0 00.35 1.49c.219.417.548.77.965 1.017a2.56 2.56 0 001.347.365 2.428 2.428 0 001.951-.922v.922c0 .535-.142.942-.438 1.221-.307.29-.713.44-1.14.418a1.985 1.985 0 01-1.041-.268 1.215 1.215 0 01-.57-.696h-1.151a1.94 1.94 0 00.855 1.425c.504.353 1.14.525 1.896.525a3.097 3.097 0 001.48-.343 2.24 2.24 0 00.942-.932 2.77 2.77 0 00.329-1.35v-5.593h-1.173v.793zm-.241 2.935a1.618 1.618 0 01-.625.643 1.7 1.7 0 01-1.676 0 1.675 1.675 0 01-.636-.653 2.005 2.005 0 01-.241-.997 1.939 1.939 0 01.241-.986c.143-.267.362-.482.625-.632a1.75 1.75 0 011.676 0c.263.15.483.375.625.643.165.3.252.643.241.986.022.354-.055.696-.23.996zm3.682.374a.731.731 0 00-.745.729.73.73 0 00.745.728.746.746 0 00.526-.214.739.739 0 000-1.039.785.785 0 00-.526-.204zm11.682.077l-1.479-5.625h-1.315l-1.589 5.657-1.48-5.657h-1.227l2.005 6.953 1.315-.01 1.578-5.261 1.491 5.26h1.326l2.104-6.942h-1.249l-1.48 5.625zm7.792-3.942a2.883 2.883 0 00-1.425-.343 2.912 2.912 0 00-1.468.354 2.495 2.495 0 00-.987.996c-.241.46-.361.975-.35 1.49a2.985 2.985 0 00.361 1.5c.231.417.581.76 1.009.996.438.235.942.364 1.446.353.658 0 1.217-.16 1.666-.482.438-.31.756-.74.92-1.243h-1.26c-.263.515-.701.772-1.326.772a1.53 1.53 0 01-1.6-1.457h4.307a3.17 3.17 0 00.044-.557 2.797 2.797 0 00-.351-1.415 2.635 2.635 0 00-.986-.964zm-3.025 2.014a1.56 1.56 0 01.515-1.018 1.507 1.507 0 011.03-.375c.406-.01.8.118 1.118.375.296.258.471.622.46 1.008l-3.123.01zm6.904-4.149h-1.161v7.393h1.161v-7.393zm2.948 0h-1.162v7.393h1.162v-7.393zm6.268 2.144a2.687 2.687 0 00-1.347-.353 2.69 2.69 0 00-1.151.257 2.17 2.17 0 00-.811.653v-2.71h-1.162v7.392h1.162v-.803c.208.268.482.493.8.643a2.68 2.68 0 002.499-.118c.405-.246.734-.6.953-1.018a3.05 3.05 0 00.351-1.49 3.037 3.037 0 00-.351-1.478 2.533 2.533 0 00-.943-.975zm-.12 3.472a1.675 1.675 0 01-2.312.653 1.652 1.652 0 01-.636-.643 1.979 1.979 0 01-.241-.996 1.939 1.939 0 01.241-.986c.143-.268.362-.493.636-.643.252-.139.537-.225.833-.214.295 0 .58.075.843.214.263.15.483.365.636.633.164.3.252.642.241.985 0 .343-.077.686-.241.997zm6.674-3.481a2.886 2.886 0 00-1.425-.343 2.912 2.912 0 00-1.468.354 2.495 2.495 0 00-.987.996c-.241.46-.361.975-.35 1.49a2.985 2.985 0 00.361 1.5c.231.417.581.76.998.996.438.235.942.364 1.446.353.658 0 1.217-.16 1.666-.482.438-.31.756-.74.92-1.243h-1.249c-.263.515-.701.772-1.326.772a1.53 1.53 0 01-1.6-1.457h4.307a3.17 3.17 0 00.044-.557 2.797 2.797 0 00-.351-1.415 2.485 2.485 0 00-.986-.964zm-3.014 2.014a1.56 1.56 0 01.515-1.018 1.507 1.507 0 011.03-.375c.406-.01.8.118 1.118.375.296.258.471.622.46 1.008l-3.123.01zm6.893-2.262h-1.161v5.507h1.161v-5.507zm-.57-2.185a.748.748 0 00-.778.696.744.744 0 00.713.761h.054a.744.744 0 00.526-.214.739.739 0 000-1.04.736.736 0 00-.515-.203zm6.4 2.367a2.56 2.56 0 00-1.194-.267c-.329 0-.647.064-.943.193-.285.118-.537.3-.734.536v-.633h-1.162v5.508h1.162v-3.075c0-.493.132-.868.384-1.136a1.378 1.378 0 011.041-.397c.438 0 .778.129 1.03.397s.383.643.383 1.136v3.075h1.151V52.35c.011-.44-.088-.89-.296-1.275a1.92 1.92 0 00-.822-.814zm7.08.622a2.261 2.261 0 00-.789-.633 2.706 2.706 0 00-1.162-.257 2.58 2.58 0 00-2.301 1.35 2.97 2.97 0 00-.351 1.468c-.011.514.11 1.029.351 1.49.219.417.548.77.964 1.017.405.247.866.375 1.348.365.394.01.8-.086 1.151-.268a2.37 2.37 0 00.8-.654v.922c0 .535-.143.942-.439 1.221-.307.29-.712.44-1.14.418a1.988 1.988 0 01-1.041-.268 1.21 1.21 0 01-.569-.696h-1.151a1.94 1.94 0 00.855 1.425c.504.353 1.139.525 1.896.525a3.09 3.09 0 001.479-.343 2.24 2.24 0 00.942-.932c.22-.418.34-.879.329-1.35v-5.593h-1.172v.793zm-.242 2.935a1.615 1.615 0 01-.624.643 1.76 1.76 0 01-.844.215c-.296 0-.581-.075-.833-.225a1.666 1.666 0 01-.635-.654 2.006 2.006 0 01-.242-.996 1.94 1.94 0 01.242-.986c.142-.268.361-.482.624-.632a1.76 1.76 0 011.688 0c.263.15.482.375.624.642.165.3.253.643.242.986.011.364-.077.707-.242 1.007zm4.187.589a.73.73 0 00-.526-.215.731.731 0 00-.746.729.73.73 0 00.746.728.748.748 0 00.526-.214.726.726 0 000-1.028zM94.059 32.966h-6.543V16.691H82.53v20.047h11.529v-3.772zm12.284 3.044c1.271.62 2.718.931 4.34.931 1.622 0 3.079-.31 4.394-.943a7.497 7.497 0 003.146-2.796c.778-1.232 1.172-2.753 1.172-4.543V16.691h-4.997v11.99c0 1.2-.307 2.121-.932 2.775-.624.643-1.523.975-2.695.975-1.173 0-2.061-.322-2.663-.975-.603-.643-.91-1.575-.91-2.775V16.69h-4.986v11.97c0 1.79.372 3.3 1.107 4.554a6.99 6.99 0 003.024 2.796zm62.366-19.319h-4.997V29.12l-8.35-12.429h-4.998v20.047h4.998V24.374l8.35 12.364h4.997V16.69zm8.351 3.911h5.435v16.136h4.987V20.602h5.435v-3.91H177.06v3.91z" fill="#fff"/><path d="M71.955 24.93H60.71v3.685h11.244V24.93z" fill="#FB221D"/><path d="M65.708 30.697h-4.997v6.043h4.997v-6.043zm0-10.095h8.35v-3.91H60.712v6.15h4.997v-2.24zm74.706 4.084h-11.682v3.717h11.682v-3.717zm-6.696-4.084h7.573v-3.91h-12.559v5.914h4.986v-2.004zm7.573 12.226h-7.573v-2.336h-4.986v6.247h12.559v-3.911zm-108.251.374h-7.649l-1.227 3.536h-5.227l7.419-20.047h5.786l7.419 20.047h-5.282l-1.238-3.536zm-1.293-3.771l-2.542-7.34-2.51 7.34h5.052zm174.299.385a3.95 3.95 0 011.633-1.607c.69-.375 1.49-.568 2.389-.568 1.15 0 2.115.3 2.882.889.778.59 1.282 1.425 1.523 2.496h-2.992c-.252-.685-.745-1.028-1.457-1.028-.515 0-.932.193-1.239.59-.307.395-.46.953-.46 1.681 0 .729.153 1.286.46 1.682.307.397.713.59 1.239.59.723 0 1.205-.343 1.457-1.029h2.992c-.241 1.05-.756 1.875-1.523 2.475-.778.6-1.743.9-2.882.9-.899 0-1.699-.182-2.389-.568a4.015 4.015 0 01-1.633-1.607c-.395-.696-.581-1.51-.581-2.443 0-.943.186-1.757.581-2.453zm12.427 6.493a4.096 4.096 0 01-1.688-1.608c-.416-.696-.613-1.51-.613-2.443 0-.92.208-1.735.624-2.432a4.24 4.24 0 011.71-1.617c.723-.375 1.534-.568 2.433-.568.898 0 1.709.193 2.432.568a4.17 4.17 0 011.71 1.617c.416.707.625 1.511.625 2.432 0 .922-.209 1.736-.636 2.433a4.222 4.222 0 01-1.731 1.617 5.291 5.291 0 01-2.444.568c-.899-.01-1.71-.192-2.422-.567zm3.803-2.4c.383-.386.569-.933.569-1.65 0-.718-.186-1.276-.548-1.661a1.81 1.81 0 00-1.358-.579c-.548 0-1.009.193-1.37.568-.362.386-.548.932-.548 1.66 0 .719.175 1.265.537 1.65.35.386.8.58 1.337.58.537.01.997-.183 1.381-.569zm20.098-5.217c.679.675 1.008 1.617 1.008 2.817v5.24h-2.794v-4.875c0-.579-.154-1.029-.472-1.34-.306-.31-.745-.47-1.293-.47-.548 0-.975.16-1.293.47-.307.322-.471.761-.471 1.34v4.875h-2.795v-4.875c0-.579-.153-1.029-.471-1.34-.318-.31-.745-.47-1.293-.47-.548 0-.975.16-1.293.47-.318.322-.471.761-.471 1.34v4.875h-2.817V27.78h2.817v1.125a2.938 2.938 0 011.117-.89 3.655 3.655 0 011.568-.331c.69 0 1.304.139 1.852.428.548.29.964.707 1.271 1.232a3.748 3.748 0 011.293-1.21 3.555 3.555 0 011.797-.461c1.162 0 2.06.343 2.74 1.018zm7.682-.666c.482-.257 1.041-.385 1.698-.385.757 0 1.436.193 2.061.568.613.375 1.096.91 1.457 1.607.351.696.537 1.51.537 2.432 0 .921-.175 1.736-.537 2.432-.361.707-.844 1.243-1.457 1.629-.614.385-1.304.567-2.061.567-.635 0-1.194-.128-1.687-.385a3.018 3.018 0 01-1.14-.997v5.529h-2.816V27.769h2.816v1.275c.274-.418.647-.76 1.129-1.018zm2.29 2.593a1.974 1.974 0 00-1.435-.59 1.97 1.97 0 00-1.425.59c-.395.397-.581.943-.581 1.629s.197 1.232.581 1.618c.384.396.866.589 1.425.589s1.041-.204 1.424-.6c.395-.407.592-.943.592-1.629.011-.675-.186-1.21-.581-1.607zm5.655-.803a3.901 3.901 0 011.457-1.607 3.89 3.89 0 012.061-.568c.646 0 1.216.128 1.698.385.482.258.866.59 1.129 1.018V27.77h2.816v8.968h-2.816v-1.264c-.274.418-.657.75-1.14 1.007-.493.257-1.052.386-1.698.386a3.841 3.841 0 01-2.039-.568c-.613-.375-1.095-.922-1.457-1.629-.362-.696-.537-1.51-.537-2.432 0-.921.175-1.725.526-2.421zm5.753.814a1.924 1.924 0 00-1.424-.59 1.93 1.93 0 00-1.425.59c-.395.396-.581.932-.581 1.618s.197 1.232.581 1.628c.384.407.866.6 1.425.6s1.03-.193 1.424-.589c.384-.396.581-.932.581-1.618.011-.696-.186-1.243-.581-1.64zm14.356-1.938c.647.685.965 1.617.965 2.807v5.24h-2.795v-4.876c0-.6-.164-1.06-.471-1.393-.318-.332-.745-.503-1.282-.503s-.965.171-1.282.503c-.318.332-.472.804-.472 1.393v4.875h-2.816V27.77h2.816v1.19a3.006 3.006 0 011.151-.943 3.78 3.78 0 011.622-.343c1.063 0 1.918.343 2.564 1.018zm13.041-.922l-5.753 13.232h-3.025l2.104-4.565-3.726-8.667h3.145l2.115 5.614 2.105-5.614h3.035z" fill="#fff"/></svg>