<svg width="265" height="74" fill="none" xmlns="http://www.w3.org/2000/svg"><g clip-path="url(#clip0)"><g clip-path="url(#clip1)"><path d="M12.21 47.89a2.524 2.524 0 01.161 2.916 2.63 2.63 0 01-1.119.945 3.935 3.935 0 01-1.703.347H5.635V42.28h3.73a4 4 0 011.719.338c.44.194.816.51 1.084.911.244.38.37.825.366 1.277 0 .564-.15 1.035-.451 1.411a2.617 2.617 0 01-1.21.834 2.17 2.17 0 011.337.837zm-4.97-1.483h1.99c.525 0 .936-.12 1.231-.36.296-.24.444-.586.444-1.038 0-.443-.148-.79-.444-1.038-.295-.248-.706-.373-1.231-.374H7.24v2.81zm3.45 3.982c.309-.262.463-.63.463-1.102a1.436 1.436 0 00-.489-1.143c-.326-.283-.762-.424-1.31-.424H7.24v3.064h2.169c.544 0 .971-.131 1.282-.395zm11.207-1.582h-5.928c.047.621.277 1.12.69 1.497.415.378.96.58 1.52.565.863 0 1.474-.362 1.831-1.087h1.732a3.502 3.502 0 01-1.272 1.758c-.614.459-1.377.688-2.288.688a3.954 3.954 0 01-1.992-.501 3.558 3.558 0 01-1.38-1.413 4.31 4.31 0 01-.5-2.11 4.423 4.423 0 01.49-2.112c.31-.593.786-1.08 1.37-1.405a4.06 4.06 0 012.02-.49 3.942 3.942 0 011.957.48 3.39 3.39 0 011.338 1.347c.328.614.493 1.303.48 1.999a5.064 5.064 0 01-.068.784zm-1.62-1.299c-.01-.592-.22-1.068-.633-1.426a2.265 2.265 0 00-1.535-.536 2.05 2.05 0 00-1.422.53c-.391.353-.626.83-.704 1.432h4.294zm10.131-2.986c.426-.23.904-.344 1.387-.332v1.67h-.408c-.63 0-1.106.16-1.43.48-.323.32-.486.876-.489 1.668v4.096h-1.602v-7.781h1.606v1.13c.224-.389.547-.71.936-.93zm10.258 4.285h-5.928c.046.621.276 1.12.69 1.497.415.378.96.58 1.52.565.863 0 1.473-.362 1.83-1.087h1.733a3.515 3.515 0 01-1.272 1.758c-.614.459-1.377.688-2.288.688a3.954 3.954 0 01-1.992-.501 3.566 3.566 0 01-1.38-1.413 4.321 4.321 0 01-.5-2.11 4.423 4.423 0 01.489-2.112c.31-.593.786-1.08 1.37-1.405a4.06 4.06 0 012.02-.49 3.942 3.942 0 011.957.48 3.39 3.39 0 011.332 1.341 4.08 4.08 0 01.478 1.999c.001.265-.019.529-.06.79zm-1.62-1.299c-.01-.592-.22-1.068-.634-1.426a2.263 2.263 0 00-1.534-.536 2.058 2.058 0 00-1.423.53c-.391.353-.626.83-.703 1.432h4.294zm5.196-5.86v10.45h-1.606v-10.45h1.606zm9.508 7.159h-5.932c.047.621.276 1.12.685 1.497.416.378.96.58 1.52.565.864 0 1.474-.362 1.831-1.087h1.732a3.508 3.508 0 01-1.272 1.758c-.614.459-1.377.688-2.287.688a3.954 3.954 0 01-1.993-.501 3.566 3.566 0 01-1.38-1.413 4.322 4.322 0 01-.5-2.11 4.423 4.423 0 01.49-2.112c.31-.593.786-1.08 1.37-1.405a4.06 4.06 0 012.02-.49 3.942 3.942 0 011.957.48 3.39 3.39 0 011.338 1.347c.328.614.493 1.303.48 1.999 0 .262-.02.525-.06.784zm-1.62-1.299c-.01-.592-.22-1.068-.633-1.426a2.267 2.267 0 00-1.535-.536 2.058 2.058 0 00-1.423.53c-.391.353-.626.83-.703 1.432h4.294zm6.585 3.149l2.197-6.34h1.705l-2.957 7.78h-1.915l-2.944-7.78h1.719l2.195 6.34zm5.4-4.56a3.528 3.528 0 013.175-1.907 3.37 3.37 0 011.598.36 3.27 3.27 0 011.092.897v-1.13h1.62v7.781h-1.62V50.94a3.2 3.2 0 01-1.112.918 3.592 3.592 0 01-3.436-.149 3.65 3.65 0 01-1.317-1.44 4.441 4.441 0 01-.489-2.097 4.313 4.313 0 01.49-2.075zm5.534.706a2.323 2.323 0 00-.866-.904 2.258 2.258 0 00-1.155-.31 2.27 2.27 0 00-2.02 1.192c-.23.427-.344.907-.331 1.391-.01.491.103.977.33 1.412.2.384.503.704.874.926a2.267 2.267 0 003.168-.904 2.85 2.85 0 00.331-1.405 2.819 2.819 0 00-.331-1.398zm9.955-2.233c.482.254.877.648 1.133 1.13.273.5.41 1.102.409 1.808v4.59h-1.591v-4.35c0-.696-.174-1.23-.522-1.602-.348-.372-.822-.558-1.422-.558s-1.077.186-1.43.557c-.351.372-.527.907-.526 1.604v4.349h-1.606v-7.781h1.605v.889a2.66 2.66 0 011.006-.748 3.22 3.22 0 011.303-.268 3.47 3.47 0 011.64.38zm5.794 1.06v4.307c0 .295.068.502.204.629.135.126.367.19.696.19h.986v1.342h-1.272c-.723 0-1.277-.17-1.663-.509-.385-.339-.578-.89-.577-1.652V45.63h-.916v-1.313h.916v-1.934h1.62v1.934h1.886v1.313h-1.88zm3.618 6.27a1.033 1.033 0 01.732-1.767.976.976 0 01.718.294 1.058 1.058 0 010 1.473.978.978 0 01-.718.295.987.987 0 01-.732-.295zm14.39-4.01a2.522 2.522 0 01.162 2.916 2.633 2.633 0 01-1.119.945 3.944 3.944 0 01-1.705.347H96.83V42.28h3.731a4 4 0 011.719.338c.44.194.816.51 1.084.911.243.38.37.825.366 1.277 0 .564-.15 1.035-.45 1.411a2.623 2.623 0 01-1.212.834c.535.1 1.012.4 1.338.837zm-4.97-1.483h1.986c.527 0 .937-.12 1.233-.36.297-.241.444-.59.444-1.038 0-.449-.148-.785-.444-1.038-.295-.252-.706-.374-1.233-.374h-1.986v2.81zm3.449 3.982c.31-.262.465-.63.465-1.102a1.425 1.425 0 00-.489-1.143c-.326-.283-.763-.424-1.309-.424h-2.116v3.064h2.168c.544 0 .973-.131 1.286-.395h-.005zm11.208-1.582h-5.928c.047.621.275 1.12.685 1.497.416.378.961.58 1.521.565.863 0 1.473-.362 1.83-1.087h1.732a3.506 3.506 0 01-1.272 1.758c-.615.459-1.377.688-2.288.688a3.962 3.962 0 01-1.993-.501 3.567 3.567 0 01-1.379-1.413 4.307 4.307 0 01-.5-2.11 4.413 4.413 0 01.489-2.112 3.42 3.42 0 011.37-1.405 4.054 4.054 0 012.02-.49 3.942 3.942 0 011.957.48 3.39 3.39 0 011.338 1.347 4.08 4.08 0 01.478 1.999c0 .263-.019.525-.06.784zm-1.614-1.299c-.01-.592-.221-1.068-.634-1.426a2.263 2.263 0 00-1.534-.536 2.059 2.059 0 00-1.423.53c-.391.353-.626.83-.704 1.432h4.295zm10.125-2.986c.426-.23.904-.344 1.388-.332v1.67h-.409c-.629 0-1.105.16-1.429.48-.324.32-.487.876-.489 1.668v4.096h-1.605v-7.781h1.605v1.13a2.52 2.52 0 01.939-.93zm10.257 4.285h-5.927c.047.621.275 1.12.685 1.497.415.378.96.58 1.52.565.865 0 1.475-.362 1.831-1.087h1.732a3.506 3.506 0 01-1.272 1.758c-.615.459-1.378.688-2.289.688a3.958 3.958 0 01-1.992-.501 3.563 3.563 0 01-1.38-1.413 4.33 4.33 0 01-.5-2.11 4.426 4.426 0 01.49-2.112c.31-.592.786-1.08 1.37-1.405a4.06 4.06 0 012.02-.49 3.941 3.941 0 011.957.48 3.4 3.4 0 011.339 1.347 4.08 4.08 0 01.478 1.999c0 .263-.02.525-.062.784zm-1.619-1.299c-.009-.593-.22-1.068-.633-1.426a2.263 2.263 0 00-1.535-.536 2.05 2.05 0 00-1.422.53c-.391.353-.626.83-.704 1.432h4.294zm3.546-1.411a3.53 3.53 0 013.175-1.907 3.38 3.38 0 011.599.36c.425.216.797.522 1.091.897v-1.13h1.619v7.781h-1.619V50.94a3.183 3.183 0 01-1.113.918 3.587 3.587 0 01-3.435-.149 3.656 3.656 0 01-1.317-1.44 4.428 4.428 0 01-.489-2.097 4.304 4.304 0 01.489-2.075zm5.534.706a2.328 2.328 0 00-.866-.904 2.26 2.26 0 00-1.154-.31 2.28 2.28 0 00-2.021 1.193c-.23.426-.344.905-.331 1.39a2.9 2.9 0 00.331 1.412c.2.384.502.704.873.926a2.267 2.267 0 003.168-.904c.228-.433.342-.916.331-1.405a2.826 2.826 0 00-.336-1.398h.005zm4.348-.705a3.53 3.53 0 013.19-1.907 3.628 3.628 0 011.499.332c.457.195.86.498 1.174.883V41.65h1.62V52.1h-1.62v-1.172a2.996 2.996 0 01-1.092.931 3.376 3.376 0 01-1.598.367 3.467 3.467 0 01-1.851-.515 3.638 3.638 0 01-1.324-1.44 4.452 4.452 0 01-.489-2.097 4.309 4.309 0 01.491-2.076zm5.535.706a2.342 2.342 0 00-.866-.905 2.263 2.263 0 00-1.155-.31 2.3 2.3 0 00-1.155.303c-.365.21-.664.519-.866.89-.23.426-.344.906-.331 1.391a2.9 2.9 0 00.331 1.412c.2.383.502.704.873.925a2.272 2.272 0 002.303.007c.366-.218.666-.533.866-.91.228-.433.342-.917.33-1.406a2.834 2.834 0 00-.333-1.398h.003zm11.38-2.488l-4.759 11.438h-1.663l1.577-3.784-3.056-7.657h1.789l2.182 5.93 2.267-5.93 1.663.003zm8.799 1.314h-1.435v6.467h-1.619V45.63h-.916v-1.314h.916v-.55c0-.895.237-1.546.711-1.956.474-.41 1.218-.615 2.231-.615v1.342c-.489 0-.831.092-1.027.275-.197.184-.295.501-.294.954v.55h1.435l-.002 1.314zm3.14 6.093a3.596 3.596 0 01-1.393-1.413 4.264 4.264 0 01-.507-2.11 4.189 4.189 0 01.521-2.104 3.603 3.603 0 011.421-1.413 4.355 4.355 0 014.028 0c.597.327 1.09.816 1.421 1.413a4.18 4.18 0 01.522 2.104 4.099 4.099 0 01-.535 2.104c-.345.6-.85 1.09-1.457 1.42a4.198 4.198 0 01-2.035.5 3.973 3.973 0 01-1.986-.5zm3.147-1.194c.372-.207.677-.515.881-.89.236-.441.352-.938.337-1.44 0-.565-.108-1.042-.324-1.433a2.186 2.186 0 00-.859-.883 2.34 2.34 0 00-1.153-.295 2.305 2.305 0 00-1.148.295c-.36.205-.652.513-.839.883a3.05 3.05 0 00-.309 1.434c0 .837.214 1.485.641 1.942a2.114 2.114 0 001.612.687c.406.001.806-.102 1.161-.3zm7.334-6.007c.425-.23.903-.344 1.386-.332v1.67h-.408c-.629 0-1.106.16-1.429.48-.324.32-.487.876-.49 1.668v4.096h-1.605v-7.781h1.605v1.13a2.5 2.5 0 01.941-.93zm7.155 1.575a3.526 3.526 0 013.175-1.907 3.374 3.374 0 011.598.36c.425.215.797.522 1.091.897v-1.13h1.619v7.781h-1.619V50.94a3.19 3.19 0 01-1.112.918 3.594 3.594 0 01-3.436-.149 3.647 3.647 0 01-1.316-1.44 4.44 4.44 0 01-.489-2.097 4.316 4.316 0 01.489-2.075zm5.533.706a2.328 2.328 0 00-.866-.904 2.26 2.26 0 00-1.154-.31 2.28 2.28 0 00-2.021 1.193 2.785 2.785 0 00-.33 1.39 2.89 2.89 0 00.33 1.412c.2.384.502.704.873.926a2.273 2.273 0 002.302.007c.367-.218.667-.534.866-.912.228-.432.342-.915.331-1.404a2.824 2.824 0 00-.331-1.398zm9.955-2.233c.483.254.878.648 1.133 1.13.272.5.408 1.102.408 1.808v4.59h-1.591v-4.35c0-.696-.173-1.23-.52-1.602-.347-.372-.821-.558-1.423-.558-.601 0-1.077.186-1.428.557-.352.372-.528.907-.529 1.604v4.349h-1.604v-7.781h1.604v.889a2.674 2.674 0 011.007-.748 3.21 3.21 0 011.302-.268 3.47 3.47 0 011.641.38zm10.905-.254l-4.759 11.438h-1.663l1.577-3.784-3.056-7.657h1.788l2.183 5.93 2.267-5.93 1.663.003zm3.421 1.314v4.307c0 .295.069.502.205.629.136.126.367.19.696.19h.987v1.342h-1.272c-.723 0-1.277-.17-1.664-.509-.387-.339-.579-.89-.577-1.652V45.63h-.915v-1.313h.915v-1.934h1.619v1.934h1.888v1.313h-1.882zm9.3-1.06c.47.26.852.652 1.098 1.13.268.499.402 1.101.402 1.807v4.59h-1.592v-4.35c0-.696-.173-1.23-.52-1.602-.347-.372-.821-.558-1.422-.558s-1.077.186-1.429.558c-.353.371-.529.906-.529 1.603v4.349h-1.605V41.648h1.605v3.573a2.693 2.693 0 011.035-.763c.434-.182.9-.273 1.37-.268.553-.01 1.099.12 1.587.38zm3.963-1.58a1.037 1.037 0 01-.229-1.133 1.022 1.022 0 01.962-.634.975.975 0 01.718.294 1.059 1.059 0 010 1.473.97.97 0 01-.718.294.99.99 0 01-.733-.294zm1.522 1.327v7.781h-1.606v-7.78h1.606zm8.004.253c.482.255.877.648 1.134 1.13.272.5.408 1.102.408 1.808v4.59h-1.591v-4.35c0-.696-.174-1.23-.522-1.602-.348-.372-.822-.558-1.422-.558s-1.077.186-1.428.557c-.352.372-.528.907-.529 1.604v4.349h-1.601v-7.782h1.605v.89a2.663 2.663 0 011.007-.748 3.21 3.21 0 011.303-.268 3.472 3.472 0 011.636.38zm8.645-.02c.428.21.802.516 1.091.896v-1.13h1.619v7.91a3.979 3.979 0 01-.451 1.914 3.25 3.25 0 01-1.302 1.32c-.567.32-1.245.48-2.034.48-1.052 0-1.925-.246-2.619-.74a2.727 2.727 0 01-1.183-2.013h1.592c.128.414.408.765.782.982.432.258.928.387 1.43.374.648 0 1.169-.197 1.565-.59.396-.392.596-.966.599-1.722v-1.3a3.268 3.268 0 01-1.105.926 3.3 3.3 0 01-1.585.374 3.466 3.466 0 01-1.851-.516 3.638 3.638 0 01-1.324-1.44 4.451 4.451 0 01-.489-2.097 4.316 4.316 0 01.489-2.075 3.547 3.547 0 011.32-1.403 3.525 3.525 0 011.855-.504 3.428 3.428 0 011.601.354zm.76 2.252a2.329 2.329 0 00-.866-.904 2.26 2.26 0 00-1.154-.31 2.279 2.279 0 00-2.021 1.193 2.784 2.784 0 00-.33 1.39 2.89 2.89 0 00.33 1.412c.2.384.502.704.873.926a2.273 2.273 0 002.302.007c.367-.218.667-.533.866-.911.229-.433.342-.916.331-1.405a2.823 2.823 0 00-.331-1.398zm4.319 5.098a1.038 1.038 0 01-.228-1.132 1.035 1.035 0 01.961-.635.978.978 0 01.719.294 1.057 1.057 0 010 1.473.99.99 0 01-.719.295.999.999 0 01-.733-.295zM66.657 69.043h-1.605l-4.83-7.329v7.329h-1.605v-9.828h1.605l4.83 7.315v-7.315h1.605v9.828zm9.504-3.291h-5.928c.048.621.277 1.12.69 1.497.416.377.96.58 1.521.564.863 0 1.473-.362 1.83-1.087h1.732a3.5 3.5 0 01-1.272 1.758c-.615.458-1.377.687-2.288.687a3.945 3.945 0 01-1.992-.502 3.564 3.564 0 01-1.38-1.411 4.326 4.326 0 01-.5-2.112 4.422 4.422 0 01.489-2.11 3.423 3.423 0 011.37-1.406 4.05 4.05 0 012.02-.49 3.944 3.944 0 011.957.48c.565.313 1.029.78 1.338 1.349a4.07 4.07 0 01.478 1.997 5.089 5.089 0 01-.065.786zm-1.619-1.3c-.01-.592-.221-1.067-.634-1.425a2.262 2.262 0 00-1.534-.538 2.058 2.058 0 00-1.423.53c-.391.353-.626.83-.703 1.434h4.294zm6.588 3.151l2.198-6.34h1.704l-2.958 7.78H80.16l-2.942-7.783h1.717l2.197 6.343zm12.505-1.851h-5.933c.047.62.277 1.12.691 1.497.416.377.96.58 1.52.564.864 0 1.473-.362 1.83-1.087h1.732a3.506 3.506 0 01-1.272 1.758c-.614.458-1.377.687-2.288.687a3.945 3.945 0 01-1.992-.502 3.563 3.563 0 01-1.38-1.411 4.326 4.326 0 01-.5-2.112 4.422 4.422 0 01.489-2.11 3.423 3.423 0 011.37-1.406 4.05 4.05 0 012.02-.49 3.943 3.943 0 011.957.48c.565.313 1.03.78 1.338 1.349a4.07 4.07 0 01.478 1.997 5.1 5.1 0 01-.06.786zm-1.62-1.3c-.01-.592-.22-1.067-.634-1.425a2.262 2.262 0 00-1.534-.538 2.058 2.058 0 00-1.423.53c-.391.353-.626.83-.703 1.434h4.294zm6.132-2.985a2.754 2.754 0 011.387-.333v1.669h-.408c-.629 0-1.106.16-1.43.48-.324.32-.487.876-.489 1.669v4.094h-1.606v-7.788h1.606v1.13c.226-.385.55-.704.94-.921zm8.378 7.371a2.87 2.87 0 01-1.148-.904 2.256 2.256 0 01-.451-1.276h1.664a1.137 1.137 0 00.471.825c.312.23.691.346 1.076.332.452 0 .801-.087 1.049-.261a.786.786 0 00.374-.67.687.687 0 00-.416-.65 7.803 7.803 0 00-1.316-.467 12.691 12.691 0 01-1.422-.465 2.508 2.508 0 01-.951-.692c-.268-.311-.401-.72-.401-1.23a1.914 1.914 0 01.366-1.135 2.438 2.438 0 011.049-.813 3.913 3.913 0 011.566-.295c.882 0 1.593.224 2.133.672.539.448.828 1.057.866 1.828h-1.605a1.143 1.143 0 00-.423-.833c-.253-.207-.595-.31-1.027-.31-.432 0-.756.08-.972.24a.743.743 0 00-.337.635.684.684 0 00.225.522c.158.147.345.26.549.332.216.08.536.182.958.304.472.12.935.274 1.386.459.36.155.68.39.937.687.262.301.399.7.408 1.2.005.424-.123.84-.366 1.186a2.438 2.438 0 01-1.036.82 3.846 3.846 0 01-1.565.294 3.9 3.9 0 01-1.641-.335zm8.554-6.262v4.306c0 .292.068.502.203.629.136.127.368.19.697.19h.986v1.341h-1.272c-.722 0-1.277-.169-1.663-.507-.386-.339-.579-.89-.577-1.653v-4.306h-.916v-1.317h.916v-1.935h1.619v1.935h1.886v1.314l-1.879.003zm5.082 6.092a3.603 3.603 0 01-1.394-1.411 4.267 4.267 0 01-.506-2.112 4.188 4.188 0 01.52-2.104 3.612 3.612 0 011.422-1.411 4.346 4.346 0 014.027 0 3.6 3.6 0 011.422 1.411 4.19 4.19 0 01.521 2.104 4.093 4.093 0 01-.535 2.105 3.707 3.707 0 01-1.457 1.418 4.185 4.185 0 01-2.035.502 3.962 3.962 0 01-1.985-.502zm3.147-1.192c.371-.208.676-.516.88-.89a2.87 2.87 0 00.338-1.44 2.928 2.928 0 00-.327-1.432 2.186 2.186 0 00-.859-.884 2.336 2.336 0 00-1.154-.294 2.293 2.293 0 00-1.147.294c-.36.206-.652.513-.839.884a3.022 3.022 0 00-.309 1.432c0 .838.213 1.486.64 1.942a2.115 2.115 0 001.612.687 2.39 2.39 0 001.165-.3zm7.511-5.974a3.395 3.395 0 011.591-.367 3.513 3.513 0 013.168 1.907c.329.641.494 1.355.48 2.076a4.487 4.487 0 01-.48 2.097 3.582 3.582 0 01-1.316 1.44 3.463 3.463 0 01-1.852.516 3.349 3.349 0 01-1.576-.36 3.534 3.534 0 01-1.127-.897v4.832h-1.605V61.26h1.605v1.144c.3-.379.68-.687 1.112-.902zm3.274 2.225a2.265 2.265 0 00-.873-.89 2.34 2.34 0 00-1.161-.304c-.403 0-.799.108-1.148.311a2.31 2.31 0 00-.873.904 2.82 2.82 0 00-.331 1.398c-.012.489.103.973.331 1.405a2.291 2.291 0 002.314 1.203c.307-.04.602-.142.868-.3a2.33 2.33 0 00.873-.924 2.9 2.9 0 00.331-1.412 2.796 2.796 0 00-.331-1.391zm9.497-5.133v10.45h-1.604v-10.45h1.604zm9.504 7.158h-5.927c.047.62.275 1.12.685 1.497.415.377.96.58 1.52.564.864 0 1.475-.362 1.831-1.087h1.732a3.512 3.512 0 01-1.272 1.758c-.615.458-1.378.687-2.289.687a3.947 3.947 0 01-1.992-.502 3.553 3.553 0 01-1.38-1.411 4.311 4.311 0 01-.5-2.112 4.433 4.433 0 01.489-2.11 3.438 3.438 0 011.37-1.406 4.055 4.055 0 012.021-.49 3.945 3.945 0 011.957.48 3.39 3.39 0 011.337 1.349 4.06 4.06 0 01.479 1.997c0 .263-.02.526-.061.786zm-1.618-1.3c-.01-.592-.221-1.068-.634-1.426a2.263 2.263 0 00-1.535-.537 2.055 2.055 0 00-1.422.53c-.392.353-.626.83-.704 1.434h4.295zm3.545-1.412a3.545 3.545 0 013.174-1.906 3.39 3.39 0 011.599.36c.425.215.797.522 1.091.897v-1.133h1.619v7.78h-1.619v-1.157a3.184 3.184 0 01-1.113.918 3.587 3.587 0 01-3.435-.148 3.643 3.643 0 01-1.316-1.44 4.44 4.44 0 01-.49-2.097 4.309 4.309 0 01.49-2.074zm5.533.706a2.342 2.342 0 00-.866-.903 2.261 2.261 0 00-1.155-.311 2.28 2.28 0 00-2.02 1.194c-.23.426-.344.906-.331 1.39a2.9 2.9 0 00.331 1.412c.2.383.502.703.873.925a2.262 2.262 0 003.168-.903 2.88 2.88 0 00.331-1.406 2.837 2.837 0 00-.335-1.398h.004zm6.937-2.279a2.755 2.755 0 011.388-.333v1.669h-.409c-.63 0-1.106.16-1.429.48-.323.32-.486.876-.489 1.669v4.094h-1.605v-7.788h1.605v1.13c.226-.385.55-.703.939-.921zm8.762.049a2.7 2.7 0 011.133 1.13c.272.499.408 1.101.408 1.807v4.589h-1.591v-4.347c0-.696-.173-1.23-.52-1.602-.347-.373-.821-.559-1.423-.559-.601 0-1.077.186-1.428.559-.352.372-.528.906-.529 1.602v4.349h-1.604v-7.785h1.604v.89a2.667 2.667 0 011.007-.749c.411-.18.854-.27 1.302-.269a3.47 3.47 0 011.641.385zm4.001-1.581a1.037 1.037 0 01-.229-1.132 1.028 1.028 0 01.962-.635.977.977 0 01.717.295 1.054 1.054 0 010 1.472.979.979 0 01-.717.295.996.996 0 01-.733-.295zm1.522 1.328v7.78h-1.609V61.26l1.609.003zm8.004.253c.482.254.878.647 1.134 1.13.272.499.408 1.101.408 1.807v4.589h-1.591v-4.347c0-.696-.174-1.23-.522-1.602-.348-.373-.821-.559-1.422-.559-.6 0-1.077.186-1.428.559-.352.372-.528.906-.528 1.602v4.349h-1.606v-7.785h1.606v.89c.27-.327.616-.584 1.006-.749.411-.18.855-.27 1.303-.269a3.472 3.472 0 011.64.385zm8.645-.021c.428.21.802.517 1.091.897V61.26h1.62v7.908a4.002 4.002 0 01-.451 1.913 3.26 3.26 0 01-1.303 1.32c-.567.32-1.245.48-2.034.48-1.052 0-1.925-.246-2.619-.74a2.74 2.74 0 01-1.183-2.013h1.592c.129.414.408.764.782.982.432.258.928.388 1.43.374.648 0 1.17-.197 1.565-.59.396-.392.596-.966.599-1.722v-1.299a3.338 3.338 0 01-2.69 1.299 3.466 3.466 0 01-1.851-.516 3.637 3.637 0 01-1.324-1.44 4.452 4.452 0 01-.489-2.097 4.32 4.32 0 01.489-2.076 3.534 3.534 0 013.175-1.907 3.44 3.44 0 011.601.36zm.761 2.252a2.343 2.343 0 00-.866-.903 2.266 2.266 0 00-1.155-.312 2.286 2.286 0 00-2.021 1.194 2.785 2.785 0 00-.33 1.391 2.9 2.9 0 00.33 1.412c.2.383.503.704.873.925a2.265 2.265 0 003.169-.903c.228-.433.341-.917.33-1.406a2.834 2.834 0 00-.33-1.398zm4.314 5.098a1.036 1.036 0 01.155-1.597c.172-.114.373-.172.578-.17a.972.972 0 01.718.295 1.058 1.058 0 010 1.472.981.981 0 01-.718.295.991.991 0 01-.733-.295zM81.487 30.305l-5.642-8.511-4.972 8.511h-7.65l8.875-14.13L63.024 2.52h7.849l5.561 8.391 4.893-8.391h7.652l-8.794 14.012 9.152 13.773h-7.85zM116.596 2.52v5.423h-7.338v22.362h-6.746V7.943h-7.338V2.52h21.422zm26.39 22.561h8.836v5.225h-15.581V2.523h6.745v22.558zm67.3-22.561l-9.823 27.782h-8.442L182.198 2.52h7.179l6.865 20.978 6.903-20.978h7.141zm13.491 5.424v5.62h9.032v5.225h-9.032v6.095h10.217v5.422h-16.962V2.523h16.962v5.423l-10.217-.002zm25.287 17.137h8.836v5.225h-15.582V2.523h6.746v22.558zM39.238 2.52v7.934h6.746V7.943H56.2V2.52H39.238zm15.78 11.07h-15.78v5.16h15.78v-5.16zm-9.034 8.293h-6.746v8.422h16.963v-5.422H45.984v-3zm-22.329-9.141v6.995L12.373 2.52H5.627v27.785h6.746V13.167l11.282 17.138H30.4V12.742h-6.746z" fill="#fff"/><path d="M174.783 13.59h-15.78v5.16h15.78v-5.16z" fill="#FB221D"/><path d="M165.748 21.883h-6.745v8.422h16.963v-5.422h-10.218v-3zM159.003 2.52v7.934h6.745V7.943h10.218V2.52h-16.963z" fill="#fff"/><path d="M27.14.016l-5.613 9.753H32.75L27.139.016z" fill="#FB221D"/></g></g><defs><clipPath id="clip0"><path fill="#fff" d="M0 0h265v74H0z"/></clipPath><clipPath id="clip1"><path fill="#fff" transform="translate(3.457)" d="M0 0h261.543v72.844H0z"/></clipPath></defs></svg>