<svg width="230" height="64" fill="none" xmlns="http://www.w3.org/2000/svg"><g clip-path="url(#clip0)"><g clip-path="url(#clip1)"><path d="M10.597 41.418a2.178 2.178 0 01.14 2.523c-.24.359-.576.642-.971.817-.465.209-.97.311-1.479.3H4.89v-8.49h3.24a3.482 3.482 0 011.49.293c.383.167.71.44.942.787.211.33.321.713.317 1.104 0 .489-.13.896-.391 1.221a2.272 2.272 0 01-1.05.721c.463.087.878.346 1.16.724zm-4.314-1.282H8.01c.457 0 .813-.104 1.07-.311.256-.208.384-.507.384-.898 0-.383-.128-.682-.384-.897-.257-.215-.613-.323-1.07-.324H6.283v2.43zm2.995 3.444c.268-.227.402-.544.402-.953a1.238 1.238 0 00-.425-.989c-.283-.244-.661-.366-1.136-.366H6.283v2.65h1.882c.472 0 .843-.114 1.113-.342zm9.727-1.369H13.86c.04.538.24.97.599 1.295.36.327.833.502 1.32.488.748 0 1.278-.313 1.588-.94h1.503a3.03 3.03 0 01-1.104 1.521c-.533.396-1.195.594-1.985.594-.604.01-1.2-.139-1.73-.432a3.082 3.082 0 01-1.197-1.222 3.716 3.716 0 01-.433-1.826 3.814 3.814 0 01.424-1.826 2.97 2.97 0 011.19-1.215 3.535 3.535 0 011.753-.425 3.43 3.43 0 011.698.416c.49.27.893.674 1.161 1.165a3.51 3.51 0 01.416 1.729 4.38 4.38 0 01-.058.678zm-1.406-1.123c-.008-.513-.192-.924-.55-1.234a1.97 1.97 0 00-1.332-.463 1.783 1.783 0 00-1.234.458c-.34.305-.543.718-.611 1.24h3.727zm8.793-2.582c.37-.2.784-.298 1.204-.287v1.443h-.355c-.546 0-.96.138-1.24.415-.281.277-.423.758-.425 1.444v3.542h-1.39v-6.73h1.393v.977c.194-.336.475-.614.813-.804zm8.903 3.705H30.15c.04.538.24.97.599 1.295.36.327.833.502 1.32.488.748 0 1.278-.313 1.587-.94h1.505a3.04 3.04 0 01-1.105 1.521c-.533.396-1.195.594-1.985.594-.604.01-1.2-.139-1.73-.432a3.088 3.088 0 01-1.197-1.222 3.726 3.726 0 01-.434-1.826 3.815 3.815 0 01.424-1.826 2.97 2.97 0 011.19-1.215 3.535 3.535 0 011.753-.425 3.43 3.43 0 011.698.416c.488.27.889.672 1.156 1.16.284.531.427 1.127.416 1.729 0 .229-.017.457-.052.683zm-1.406-1.123c-.008-.513-.192-.924-.55-1.234a1.968 1.968 0 00-1.332-.463 1.79 1.79 0 00-1.234.458c-.34.305-.544.718-.611 1.24h3.727zm4.51-5.068v9.038h-1.394V36.02h1.394zm8.251 6.191h-5.148c.041.538.24.97.595 1.295.36.327.833.502 1.32.488.749 0 1.278-.313 1.589-.94h1.503a3.035 3.035 0 01-1.104 1.521c-.534.396-1.195.594-1.986.594a3.45 3.45 0 01-1.729-.432 3.088 3.088 0 01-1.198-1.222 3.727 3.727 0 01-.433-1.826 3.815 3.815 0 01.425-1.826 2.964 2.964 0 011.188-1.215 3.535 3.535 0 011.754-.425 3.43 3.43 0 011.698.416c.49.27.893.674 1.161 1.165.285.531.428 1.127.417 1.729 0 .227-.017.454-.051.678zm-1.405-1.123c-.008-.513-.191-.924-.55-1.234a1.972 1.972 0 00-1.332-.463 1.79 1.79 0 00-1.235.458c-.34.305-.543.718-.61 1.24h3.727zm5.715 2.723l1.907-5.484h1.48l-2.567 6.73h-1.662l-2.555-6.73h1.492l1.905 5.484zm4.687-3.944a3.07 3.07 0 012.756-1.648c.481-.012.957.095 1.387.311.369.186.693.45.948.775v-.977h1.404v6.73h-1.404v-1.002a2.774 2.774 0 01-.966.794 3.127 3.127 0 01-2.982-.129 3.16 3.16 0 01-1.143-1.245 3.83 3.83 0 01-.424-1.814 3.72 3.72 0 01.424-1.794zm4.803.61a2.009 2.009 0 00-.752-.781 1.965 1.965 0 00-1.002-.268 1.976 1.976 0 00-1.753 1.031c-.2.37-.298.784-.288 1.203-.009.425.09.845.288 1.221.173.332.436.61.758.801a1.973 1.973 0 002.749-.782c.199-.373.298-.792.288-1.215a2.43 2.43 0 00-.288-1.21zm8.64-1.93c.419.219.761.56.983.977.238.431.356.952.355 1.563v3.97h-1.38v-3.762c0-.603-.151-1.065-.453-1.386-.302-.322-.713-.483-1.234-.483-.522 0-.935.161-1.24.483-.307.321-.46.783-.459 1.386v3.761H64.27v-6.73h1.393v.77c.236-.282.535-.504.873-.647a2.804 2.804 0 011.13-.232 3.02 3.02 0 011.425.33zm5.029.917v3.725c0 .255.059.434.177.543.118.11.319.165.604.165h.856v1.16h-1.104c-.627 0-1.109-.146-1.443-.44-.335-.292-.502-.769-.501-1.428v-3.725h-.795v-1.136h.795v-1.673h1.405v1.673h1.637v1.136h-1.63zm3.141 5.422a.892.892 0 01.635-1.528.849.849 0 01.623.254.914.914 0 010 1.274.848.848 0 01-.623.255.861.861 0 01-.635-.255zm12.488-3.468a2.176 2.176 0 01.141 2.523c-.24.359-.577.642-.971.817-.465.209-.97.311-1.48.3h-3.397v-8.49h3.239a3.482 3.482 0 011.49.293c.383.167.71.44.942.787.211.33.322.713.317 1.104 0 .489-.13.896-.39 1.221-.275.336-.64.586-1.052.721a1.88 1.88 0 011.161.724zm-4.313-1.282h1.724c.457 0 .813-.103 1.07-.311.257-.208.385-.51.385-.898s-.129-.68-.385-.897c-.256-.218-.613-.324-1.07-.324h-1.724v2.43zm2.994 3.444c.269-.227.403-.544.403-.953a1.233 1.233 0 00-.425-.989c-.283-.244-.661-.366-1.136-.366h-1.836v2.65h1.882c.472 0 .844-.114 1.116-.342h-.004zm9.727-1.369h-5.145c.04.538.239.97.594 1.295.361.327.834.502 1.321.489.749 0 1.278-.314 1.588-.94h1.503a3.033 3.033 0 01-1.104 1.52c-.533.396-1.195.594-1.985.594a3.447 3.447 0 01-1.73-.432A3.092 3.092 0 0192 43.514a3.717 3.717 0 01-.434-1.826 3.814 3.814 0 01.425-1.826c.27-.512.683-.935 1.189-1.215a3.532 3.532 0 011.754-.425 3.434 3.434 0 011.698.416c.49.27.893.674 1.161 1.165.284.532.427 1.127.415 1.729 0 .227-.017.454-.052.678zm-1.4-1.123c-.01-.513-.193-.924-.551-1.233a1.967 1.967 0 00-1.332-.464 1.79 1.79 0 00-1.234.458c-.34.305-.544.718-.611 1.24h3.727zm8.787-2.582a2.41 2.41 0 011.204-.287v1.443h-.355c-.545 0-.959.138-1.24.415-.28.277-.422.758-.424 1.444v3.542h-1.393v-6.73h1.393v.977c.195-.336.477-.613.815-.804zm8.903 3.705h-5.145c.041.538.239.97.594 1.295.361.327.834.502 1.32.488.75 0 1.28-.313 1.589-.94h1.503a3.027 3.027 0 01-1.104 1.521c-.534.396-1.196.594-1.986.594a3.444 3.444 0 01-1.729-.432 3.08 3.08 0 01-1.198-1.222 3.73 3.73 0 01-.434-1.826 3.825 3.825 0 01.425-1.826c.27-.512.683-.934 1.189-1.215a3.536 3.536 0 011.754-.425 3.43 3.43 0 011.698.416c.491.27.894.674 1.162 1.165.284.532.427 1.127.415 1.729 0 .227-.018.454-.053.678zm-1.406-1.123c-.007-.513-.19-.924-.549-1.234a1.972 1.972 0 00-1.333-.463 1.785 1.785 0 00-1.234.458c-.339.305-.543.718-.611 1.24h3.727zm3.078-1.221a3.063 3.063 0 012.756-1.648c.481-.012.957.095 1.387.311.369.186.692.45.947.775v-.977h1.406v6.73h-1.406v-1.002a2.756 2.756 0 01-.966.794 3.124 3.124 0 01-2.981-.129 3.163 3.163 0 01-1.143-1.245 3.824 3.824 0 01-.425-1.814 3.725 3.725 0 01.425-1.795zm4.803.61a2.02 2.02 0 00-.752-.781 1.968 1.968 0 00-1.002-.268 1.968 1.968 0 00-1.753 1.032c-.2.368-.299.783-.287 1.202-.01.425.089.845.287 1.221a1.978 1.978 0 002.755.807c.319-.189.579-.461.752-.788.198-.374.297-.792.287-1.215a2.439 2.439 0 00-.291-1.21h.004zm3.774-.609a3.068 3.068 0 012.769-1.65c.449.003.892.1 1.301.288.396.168.746.43 1.019.764v-3.248h1.405v9.037h-1.405v-1.014a2.616 2.616 0 01-.948.806 2.942 2.942 0 01-1.387.317 3.017 3.017 0 01-1.607-.445 3.153 3.153 0 01-1.149-1.246 3.835 3.835 0 01-.424-1.813 3.717 3.717 0 01.426-1.796zm4.803.61a1.968 1.968 0 00-1.753-1.05 1.978 1.978 0 00-1.754 1.032c-.2.368-.299.783-.288 1.203a2.5 2.5 0 00.288 1.22c.173.332.436.61.758.801a1.974 1.974 0 001.998.006c.318-.188.578-.461.751-.788.198-.374.297-.792.287-1.215.01-.421-.09-.838-.289-1.209h.002zm9.878-2.149l-4.131 9.892h-1.444l1.369-3.273-2.652-6.623h1.553l1.893 5.13 1.968-5.13 1.444.004zm7.637 1.135h-1.246v5.594h-1.405v-5.594h-.795v-1.136h.795v-.476c0-.773.205-1.337.617-1.692.412-.354 1.057-.531 1.936-.531v1.16c-.424 0-.721.08-.891.238-.171.159-.256.434-.255.825v.476h1.246l-.002 1.136zm2.725 5.27a3.11 3.11 0 01-1.209-1.221 3.677 3.677 0 01-.44-1.826 3.605 3.605 0 01.452-1.82 3.117 3.117 0 011.234-1.221 3.785 3.785 0 013.495 0c.519.282.947.706 1.234 1.222.309.556.465 1.183.453 1.82a3.536 3.536 0 01-.465 1.819 3.225 3.225 0 01-1.264 1.227 3.653 3.653 0 01-1.767.433 3.457 3.457 0 01-1.723-.433zm2.731-1.032c.323-.179.588-.446.765-.77.205-.382.306-.811.293-1.245 0-.489-.094-.902-.282-1.24a1.897 1.897 0 00-.745-.764 2.04 2.04 0 00-1.001-.254 2.01 2.01 0 00-.997.254 1.828 1.828 0 00-.727.764c-.19.386-.282.811-.269 1.24 0 .725.186 1.285.557 1.68a1.833 1.833 0 001.398.594c.353 0 .7-.088 1.008-.26zm6.365-5.196a2.406 2.406 0 011.204-.287v1.443h-.355c-.546 0-.959.138-1.24.415-.281.277-.423.758-.425 1.444v3.542h-1.393v-6.73h1.393v.977c.195-.336.477-.614.816-.804zm6.211 1.361a3.068 3.068 0 012.755-1.648c.481-.012.957.095 1.387.311.369.186.692.45.947.775v-.977h1.406v6.73h-1.406v-1.002a2.762 2.762 0 01-.965.794 3.13 3.13 0 01-2.982-.129 3.154 3.154 0 01-1.142-1.245 3.824 3.824 0 01-.425-1.814 3.725 3.725 0 01.425-1.795zm4.802.61a2.02 2.02 0 00-.752-.781 1.968 1.968 0 00-1.002-.268 1.968 1.968 0 00-1.753 1.032c-.2.368-.299.783-.287 1.202-.01.425.089.845.287 1.221a1.977 1.977 0 002.755.807c.319-.189.579-.461.752-.788.198-.374.297-.792.287-1.215a2.437 2.437 0 00-.287-1.21zm8.64-1.93c.419.219.762.56.984.977.236.431.354.952.354 1.563v3.97h-1.381v-3.762c0-.603-.151-1.065-.452-1.386-.301-.322-.713-.483-1.235-.483-.521 0-.934.161-1.239.483-.306.321-.458.783-.459 1.386v3.761h-1.393v-6.73h1.393v.77a2.31 2.31 0 01.874-.647 2.793 2.793 0 011.13-.232 3.02 3.02 0 011.424.33zm9.465-.218l-4.131 9.892h-1.443l1.369-3.273-2.653-6.623h1.552l1.895 5.13 1.967-5.13 1.444.004zm2.969 1.135v3.725c0 .255.059.434.177.543.118.11.32.165.605.165h.856v1.16h-1.104c-.627 0-1.108-.146-1.444-.44-.335-.292-.502-.769-.501-1.428v-3.725h-.794v-1.136h.794v-1.673h1.406v1.673h1.638v1.136h-1.633zm8.072-.917c.407.224.739.565.953.978.232.43.349.952.349 1.563v3.969h-1.382v-3.761c0-.603-.151-1.065-.452-1.387-.301-.321-.712-.482-1.234-.482-.521 0-.935.16-1.241.482-.305.322-.458.784-.458 1.387v3.761h-1.393V36.02h1.393v3.09c.242-.29.55-.516.898-.66a3.009 3.009 0 011.189-.231c.48-.01.954.104 1.378.328zm3.439-1.367a.897.897 0 01-.199-.98.893.893 0 01.835-.549.85.85 0 01.624.255.917.917 0 010 1.274.844.844 0 01-.624.255.861.861 0 01-.636-.255zm1.321 1.148v6.73h-1.394v-6.73h1.394zm6.947.219c.418.22.761.56.984.977.236.431.354.952.354 1.563v3.97h-1.381v-3.762c0-.603-.151-1.065-.453-1.387-.301-.321-.713-.482-1.233-.482-.522 0-.935.161-1.24.482-.306.322-.458.784-.459 1.387v3.761h-1.39v-6.73h1.393v.77c.236-.282.536-.504.874-.647a2.8 2.8 0 011.131-.232 3.01 3.01 0 011.42.33zm7.503-.017c.372.182.696.447.947.775v-.977h1.406v6.842a3.44 3.44 0 01-.392 1.655 2.822 2.822 0 01-1.13 1.142c-.493.276-1.081.415-1.766.415-.912 0-1.67-.214-2.273-.641a2.373 2.373 0 01-1.027-1.74h1.382c.111.358.354.66.679.848.375.223.805.336 1.241.324.562 0 1.015-.17 1.359-.51.343-.34.517-.836.519-1.49V44.05a2.833 2.833 0 01-.959.8 2.87 2.87 0 01-1.375.323 3.017 3.017 0 01-1.607-.446 3.145 3.145 0 01-1.149-1.245 3.835 3.835 0 01-.424-1.814 3.712 3.712 0 01.424-1.795 3.07 3.07 0 012.756-1.648 2.98 2.98 0 011.389.305zm.66 1.948a1.972 1.972 0 00-1.754-1.05 1.968 1.968 0 00-1.753 1.032c-.2.368-.299.783-.287 1.202-.01.425.089.845.287 1.221a1.977 1.977 0 002.756.807 2.01 2.01 0 00.751-.788c.198-.374.297-.792.287-1.215a2.437 2.437 0 00-.287-1.21zm3.749 4.408a.89.89 0 01.135-1.381.89.89 0 01.501-.147.848.848 0 01.623.254.913.913 0 010 1.274.85.85 0 01-.623.255.868.868 0 01-.636-.255zM57.854 59.713H56.46l-4.192-6.338v6.338h-1.392v-8.5h1.392l4.192 6.326v-6.326h1.394v8.5zm8.248-2.846h-5.145c.041.537.24.968.6 1.294.36.327.833.502 1.319.489.749 0 1.279-.314 1.589-.941h1.502a3.027 3.027 0 01-1.104 1.52c-.533.397-1.195.595-1.985.595a3.443 3.443 0 01-1.73-.434 3.087 3.087 0 01-1.198-1.22 3.73 3.73 0 01-.434-1.827 3.812 3.812 0 01.425-1.826c.27-.512.683-.934 1.189-1.215a3.527 3.527 0 011.754-.424 3.432 3.432 0 011.698.416c.49.27.893.674 1.161 1.166a3.51 3.51 0 01.415 1.727c0 .228-.02.455-.056.68zm-1.405-1.124c-.009-.513-.192-.924-.55-1.233a1.968 1.968 0 00-1.332-.465 1.79 1.79 0 00-1.235.459c-.34.304-.543.717-.61 1.24h3.727zm5.718 2.724l1.907-5.483h1.48l-2.568 6.729h-1.662L67.02 52.98h1.49l1.906 5.486zm10.853-1.6h-5.15c.042.537.242.968.6 1.294.361.327.834.502 1.32.489.75 0 1.279-.314 1.588-.941h1.503a3.032 3.032 0 01-1.104 1.52c-.533.397-1.195.595-1.985.595a3.443 3.443 0 01-1.73-.434 3.087 3.087 0 01-1.198-1.22 3.73 3.73 0 01-.433-1.827 3.812 3.812 0 01.424-1.826c.27-.512.683-.934 1.19-1.215a3.527 3.527 0 011.753-.424 3.432 3.432 0 011.698.416c.49.27.893.674 1.161 1.166a3.51 3.51 0 01.415 1.727c0 .228-.017.455-.052.68zm-1.406-1.124c-.008-.513-.192-.924-.55-1.233a1.968 1.968 0 00-1.332-.465 1.79 1.79 0 00-1.234.459c-.34.304-.544.717-.611 1.24h3.727zm5.323-2.583a2.402 2.402 0 011.203-.287v1.443h-.354c-.546 0-.96.139-1.24.415-.282.277-.424.758-.425 1.444v3.541h-1.394v-6.735h1.394v.977a2.16 2.16 0 01.816-.797zm7.271 6.376a2.483 2.483 0 01-.996-.782 1.943 1.943 0 01-.392-1.104h1.444a.982.982 0 00.409.714c.27.198.6.299.934.287.392 0 .695-.075.91-.226a.679.679 0 00.325-.58.594.594 0 00-.361-.562 6.784 6.784 0 00-1.142-.403 11.06 11.06 0 01-1.235-.403 2.172 2.172 0 01-.825-.598c-.232-.27-.348-.623-.348-1.063-.002-.353.11-.698.318-.983a2.12 2.12 0 01.91-.703 3.41 3.41 0 011.359-.254c.766 0 1.383.193 1.851.58.468.387.72.914.752 1.581h-1.393a.994.994 0 00-.367-.72c-.22-.18-.517-.269-.891-.269-.375 0-.656.07-.844.208a.641.641 0 00-.293.55.594.594 0 00.196.451c.137.127.3.225.476.287.188.07.465.158.832.263.41.104.811.237 1.203.397.312.134.59.337.813.594.227.26.346.606.354 1.038a1.75 1.75 0 01-.318 1.026c-.229.314-.54.56-.898.708a3.35 3.35 0 01-1.36.255 3.397 3.397 0 01-1.423-.29zm7.424-5.416v3.724c0 .253.059.434.176.544.118.11.32.165.605.165h.856v1.16h-1.104c-.627 0-1.108-.147-1.444-.44-.335-.292-.502-.769-.5-1.429V54.12h-.795v-1.14h.794v-1.673h1.406v1.673h1.637v1.136l-1.631.003zm4.411 5.269a3.116 3.116 0 01-1.21-1.221 3.68 3.68 0 01-.44-1.827 3.615 3.615 0 01.452-1.82 3.129 3.129 0 011.234-1.22 3.784 3.784 0 013.496 0 3.12 3.12 0 011.233 1.22c.309.557.465 1.185.453 1.82a3.538 3.538 0 01-.464 1.82 3.214 3.214 0 01-1.265 1.228 3.65 3.65 0 01-1.766.433 3.443 3.443 0 01-1.723-.433zm2.731-1.032c.322-.18.587-.446.764-.77.205-.382.306-.812.293-1.246a2.513 2.513 0 00-.284-1.238 1.897 1.897 0 00-.745-.764 2.032 2.032 0 00-1.001-.254 2 2 0 00-.997.254 1.828 1.828 0 00-.727.764 2.62 2.62 0 00-.269 1.24c0 .724.185 1.284.556 1.679a1.837 1.837 0 001.399.594c.354.001.701-.088 1.011-.259zm6.519-5.166a2.957 2.957 0 011.381-.318 3.062 3.062 0 012.75 1.65c.285.554.428 1.171.416 1.795a3.87 3.87 0 01-.416 1.814 3.108 3.108 0 01-1.142 1.245 3.021 3.021 0 01-1.608.446 2.919 2.919 0 01-1.368-.312 3.064 3.064 0 01-.978-.775v4.18h-1.393V52.98h1.393v.99c.261-.328.59-.594.965-.78zm2.842 1.924a1.964 1.964 0 00-.758-.77 2.036 2.036 0 00-1.008-.262 1.993 1.993 0 00-1.753 1.05 2.426 2.426 0 00-.288 1.209c-.01.423.089.842.288 1.216a1.972 1.972 0 001.213.981 1.987 1.987 0 002.306-1c.197-.376.296-.796.287-1.22a2.403 2.403 0 00-.287-1.204zm8.242-4.44v9.037h-1.392v-9.037h1.392zm8.249 6.193h-5.145c.041.537.239.968.595 1.294a1.89 1.89 0 001.32.489c.75 0 1.279-.314 1.589-.941h1.503a3.039 3.039 0 01-1.104 1.52c-.534.397-1.196.595-1.987.595a3.436 3.436 0 01-1.729-.434 3.082 3.082 0 01-1.197-1.221 3.723 3.723 0 01-.434-1.826 3.823 3.823 0 01.425-1.826 2.97 2.97 0 011.188-1.215 3.53 3.53 0 011.754-.424 3.437 3.437 0 011.699.416c.49.27.893.674 1.161 1.166a3.51 3.51 0 01.415 1.727 4.3 4.3 0 01-.053.68zm-1.404-1.124c-.009-.513-.192-.924-.551-1.233a1.967 1.967 0 00-1.332-.465 1.787 1.787 0 00-1.234.459c-.34.304-.543.717-.611 1.24h3.728zm3.076-1.222a3.077 3.077 0 012.755-1.65c.481-.01.958.097 1.388.312.369.187.692.451.947.777v-.98h1.405v6.728h-1.405v-1a2.765 2.765 0 01-.966.793 3.124 3.124 0 01-2.982-.128 3.16 3.16 0 01-1.142-1.245 3.811 3.811 0 01-.424-1.814 3.706 3.706 0 01.424-1.793zm4.803.61a2.026 2.026 0 00-.752-.781 1.969 1.969 0 00-1.002-.27 1.978 1.978 0 00-1.754 1.032 2.402 2.402 0 00-.287 1.205c-.009.424.089.844.287 1.22.174.332.436.609.758.8a1.968 1.968 0 002.75-.781c.198-.374.296-.793.287-1.216a2.439 2.439 0 00-.291-1.209h.004zm6.021-1.972a2.404 2.404 0 011.204-.287v1.443h-.355c-.546 0-.96.139-1.24.415-.28.277-.422.758-.425 1.444v3.541h-1.392v-6.735h1.392v.977a2.19 2.19 0 01.816-.797zm7.605.043c.418.22.761.56.983.977.236.432.354.953.354 1.564v3.968h-1.381v-3.76c0-.601-.15-1.063-.452-1.385-.301-.322-.712-.483-1.234-.483s-.935.16-1.24.483c-.305.322-.458.784-.459 1.386v3.76h-1.393v-6.732h1.393v.77c.236-.283.535-.505.874-.648a2.797 2.797 0 011.13-.233 3.03 3.03 0 011.425.333zm3.472-1.367a.891.891 0 01.636-1.528.85.85 0 01.623.255.913.913 0 010 1.273.85.85 0 01-.623.255.862.862 0 01-.636-.255zm1.321 1.148v6.729h-1.397V52.98l1.397.003zm6.946.219c.419.22.762.56.985.977.236.432.354.953.354 1.564v3.968h-1.381v-3.76c0-.601-.151-1.063-.453-1.385-.301-.322-.713-.483-1.234-.483s-.934.16-1.239.483c-.306.322-.459.784-.459 1.386v3.76h-1.394v-6.732h1.394v.77c.235-.283.535-.505.874-.648a2.794 2.794 0 011.13-.233 3.03 3.03 0 011.423.333zm7.504-.018c.372.182.696.448.947.776v-.98h1.406v6.84a3.44 3.44 0 01-.392 1.655 2.825 2.825 0 01-1.13 1.142c-.493.276-1.081.415-1.766.415-.912 0-1.67-.214-2.273-.641a2.374 2.374 0 01-1.027-1.74h1.382c.112.357.354.66.679.848.375.223.805.336 1.241.324.562 0 1.015-.17 1.359-.51.343-.34.517-.836.519-1.49v-1.123a2.895 2.895 0 01-2.334 1.123 3.016 3.016 0 01-1.607-.446 3.146 3.146 0 01-1.149-1.245 3.836 3.836 0 01-.425-1.814 3.728 3.728 0 01.425-1.796 3.077 3.077 0 012.756-1.648c.481-.01.958.097 1.389.31zm.66 1.948a2.026 2.026 0 00-.752-.781 1.966 1.966 0 00-1.002-.27 1.97 1.97 0 00-1.753 1.032c-.2.37-.299.785-.287 1.204-.01.425.089.845.287 1.221.173.332.436.609.757.8a1.966 1.966 0 002.75-.781c.198-.374.297-.793.287-1.216a2.447 2.447 0 00-.287-1.209zm3.745 4.409a.891.891 0 01.636-1.528.851.851 0 01.623.255.913.913 0 010 1.273.85.85 0 01-.623.255.862.862 0 01-.636-.255zM70.725 26.21l-4.897-7.36-4.316 7.36h-6.64l7.703-12.22L54.7 2.18h6.812l4.827 7.257 4.246-7.257h6.642l-7.633 12.118 7.944 11.912h-6.813zm30.472-24.03v4.69h-6.37v19.34h-5.854V6.87h-6.37V2.18h18.594zm22.904 19.511h7.669v4.519h-13.523V2.182h5.854v19.51zM182.513 2.18l-8.526 24.028h-7.327L158.135 2.18h6.23l5.959 18.143 5.991-18.143h6.198zm11.709 4.69v4.86h7.838v4.519h-7.838v5.272h8.868v4.689h-14.723V2.182h14.723v4.69l-8.868-.003zm21.947 14.821h7.669v4.519h-13.524V2.182h5.855v19.51zM34.056 2.18v6.862h5.854V6.87h8.868V2.18H34.056zm13.695 9.573H34.056v4.463H47.75v-4.463zm-7.841 7.174h-5.854v7.284h14.722v-4.69H39.91v-2.594zM20.53 11.02v6.05L10.74 2.18H4.884v24.03h5.855V11.39l9.792 14.822h5.855V11.02h-5.855z" fill="#000"/><path d="M151.698 11.753h-13.695v4.463h13.695v-4.463z" fill="#FB221D"/><path d="M143.857 18.927h-5.854v7.284h14.722v-4.69h-8.868v-2.594zM138.003 2.18v6.862h5.854V6.87h8.868V2.18h-14.722z" fill="#000"/><path d="M23.555.015L18.684 8.45h9.741L23.555.015z" fill="#FB221D"/></g></g><defs><clipPath id="clip0"><path fill="#fff" d="M0 0h230v64H0z"/></clipPath><clipPath id="clip1"><path fill="#fff" transform="translate(3)" d="M0 0h227v63H0z"/></clipPath></defs></svg>