<svg width="532" height="69" fill="none" xmlns="http://www.w3.org/2000/svg"><g clip-path="url(#clip0)"><path d="M163.445 60.574l-11.316-17.012-9.974 17.012h-15.346l17.803-28.242-18.199-27.294h15.742l11.155 16.773 9.813-16.773h15.349l-17.639 28.006 18.358 27.53h-15.746zm70.422-55.536v10.84h-14.72v44.696h-13.53V15.877h-14.719V5.038h42.969zm52.93 45.091h17.724v10.443h-31.252V5.041h13.528v45.087zM421.788 5.038l-19.703 55.53h-16.933L365.45 5.038h14.399l13.77 41.93 13.846-41.93h14.323zm27.06 10.837V27.11h18.114v10.44h-18.114v12.183h20.493V60.57h-34.023V5.042h34.023v10.839l-20.493-.006zm50.719 34.254h17.724v10.443h-31.254V5.041h13.53v45.087zM78.703 5.038v15.858h13.53v-5.019h20.493V5.038H78.703zm31.65 22.123h-31.65v10.315h31.65V27.161zM92.233 43.74h-13.53v16.834h34.023V49.737H92.233V43.74zM47.447 25.47v13.98L24.817 5.039h-13.53v55.535h13.532V26.32l22.628 34.254h13.532V25.47H47.447z" fill="#000"/><path d="M350.575 27.161h-31.65v10.315h31.65V27.161z" fill="#FB221D"/><path d="M332.455 43.74h-13.53v16.834h34.023V49.737h-20.493V43.74zm-13.53-38.702v15.858h13.53v-5.019h20.493V5.038h-34.023z" fill="#000"/><path d="M54.435.033L43.178 19.527H65.69L54.435.033z" fill="#FB221D"/></g><defs><clipPath id="clip0"><path fill="#fff" d="M0 0h532v69H0z"/></clipPath></defs></svg>