<svg width="310" height="75" viewBox="0 0 310 75" fill="none" xmlns="http://www.w3.org/2000/svg">
<path d="M44.7882 55.5844H48.7114V54.6523H45.9608V52.5309H48.4046V51.5987H45.9608V49.5523H48.7114V48.6309H44.7882V55.5844Z" fill="white"/>
<path d="M54.6291 50.8486C54.399 50.5807 54.1031 50.3664 53.7744 50.2271C52.5141 49.6485 51.0128 50.1414 50.3662 51.3414C50.1251 51.7914 50.0046 52.295 50.0155 52.8093C50.0046 53.3236 50.1251 53.8378 50.3662 54.2986C50.5854 54.7164 50.9141 55.07 51.3306 55.3164C51.736 55.5628 52.1963 55.6914 52.6785 55.6807C53.084 55.6914 53.4785 55.595 53.8401 55.4236C54.1579 55.2736 54.4319 55.0378 54.6291 54.7593V55.5843H55.8017V48.1914H54.6291V50.8486ZM54.388 53.8164C54.2456 54.0843 54.0264 54.3093 53.7634 54.4593C53.5113 54.5985 53.2155 54.6736 52.9305 54.6736C52.6346 54.6736 52.3497 54.5986 52.0977 54.4486C51.8237 54.2878 51.6045 54.0628 51.4621 53.795C51.2977 53.4843 51.21 53.1414 51.221 52.7985C51.21 52.4557 51.2977 52.1128 51.4621 51.8128C51.6045 51.5557 51.8237 51.3307 52.0867 51.1807C52.3388 51.0414 52.6346 50.9664 52.9196 50.9664C53.2155 50.9664 53.5004 51.0414 53.7524 51.1807C54.0154 51.3307 54.2346 51.5557 54.3771 51.8236C54.5415 52.1236 54.6291 52.4664 54.6182 52.8093C54.6291 53.1736 54.5524 53.5164 54.388 53.8164Z" fill="white"/>
<path d="M61.5222 53.1424C61.5222 53.6353 61.3906 54.0103 61.1386 54.2781C60.8646 54.546 60.492 54.696 60.0975 54.6746C59.6592 54.6746 59.3194 54.546 59.0674 54.2781C58.8153 54.0103 58.6948 53.6353 58.6838 53.1424V50.0781H57.5332V53.3138C57.5222 53.7531 57.6208 54.2031 57.84 54.5888C58.0263 54.9317 58.3222 55.2103 58.6729 55.3924C59.0455 55.5746 59.4509 55.671 59.8674 55.6603C60.1961 55.6603 60.5139 55.596 60.8098 55.4674C61.0948 55.3496 61.3358 55.1674 61.5331 54.9317V55.5853H62.6838V50.0781H61.5222V53.1424Z" fill="white"/>
<path d="M66.8481 50.9474C67.144 50.9367 67.4399 51.0117 67.6919 51.1724C67.9221 51.3331 68.0974 51.5581 68.1851 51.8152H69.4453C69.3138 51.2688 68.996 50.7867 68.5357 50.4545C68.0864 50.1438 67.5275 49.9831 66.8481 49.9831C66.355 49.9724 65.8618 50.0902 65.4235 50.3367C65.007 50.5724 64.6673 50.9152 64.4481 51.3331C63.9769 52.276 63.9769 53.3795 64.4481 54.3224C64.6673 54.7402 65.007 55.0831 65.4235 55.3188C65.8618 55.5652 66.344 55.6831 66.8481 55.6724C67.5166 55.6724 68.0755 55.5117 68.5248 55.1795C68.9741 54.8474 69.3028 54.376 69.4453 53.8402H68.1851C67.9659 54.4188 67.5166 54.7081 66.8481 54.7081C66.4098 54.7295 65.9824 54.5367 65.7084 54.2045C65.4235 53.8724 65.281 53.4117 65.281 52.8117C65.281 52.2117 65.4235 51.751 65.7084 51.4295C65.9933 51.1081 66.4098 50.9367 66.8481 50.9474Z" fill="white"/>
<path d="M75.0891 50.8823C74.8808 50.6144 74.6069 50.4001 74.3 50.2501C73.9384 50.0787 73.5439 49.9823 73.1384 49.993C72.174 49.9823 71.2864 50.5073 70.8371 51.343C70.596 51.793 70.4754 52.2966 70.4864 52.8108C70.4754 53.3251 70.596 53.8394 70.8371 54.3001C71.0563 54.718 71.385 55.0716 71.7905 55.318C72.5466 55.768 73.4891 55.8108 74.2891 55.4251C74.6069 55.2751 74.8808 55.0501 75.1 54.7716V55.5966H76.2726V50.0894H75.0891V50.8823ZM74.848 53.818C74.7055 54.0858 74.4863 54.3108 74.2233 54.4608C73.9713 54.6001 73.6754 54.6751 73.3905 54.6751C73.0946 54.6751 72.8096 54.6001 72.5576 54.4501C72.2836 54.2894 72.0645 54.0644 71.922 53.7966C71.7576 53.4858 71.6699 53.143 71.6809 52.8001C71.6699 52.4573 71.7576 52.1144 71.922 51.8144C72.0645 51.5573 72.2836 51.3323 72.5466 51.1823C72.7987 51.043 73.0946 50.968 73.3905 50.968C73.6863 50.968 73.9713 51.043 74.2233 51.1823C74.4863 51.3323 74.7055 51.5573 74.848 51.8251C75.0124 52.1251 75.1 52.468 75.0891 52.8108C75.1 53.1751 75.0124 53.518 74.848 53.818Z" fill="white"/>
<path d="M79.4067 48.7051H78.2342V50.0765H77.5657V51.0086H78.2342V54.0622C78.2342 54.5979 78.3766 54.9944 78.6506 55.2301C78.9246 55.4658 79.33 55.5944 79.856 55.5944H80.7766V54.6408H80.0643C79.8232 54.6408 79.6588 54.5979 79.5602 54.5015C79.4506 54.3836 79.3958 54.2229 79.4177 54.0622V51.0086H80.7875V50.0765H79.4177V48.7051H79.4067Z" fill="white"/>
<path d="M82.7053 47.8926C82.2998 47.8926 81.9711 48.214 81.9711 48.6104C81.9711 49.0069 82.2998 49.3283 82.7053 49.3283C83.1108 49.3283 83.4395 49.0069 83.4395 48.6104C83.4395 48.4176 83.3628 48.2461 83.2313 48.1069C83.0889 47.9676 82.9026 47.8926 82.7053 47.8926Z" fill="white"/>
<path d="M83.2752 50.0781H82.1136V55.5853H83.2752V50.0781Z" fill="white"/>
<path d="M89.0175 50.336C88.097 49.8646 87.0121 49.8646 86.0915 50.336C85.6532 50.5717 85.3025 50.9146 85.0614 51.3324C84.7984 51.7824 84.6779 52.2967 84.6779 52.8217C84.6669 53.3467 84.7984 53.861 85.0505 54.3217C85.2806 54.7396 85.6313 55.0824 86.0587 55.3181C86.497 55.5539 87.0011 55.6824 87.5052 55.6717C88.0203 55.6824 88.5244 55.5539 88.9846 55.3181C89.423 55.0824 89.7956 54.7396 90.0476 54.311C90.3106 53.861 90.4421 53.3467 90.4312 52.8217C90.4421 52.2967 90.3106 51.7824 90.0476 51.3324C89.8065 50.9146 89.4559 50.5717 89.0175 50.336ZM88.9846 53.8503C88.8422 54.1181 88.612 54.3324 88.349 54.4824C88.086 54.6217 87.8011 54.6967 87.5052 54.6967C87.0669 54.7074 86.6395 54.536 86.3326 54.2146C86.0258 53.8931 85.8614 53.4324 85.8614 52.8431C85.8505 52.4896 85.9272 52.1467 86.0806 51.8253C86.2121 51.5681 86.4313 51.3431 86.6833 51.2039C86.9354 51.0646 87.2203 50.9896 87.5162 50.9896C87.8121 50.9896 88.097 51.0646 88.349 51.2039C88.612 51.3539 88.8312 51.5681 88.9737 51.8253C89.1381 52.136 89.2257 52.4896 89.2148 52.8431C89.2367 53.186 89.16 53.5396 88.9846 53.8503Z" fill="white"/>
<path d="M95.8778 50.2609C95.5052 50.0787 95.0997 49.9823 94.6833 49.993C94.3545 49.993 94.0367 50.0573 93.7408 50.1858C93.4559 50.3037 93.2038 50.4858 93.0066 50.7216V50.0894H91.845V55.5966H93.0175V52.5216C93.0175 52.0287 93.1491 51.6537 93.4011 51.3859C93.6751 51.118 94.0477 50.968 94.4422 50.9894C94.8805 50.9894 95.2202 51.118 95.4723 51.3859C95.7243 51.6537 95.8449 52.0287 95.8558 52.5216V55.5966H97.0065V52.3501C97.0175 51.9109 96.9188 51.4609 96.7106 51.0751C96.5134 50.7216 96.2284 50.443 95.8778 50.2609Z" fill="white"/>
<path d="M99.1982 54.1914C98.7818 54.1914 98.453 54.5128 98.453 54.92C98.453 55.3271 98.7818 55.6485 99.1982 55.6485C99.3954 55.6485 99.5817 55.5735 99.7242 55.4343C100.009 55.145 100.009 54.6843 99.7242 54.395C99.5817 54.2664 99.3954 54.1914 99.1982 54.1914Z" fill="white"/>
<path d="M103.998 49.564H105.894V55.5854H107.056V49.564H108.951V48.6426H103.998V49.564Z" fill="white"/>
<path d="M111.549 50.8824V50.0788H110.387V55.5859H111.549V52.6931C111.549 52.1359 111.669 51.7395 111.899 51.5145C112.129 51.2895 112.48 51.1717 112.94 51.1717H113.236V49.9931C112.886 49.9824 112.535 50.0681 112.228 50.2288C111.943 50.3895 111.713 50.6038 111.549 50.8824Z" fill="white"/>
<path d="M118.781 50.8823C118.573 50.6144 118.299 50.4001 117.992 50.2501C117.631 50.0787 117.236 49.9823 116.831 49.993C115.866 49.9823 114.979 50.5073 114.529 51.343C114.288 51.793 114.168 52.2966 114.179 52.8108C114.168 53.3251 114.288 53.8394 114.529 54.3001C114.749 54.718 115.077 55.0716 115.483 55.318C116.239 55.768 117.181 55.8108 117.981 55.4251C118.299 55.2751 118.573 55.0501 118.792 54.7716V55.5966H119.965V50.0894H118.792V50.8823H118.781ZM118.54 53.818C118.398 54.0858 118.179 54.3108 117.916 54.4608C117.664 54.6001 117.368 54.6751 117.072 54.6751C116.776 54.6751 116.491 54.6001 116.239 54.4501C115.965 54.2894 115.746 54.0644 115.603 53.7966C115.439 53.4858 115.351 53.143 115.362 52.8001C115.351 52.4573 115.439 52.1144 115.603 51.8144C115.899 51.2894 116.458 50.968 117.072 50.968C117.368 50.968 117.653 51.043 117.916 51.1823C118.179 51.3323 118.398 51.5573 118.54 51.8251C118.705 52.1251 118.792 52.468 118.781 52.8108C118.792 53.1751 118.705 53.518 118.54 53.818Z" fill="white"/>
<path d="M122.343 47.8928C121.927 47.8821 121.587 48.1928 121.565 48.5893C121.554 48.9964 121.872 49.3286 122.277 49.35C122.299 49.35 122.31 49.35 122.332 49.35C122.529 49.35 122.716 49.275 122.858 49.1357C123.143 48.8464 123.143 48.3857 122.858 48.0964C122.727 47.9678 122.54 47.8928 122.343 47.8928Z" fill="white"/>
<path d="M122.913 50.0781H121.751V55.5853H122.913V50.0781Z" fill="white"/>
<path d="M128.732 50.2609C128.359 50.0787 127.954 49.9823 127.537 49.993C127.209 49.993 126.891 50.0573 126.595 50.1858C126.31 50.3037 126.058 50.4858 125.861 50.7216V50.0894H124.699V55.5966H125.861V52.5216C125.861 52.0287 125.992 51.6537 126.244 51.3859C126.518 51.118 126.891 50.968 127.285 50.9894C127.724 50.9894 128.063 51.118 128.315 51.3859C128.568 51.6537 128.688 52.0287 128.699 52.5216V55.5966H129.85V52.3501C129.861 51.9109 129.762 51.4609 129.554 51.0751C129.367 50.7216 129.083 50.443 128.732 50.2609Z" fill="white"/>
<path d="M132.184 47.8928C131.767 47.8821 131.428 48.1928 131.406 48.5893C131.395 48.9964 131.713 49.3286 132.118 49.35C132.14 49.35 132.151 49.35 132.173 49.35C132.37 49.35 132.557 49.275 132.699 49.1357C132.984 48.8464 132.984 48.3857 132.699 48.0964C132.567 47.9678 132.381 47.8928 132.184 47.8928Z" fill="white"/>
<path d="M132.754 50.0781H131.592V55.5853H132.754V50.0781Z" fill="white"/>
<path d="M138.573 50.2609C138.2 50.0787 137.795 49.9823 137.378 49.993C137.05 49.993 136.732 50.0573 136.436 50.1858C136.151 50.3037 135.899 50.4858 135.702 50.7216V50.0894H134.54V55.5966H135.702V52.5216C135.702 52.0287 135.833 51.6537 136.085 51.3859C136.359 51.118 136.732 50.968 137.126 50.9894C137.565 50.9894 137.904 51.118 138.156 51.3859C138.408 51.6537 138.529 52.0287 138.529 52.5216V55.5966H139.68V52.3501C139.691 51.9109 139.592 51.4609 139.384 51.0751C139.208 50.7216 138.924 50.443 138.573 50.2609Z" fill="white"/>
<path d="M145.652 50.8816C145.444 50.6138 145.17 50.3995 144.863 50.2495C144.502 50.0781 144.107 49.9923 143.702 49.9923C142.737 49.9816 141.85 50.5066 141.4 51.3423C141.159 51.7923 141.039 52.2959 141.05 52.8102C141.039 53.3245 141.159 53.8388 141.4 54.2995C141.619 54.7173 141.948 55.0709 142.365 55.3173C142.77 55.5638 143.23 55.6816 143.712 55.6816C144.48 55.6923 145.203 55.3495 145.663 54.7602V55.6816C145.663 56.2173 145.521 56.6245 145.225 56.9031C144.918 57.1923 144.512 57.3423 144.085 57.3209C143.723 57.3316 143.362 57.2352 143.044 57.0531C142.77 56.9031 142.573 56.6566 142.474 56.3566H141.323C141.378 56.9352 141.696 57.4602 142.178 57.7816C142.682 58.1352 143.318 58.3066 144.074 58.3066C144.589 58.3173 145.093 58.1995 145.554 57.9638C145.959 57.7495 146.288 57.4281 146.496 57.0316C146.715 56.6138 146.836 56.1531 146.825 55.6816V50.0888H145.652V50.8816ZM145.411 53.8173C145.269 54.0852 145.049 54.3102 144.786 54.4602C144.271 54.7602 143.625 54.7495 143.11 54.4602C142.836 54.2995 142.617 54.0745 142.474 53.8066C142.31 53.4959 142.222 53.1531 142.233 52.8102C142.222 52.4673 142.31 52.1245 142.474 51.8245C142.617 51.5566 142.836 51.3423 143.099 51.1923C143.351 51.0531 143.647 50.9781 143.932 50.9781C144.228 50.9781 144.512 51.0531 144.775 51.1923C145.038 51.3423 145.258 51.5673 145.4 51.8352C145.565 52.1352 145.652 52.4781 145.641 52.8209C145.663 53.1745 145.586 53.5173 145.411 53.8173Z" fill="white"/>
<path d="M149.093 54.1914C148.677 54.1914 148.348 54.5128 148.348 54.92C148.348 55.3271 148.677 55.6485 149.093 55.6485C149.29 55.6485 149.477 55.5735 149.619 55.4343C149.904 55.145 149.904 54.6843 149.619 54.395C149.477 54.2664 149.29 54.1914 149.093 54.1914Z" fill="white"/>
<path d="M160.775 54.2676L159.296 48.6426H157.981L156.392 54.2997L154.912 48.6426H153.685L155.69 55.5961L157.005 55.5854L158.583 50.3247L160.074 55.5854H161.4L163.504 48.6426H162.255L160.775 54.2676Z" fill="white"/>
<path d="M168.567 50.326C168.129 50.0902 167.635 49.9724 167.142 49.9831C166.627 49.9724 166.123 50.0902 165.674 50.3367C165.257 50.5724 164.907 50.9152 164.687 51.3331C164.446 51.7938 164.326 52.3081 164.337 52.8224C164.326 53.3474 164.446 53.8617 164.698 54.3224C164.929 54.7402 165.279 55.0831 165.707 55.3188C166.145 55.5545 166.649 55.6831 167.153 55.6724C167.811 55.6724 168.37 55.5117 168.819 55.1902C169.257 54.8795 169.575 54.4509 169.739 53.9474H168.479C168.216 54.4617 167.778 54.7188 167.153 54.7188C166.298 54.7509 165.586 54.0974 165.553 53.2617H169.86C169.893 53.0795 169.904 52.8867 169.904 52.7045C169.915 52.2117 169.794 51.7295 169.553 51.2902C169.312 50.8831 168.972 50.551 168.567 50.326ZM165.542 52.3402C165.575 51.9545 165.761 51.5902 166.057 51.3224C166.342 51.0759 166.704 50.9367 167.087 50.9474C167.493 50.9367 167.887 51.0652 168.205 51.3224C168.501 51.5795 168.676 51.9438 168.665 52.3295L165.542 52.3402Z" fill="white"/>
<path d="M172.446 48.1914H171.285V55.5843H172.446V48.1914Z" fill="white"/>
<path d="M175.394 48.1914H174.232V55.5843H175.394V48.1914Z" fill="white"/>
<path d="M181.662 50.3352C181.257 50.0995 180.786 49.9816 180.315 49.9816C179.92 49.9816 179.526 50.0674 179.164 50.2388C178.846 50.3888 178.561 50.6138 178.353 50.8924V48.1816H177.191V55.5745H178.353V54.7709C178.561 55.0388 178.835 55.2638 179.153 55.4138C179.953 55.7888 180.895 55.7459 181.652 55.2959C182.057 55.0495 182.386 54.6959 182.605 54.2781C182.846 53.8174 182.967 53.3138 182.956 52.7888C182.967 52.2745 182.846 51.7709 182.605 51.3102C182.397 50.9245 182.068 50.5709 181.662 50.3352ZM181.542 53.8066C181.399 54.0745 181.18 54.2995 180.906 54.4602C180.391 54.7602 179.745 54.7602 179.23 54.4602C178.967 54.3102 178.737 54.0852 178.594 53.8174C178.43 53.5066 178.342 53.1745 178.353 52.8209C178.342 52.4781 178.43 52.1352 178.594 51.8352C178.737 51.5674 178.956 51.3424 179.23 51.1924C179.482 51.0531 179.767 50.9674 180.063 50.9781C180.358 50.9781 180.643 51.0531 180.906 51.1924C181.169 51.3424 181.389 51.5566 181.542 51.8245C181.706 52.1245 181.794 52.4674 181.783 52.8102C181.783 53.1531 181.706 53.4959 181.542 53.8066Z" fill="white"/>
<path d="M188.216 50.326C187.777 50.0902 187.284 49.9724 186.791 49.9831C186.276 49.9724 185.772 50.0902 185.323 50.3367C184.906 50.5724 184.556 50.9152 184.336 51.3331C184.095 51.7938 183.975 52.3081 183.986 52.8224C183.975 53.3474 184.095 53.8617 184.347 54.3224C184.578 54.7402 184.928 55.0831 185.345 55.3188C185.783 55.5545 186.287 55.6831 186.791 55.6724C187.449 55.6724 188.008 55.5117 188.457 55.1902C188.895 54.8795 189.213 54.4509 189.377 53.9474H188.128C187.865 54.4617 187.427 54.7188 186.802 54.7188C185.947 54.7509 185.235 54.0974 185.202 53.2617H189.509C189.542 53.0795 189.553 52.8867 189.553 52.7045C189.564 52.2117 189.443 51.7295 189.202 51.2902C188.972 50.8831 188.632 50.551 188.216 50.326ZM185.202 52.3402C185.235 51.9545 185.421 51.5902 185.717 51.3224C186.002 51.0759 186.364 50.9367 186.747 50.9474C187.153 50.9367 187.547 51.0652 187.865 51.3224C188.161 51.5795 188.336 51.9438 188.325 52.3295L185.202 52.3402Z" fill="white"/>
<path d="M192.095 50.0781H190.934V55.5853H192.095V50.0781Z" fill="white"/>
<path d="M191.525 47.8928C191.109 47.8821 190.769 48.1928 190.747 48.5893C190.736 48.9964 191.054 49.3286 191.46 49.35C191.481 49.35 191.492 49.35 191.514 49.35C191.712 49.35 191.898 49.275 192.04 49.1357C192.325 48.8464 192.325 48.3857 192.04 48.0964C191.909 47.9678 191.723 47.8928 191.525 47.8928Z" fill="white"/>
<path d="M197.925 50.2609C197.553 50.0787 197.147 49.9823 196.731 49.993C196.402 49.993 196.084 50.0573 195.788 50.1858C195.503 50.3037 195.251 50.4858 195.054 50.7216V50.0894H193.892V55.5966H195.054V52.5216C195.054 52.0287 195.186 51.6537 195.438 51.3859C195.712 51.118 196.084 50.968 196.479 50.9894C196.917 50.9894 197.257 51.118 197.509 51.3859C197.761 51.6537 197.892 52.0287 197.892 52.5216V55.5966H199.043V52.3501C199.054 51.9109 198.955 51.4609 198.747 51.0751C198.561 50.7216 198.276 50.443 197.925 50.2609Z" fill="white"/>
<path d="M205.005 50.8816C204.796 50.6138 204.522 50.3995 204.216 50.2495C203.854 50.0781 203.459 49.9923 203.054 49.9923C202.09 49.9816 201.202 50.5066 200.753 51.3423C200.512 51.7923 200.391 52.2959 200.402 52.8102C200.391 53.3245 200.512 53.8388 200.753 54.2995C200.972 54.7173 201.301 55.0709 201.717 55.3173C202.122 55.5638 202.583 55.6923 203.065 55.6816C203.459 55.6923 203.865 55.5959 204.216 55.4138C204.533 55.2531 204.807 55.0281 205.016 54.7602V55.6816C205.016 56.2173 204.873 56.6245 204.577 56.9031C204.27 57.1923 203.865 57.3423 203.437 57.3209C203.076 57.3316 202.714 57.2352 202.396 57.0531C202.122 56.9031 201.925 56.6566 201.827 56.3566H200.676C200.731 56.9352 201.048 57.4602 201.531 57.7816C202.035 58.1352 202.67 58.3066 203.427 58.3066C203.942 58.3173 204.446 58.1995 204.906 57.9638C205.311 57.7495 205.64 57.4281 205.848 57.0316C206.068 56.6138 206.188 56.1531 206.177 55.6816V50.0888H205.005V50.8816ZM204.763 53.8173C204.621 54.0852 204.402 54.3102 204.139 54.4602C203.887 54.5995 203.591 54.6745 203.295 54.6745C202.999 54.6745 202.714 54.5995 202.462 54.4495C202.188 54.2888 201.969 54.0638 201.827 53.7959C201.662 53.4852 201.575 53.1423 201.585 52.7995C201.575 52.4566 201.662 52.1138 201.827 51.8138C201.969 51.5459 202.188 51.3316 202.451 51.1816C202.703 51.0423 202.999 50.9673 203.295 50.9673C203.591 50.9673 203.876 51.0423 204.139 51.1816C204.402 51.3316 204.621 51.5566 204.763 51.8245C204.928 52.1245 205.016 52.4673 205.005 52.8102C205.016 53.1745 204.928 53.5173 204.763 53.8173Z" fill="white"/>
<path d="M208.95 54.4057C208.818 54.2664 208.621 54.1914 208.424 54.1914C208.007 54.1914 207.678 54.5128 207.678 54.92C207.678 55.3271 208.007 55.6485 208.424 55.6485C208.621 55.6485 208.807 55.5735 208.95 55.4343C209.235 55.145 209.235 54.6843 208.95 54.4057Z" fill="white"/>
<path d="M94.0586 32.9664H87.5162V16.6914H82.53V36.7378H94.0586V32.9664Z" fill="white"/>
<path d="M106.343 36.0093C107.614 36.6307 109.061 36.9414 110.683 36.9414C112.305 36.9414 113.762 36.6307 115.077 35.9985C116.381 35.3771 117.466 34.4128 118.223 33.2021C119.001 31.97 119.395 30.4485 119.395 28.6593V16.6914H114.398V28.6807C114.398 29.8807 114.091 30.8021 113.466 31.4557C112.842 32.0985 111.943 32.4307 110.771 32.4307C109.598 32.4307 108.71 32.1093 108.108 31.4557C107.505 30.8128 107.198 29.8807 107.198 28.6807V16.6914H102.212V28.6593C102.212 30.4485 102.584 31.9593 103.319 33.2128C104.02 34.4235 105.072 35.3985 106.343 36.0093Z" fill="white"/>
<path d="M168.709 16.6914H163.712V29.12L155.362 16.6914H150.364V36.7378H155.362V24.3735L163.712 36.7378H168.709V16.6914Z" fill="white"/>
<path d="M177.06 20.6021H182.495V36.7378H187.482V20.6021H192.917V16.6914H177.06V20.6021Z" fill="white"/>
<path d="M71.9548 24.9297H60.7112V28.6154H71.9548V24.9297Z" fill="#FB221D"/>
<path d="M65.7083 30.6973H60.7112V36.7401H65.7083V30.6973Z" fill="white"/>
<path d="M65.7084 20.6021H74.0589V16.6914H60.7112V22.8414H65.7084V20.6021Z" fill="white"/>
<path d="M140.414 24.6855H128.732V28.4034H140.414V24.6855Z" fill="white"/>
<path d="M133.718 20.6021H141.291V16.6914H128.732V22.6057H133.718V20.6021Z" fill="white"/>
<path d="M141.291 32.8279H133.718V30.4922H128.732V36.7386H141.291V32.8279Z" fill="white"/>
<path d="M33.0406 33.2021H25.3914L24.164 36.7378H18.9367L26.3558 16.6914H32.1419L39.561 36.7378H34.2789L33.0406 33.2021ZM31.7474 29.4307L29.205 22.0914L26.6955 29.4307H31.7474Z" fill="white"/>
<path d="M206.046 29.8156C206.429 29.1192 206.977 28.5835 207.679 28.2085C208.369 27.8335 209.169 27.6406 210.068 27.6406C211.218 27.6406 212.183 27.9406 212.95 28.5299C213.728 29.1192 214.232 29.9549 214.473 31.0263H211.481C211.229 30.3406 210.736 29.9978 210.024 29.9978C209.509 29.9978 209.092 30.1906 208.785 30.5871C208.478 30.9835 208.325 31.5406 208.325 32.2692C208.325 32.9978 208.478 33.5549 208.785 33.9513C209.092 34.3478 209.498 34.5406 210.024 34.5406C210.747 34.5406 211.229 34.1978 211.481 33.5121H214.473C214.232 34.5621 213.717 35.3871 212.95 35.9871C212.172 36.5871 211.207 36.8871 210.068 36.8871C209.169 36.8871 208.369 36.7049 207.679 36.3192C206.977 35.9442 206.44 35.4085 206.046 34.7121C205.651 34.0156 205.465 33.2013 205.465 32.2692C205.465 31.3263 205.651 30.5121 206.046 29.8156Z" fill="white"/>
<path d="M218.473 36.3085C217.75 35.9335 217.191 35.3978 216.785 34.7013C216.369 34.0049 216.172 33.1906 216.172 32.2585C216.172 31.3371 216.38 30.5228 216.796 29.8263C217.213 29.1299 217.782 28.5835 218.506 28.2085C219.229 27.8335 220.04 27.6406 220.939 27.6406C221.837 27.6406 222.648 27.8335 223.371 28.2085C224.095 28.5835 224.664 29.1192 225.081 29.8263C225.497 30.5335 225.706 31.3371 225.706 32.2585C225.706 33.1799 225.497 33.9942 225.07 34.6906C224.643 35.3978 224.073 35.9335 223.339 36.3085C222.604 36.6835 221.793 36.8763 220.895 36.8763C219.996 36.8656 219.185 36.6835 218.473 36.3085ZM222.276 33.9085C222.659 33.5228 222.845 32.9763 222.845 32.2585C222.845 31.5406 222.659 30.9835 222.297 30.5978C221.925 30.2121 221.476 30.0192 220.939 30.0192C220.391 30.0192 219.93 30.2121 219.569 30.5871C219.207 30.9728 219.021 31.5192 219.021 32.2478C219.021 32.9656 219.196 33.5121 219.558 33.8978C219.908 34.2835 220.358 34.4763 220.895 34.4763C221.432 34.4871 221.892 34.2942 222.276 33.9085Z" fill="white"/>
<path d="M242.374 28.6917C243.053 29.3667 243.382 30.3095 243.382 31.5095V36.7488H240.588V31.8738C240.588 31.2953 240.434 30.8453 240.116 30.5345C239.81 30.2238 239.371 30.0631 238.823 30.0631C238.275 30.0631 237.848 30.2238 237.53 30.5345C237.223 30.856 237.059 31.2953 237.059 31.8738V36.7488H234.264V31.8738C234.264 31.2953 234.111 30.8453 233.793 30.5345C233.475 30.2238 233.048 30.0631 232.5 30.0631C231.952 30.0631 231.525 30.2238 231.207 30.5345C230.889 30.856 230.736 31.2953 230.736 31.8738V36.7488H227.919V27.781H230.736V28.906C231.021 28.531 231.393 28.231 231.853 28.0167C232.314 27.8024 232.829 27.6845 233.421 27.6845C234.111 27.6845 234.725 27.8238 235.273 28.1131C235.821 28.4024 236.237 28.8203 236.544 29.3453C236.862 28.8524 237.289 28.456 237.837 28.1345C238.385 27.8238 238.977 27.6738 239.634 27.6738C240.796 27.6738 241.694 28.0167 242.374 28.6917Z" fill="white"/>
<path d="M250.056 28.0263C250.538 27.7692 251.097 27.6406 251.754 27.6406C252.511 27.6406 253.19 27.8335 253.815 28.2085C254.428 28.5835 254.911 29.1192 255.272 29.8156C255.623 30.5121 255.809 31.3263 255.809 32.2478C255.809 33.1692 255.634 33.9835 255.272 34.6799C254.911 35.3871 254.428 35.9228 253.815 36.3085C253.201 36.6942 252.511 36.8763 251.754 36.8763C251.119 36.8763 250.56 36.7478 250.067 36.4906C249.574 36.2335 249.201 35.9013 248.927 35.4942V41.0228H246.111V27.7692H248.927V29.0442C249.201 28.6263 249.574 28.2835 250.056 28.0263ZM252.346 30.6192C251.952 30.2335 251.48 30.0299 250.911 30.0299C250.352 30.0299 249.881 30.2335 249.486 30.6192C249.091 31.0156 248.905 31.5621 248.905 32.2478C248.905 32.9335 249.102 33.4799 249.486 33.8656C249.87 34.2621 250.352 34.4549 250.911 34.4549C251.47 34.4549 251.952 34.2513 252.335 33.8549C252.73 33.4478 252.927 32.9121 252.927 32.2263C252.938 31.5513 252.741 31.0156 252.346 30.6192Z" fill="white"/>
<path d="M258.001 29.8156C258.352 29.1192 258.845 28.5835 259.458 28.2085C260.072 27.8335 260.763 27.6406 261.519 27.6406C262.165 27.6406 262.735 27.7692 263.217 28.0263C263.699 28.2835 264.083 28.6156 264.346 29.0442V27.7692H267.162V36.737H264.346V35.4728C264.072 35.8906 263.689 36.2228 263.206 36.4799C262.713 36.737 262.154 36.8656 261.508 36.8656C260.763 36.8656 260.083 36.6728 259.469 36.2978C258.856 35.9228 258.374 35.3763 258.012 34.6692C257.65 33.9728 257.475 33.1585 257.475 32.2371C257.475 31.3156 257.65 30.5121 258.001 29.8156ZM263.754 30.6299C263.36 30.2335 262.889 30.0406 262.33 30.0406C261.771 30.0406 261.3 30.2335 260.905 30.6299C260.51 31.0263 260.324 31.5621 260.324 32.2478C260.324 32.9335 260.521 33.4799 260.905 33.8763C261.289 34.2835 261.771 34.4763 262.33 34.4763C262.889 34.4763 263.36 34.2835 263.754 33.887C264.138 33.4906 264.335 32.9549 264.335 32.2692C264.346 31.5728 264.149 31.0263 263.754 30.6299Z" fill="white"/>
<path d="M278.11 28.6917C278.757 29.3774 279.075 30.3095 279.075 31.4988V36.7381H276.28V31.8631C276.28 31.2631 276.116 30.8024 275.809 30.4703C275.491 30.1381 275.064 29.9667 274.527 29.9667C273.99 29.9667 273.562 30.1381 273.245 30.4703C272.927 30.8024 272.773 31.2738 272.773 31.8631V36.7381H269.957V27.7703H272.773V28.9595C273.058 28.5631 273.442 28.2524 273.924 28.0167C274.406 27.7917 274.943 27.6738 275.546 27.6738C276.609 27.6738 277.464 28.0167 278.11 28.6917Z" fill="white"/>
<path d="M291.151 27.7695L285.398 41.0017H282.373L284.477 36.4374L280.751 27.7695H283.896L286.011 33.3838L288.116 27.7695H291.151Z" fill="white"/>
</svg>
