<svg width="265" height="74" viewBox="0 0 265 74" fill="none" xmlns="http://www.w3.org/2000/svg">
<g clip-path="url(#clip0)">
<g clip-path="url(#clip1)">
<path d="M12.21 47.8892C12.5357 48.2983 12.7262 48.799 12.7552 49.3217C12.7841 49.8444 12.65 50.3632 12.3715 50.8059C12.0951 51.2211 11.7069 51.5489 11.2521 51.7513C10.7169 51.9921 10.135 52.1105 9.54862 52.0979H5.63477V42.2807H9.36565C9.95625 42.2652 10.5429 42.3809 11.0838 42.6193C11.5243 42.8133 11.9004 43.1294 12.168 43.5304C12.4115 43.9109 12.5387 44.3545 12.5339 44.8066C12.5339 45.3714 12.3836 45.842 12.0828 46.2183C11.7669 46.6063 11.3469 46.8955 10.8725 47.0518C11.4072 47.1529 11.8846 47.4517 12.21 47.8892ZM7.23945 46.4068H9.22964C9.7554 46.4068 10.166 46.2867 10.4615 46.0465C10.757 45.8064 10.9048 45.4605 10.9048 45.0089C10.9048 44.5658 10.757 44.2199 10.4615 43.9712C10.166 43.7225 9.7554 43.5978 9.22964 43.5971H7.23945V46.4068ZM10.6895 50.3887C10.9987 50.1269 11.1533 49.7598 11.1533 49.2872C11.1628 49.0719 11.1238 48.8572 11.0391 48.6592C10.9544 48.4612 10.8262 48.2849 10.6641 48.1435C10.3379 47.8614 9.90152 47.7204 9.35489 47.7204H7.23945V50.7843H9.40772C9.95175 50.7843 10.379 50.6525 10.6895 50.3887Z" fill="white"/>
<path d="M21.8966 48.8073H15.9691C16.016 49.4284 16.246 49.9275 16.6589 50.3044C17.0744 50.6821 17.619 50.8843 18.1794 50.8689C19.0424 50.8689 19.6527 50.5067 20.0101 49.7822H21.742C21.5145 50.4887 21.069 51.1044 20.47 51.5404C19.8555 51.9986 19.093 52.2276 18.1824 52.2276C17.486 52.2392 16.7989 52.0665 16.1902 51.727C15.6067 51.3961 15.1284 50.9064 14.8106 50.3143C14.4668 49.6652 14.2947 48.9385 14.3106 48.2036C14.296 47.4698 14.4642 46.744 14.7998 46.0919C15.11 45.4995 15.5862 45.0112 16.1697 44.687C16.7895 44.3507 17.4857 44.1816 18.1902 44.1962C18.8729 44.1839 19.5471 44.3493 20.1471 44.6762C20.7118 44.9885 21.1759 45.4562 21.4847 46.0242C21.8125 46.6382 21.9776 47.3265 21.9641 48.0229C21.962 48.2858 21.9394 48.548 21.8966 48.8073ZM20.2773 47.5085C20.2675 46.9156 20.0565 46.4401 19.6442 46.0821C19.216 45.7193 18.6691 45.5284 18.109 45.546C17.5852 45.5341 17.0766 45.7234 16.6873 46.0752C16.2959 46.4286 16.0611 46.9064 15.9828 47.5085H20.2773Z" fill="white"/>
<path d="M30.4083 44.5222C30.8337 44.2922 31.3117 44.1778 31.7947 44.1904V45.8593H31.3867C30.7572 45.8593 30.2807 46.0193 29.9572 46.3394C29.6336 46.6594 29.4706 47.2157 29.468 48.0083V52.104H27.8662V44.3229H29.4719V45.4529C29.6956 45.0643 30.0189 44.743 30.4083 44.5222Z" fill="white"/>
<path d="M40.6656 48.8073H34.7381C34.7844 49.4284 35.0143 49.9275 35.4279 50.3044C35.8433 50.6821 36.388 50.8843 36.9484 50.8689C37.8114 50.8689 38.4213 50.5067 38.7781 49.7822H40.511C40.2827 50.4883 39.8374 51.1038 39.239 51.5404C38.6245 51.9986 37.862 52.2276 36.9514 52.2276C36.255 52.2392 35.5679 52.0665 34.9592 51.727C34.3756 51.3959 33.897 50.9062 33.5786 50.3143C33.2353 49.665 33.0631 48.9384 33.0786 48.2036C33.064 47.4698 33.2322 46.744 33.5678 46.0919C33.878 45.4995 34.3542 45.0112 34.9377 44.687C35.5575 44.3507 36.2537 44.1816 36.9582 44.1962C37.6409 44.1839 38.3151 44.3493 38.9151 44.6762C39.4769 44.9878 39.9387 45.4533 40.2468 46.0183C40.5743 46.6324 40.7391 47.3207 40.7253 48.017C40.726 48.2816 40.706 48.5459 40.6656 48.8073ZM39.0462 47.5085C39.0365 46.9156 38.8251 46.4401 38.4122 46.0821C37.9843 45.7194 37.4378 45.5284 36.878 45.546C36.3539 45.5346 35.8452 45.7238 35.4553 46.0752C35.0639 46.4286 34.8294 46.9064 34.7518 47.5085H39.0462Z" fill="white"/>
<path d="M44.2419 41.6484V52.0979H42.6362V41.6484H44.2419Z" fill="white"/>
<path d="M53.7496 48.8073H47.8182C47.8652 49.4284 48.0935 49.9275 48.5031 50.3044C48.9186 50.6821 49.4633 50.8843 50.0236 50.8689C50.8867 50.8689 51.4969 50.5067 51.8544 49.7822H53.5862C53.3583 50.4885 52.913 51.1041 52.3142 51.5404C51.6998 51.9986 50.9372 52.2276 50.0266 52.2276C49.3302 52.2392 48.6431 52.0665 48.0344 51.727C47.4508 51.3959 46.9722 50.9062 46.6538 50.3143C46.3108 49.6649 46.1391 48.9383 46.1548 48.2036C46.1402 47.4698 46.3084 46.744 46.644 46.0919C46.9543 45.4995 47.4304 45.0112 48.0139 44.687C48.6337 44.3507 49.3299 44.1816 50.0344 44.1962C50.7171 44.1839 51.3913 44.3493 51.9913 44.6762C52.5561 44.9885 53.0201 45.4562 53.3289 46.0242C53.6567 46.6382 53.8218 47.3265 53.8083 48.0229C53.8091 48.2855 53.7895 48.5478 53.7496 48.8073ZM52.1303 47.5085C52.1205 46.9156 51.9095 46.4401 51.4972 46.0821C51.0689 45.7195 50.5221 45.5286 49.962 45.546C49.438 45.5346 48.9293 45.7238 48.5393 46.0752C48.1479 46.4286 47.9134 46.9064 47.8358 47.5085H52.1303Z" fill="white"/>
<path d="M58.7154 50.6574L60.912 44.3164H62.6165L59.6596 52.0975H57.7447L54.8015 44.3164H56.5197L58.7154 50.6574Z" fill="white"/>
<path d="M64.1154 46.0969C64.4177 45.516 64.8743 45.0304 65.4347 44.6939C65.9951 44.3573 66.6375 44.1831 67.2906 44.1904C67.8446 44.1772 68.3933 44.301 68.8884 44.5507C69.3135 44.7655 69.6863 45.0715 69.9804 45.447V44.317H71.5987V52.0982H69.9804V50.9397C69.6839 51.3266 69.3034 51.6405 68.8678 51.8576C68.3281 52.1223 67.7311 52.2474 67.1309 52.2215C66.5307 52.1957 65.9465 52.0196 65.4315 51.7094C64.8707 51.3581 64.4157 50.8602 64.1154 50.2692C63.7829 49.6213 63.6148 48.901 63.6262 48.1723C63.613 47.4502 63.7813 46.7365 64.1154 46.0969ZM69.6487 46.8028C69.448 46.4275 69.1485 46.1147 68.7827 45.8986C68.4325 45.6933 68.0337 45.5861 67.6281 45.5884C67.2152 45.5846 66.809 45.6935 66.453 45.9037C66.0971 46.1138 65.8048 46.4171 65.6076 46.7812C65.3784 47.208 65.2644 47.6876 65.2769 48.1723C65.2661 48.6633 65.3799 49.1491 65.6076 49.584C65.8079 49.9677 66.1104 50.2882 66.4814 50.5097C66.8297 50.7162 67.2266 50.8256 67.6311 50.8268C68.0356 50.8281 68.4332 50.721 68.7827 50.5166C69.1499 50.2992 69.4496 49.9838 69.6487 49.6056C69.8777 49.1737 69.9919 48.6898 69.9804 48.2007C69.9924 47.7138 69.8781 47.232 69.6487 46.8028Z" fill="white"/>
<path d="M79.6036 44.5709C80.0861 44.8244 80.481 45.2183 80.7366 45.7008C81.0099 46.1995 81.1463 46.802 81.1456 47.5082V52.0977H79.5546V47.7487C79.5546 47.0517 79.3808 46.5173 79.0331 46.1455C78.6854 45.7738 78.2115 45.5879 77.6114 45.5879C77.0106 45.5879 76.5341 45.7738 76.1819 46.1455C75.8296 46.5173 75.6538 47.0517 75.6545 47.7487V52.0977H74.0488V44.3166H75.6545V45.206C75.9257 44.8799 76.2705 44.6235 76.6603 44.458C77.0712 44.279 77.5147 44.1877 77.9627 44.19C78.5325 44.1802 79.0959 44.311 79.6036 44.5709Z" fill="white"/>
<path d="M85.398 45.6304V49.9372C85.398 50.2317 85.4655 50.4388 85.6015 50.5655C85.7375 50.6921 85.9694 50.7559 86.2982 50.7559H87.2845V52.0979H86.0125C85.2891 52.0979 84.7346 51.9284 84.3491 51.5894C83.9636 51.2504 83.7711 50.6996 83.7718 49.9372V45.6304H82.856V44.3168H83.7718V42.3828H85.3912V44.3168H87.2776V45.6304H85.398Z" fill="white"/>
<path d="M89.0164 51.9001C88.8703 51.7558 88.7705 51.571 88.7298 51.3695C88.6891 51.1679 88.7094 50.9587 88.7881 50.7688C88.8667 50.5789 89.0002 50.4169 89.1713 50.3036C89.3423 50.1903 89.5433 50.1309 89.7482 50.133C89.8816 50.1304 90.0142 50.1551 90.1377 50.2058C90.2612 50.2564 90.373 50.3319 90.4664 50.4275C90.6574 50.6247 90.7643 50.8888 90.7643 51.1638C90.7643 51.4388 90.6574 51.7029 90.4664 51.9001C90.373 51.9957 90.2612 52.0712 90.1377 52.1218C90.0142 52.1725 89.8816 52.1972 89.7482 52.1946C89.6127 52.1984 89.4777 52.1742 89.3518 52.1235C89.226 52.0729 89.1118 51.9968 89.0164 51.9001Z" fill="white"/>
<path d="M103.406 47.8892C103.732 48.2981 103.923 48.7987 103.952 49.3215C103.981 49.8443 103.847 50.3632 103.568 50.8059C103.292 51.2209 102.903 51.5487 102.449 51.7513C101.913 51.9921 101.331 52.1105 100.744 52.0979H96.8304V42.2807H100.561C101.152 42.2652 101.739 42.3809 102.28 42.6193C102.72 42.8133 103.096 43.1294 103.364 43.5304C103.607 43.9109 103.734 44.3545 103.73 44.8066C103.73 45.3715 103.58 45.842 103.28 46.2184C102.963 46.6064 102.543 46.8956 102.068 47.0518C102.603 47.1526 103.08 47.4515 103.406 47.8892ZM98.4361 46.4068H100.422C100.949 46.4068 101.359 46.2871 101.655 46.0466C101.952 45.806 102.099 45.4575 102.099 45.0089C102.099 44.5602 101.951 44.2235 101.655 43.9712C101.36 43.7189 100.949 43.5971 100.422 43.5971H98.4361V46.4068ZM101.885 50.3887C102.195 50.1269 102.35 49.7598 102.35 49.2872C102.36 49.0719 102.321 48.8572 102.236 48.6591C102.151 48.461 102.023 48.2848 101.861 48.1435C101.535 47.8614 101.098 47.7204 100.552 47.7204H98.4361V50.7844H100.604C101.148 50.7844 101.577 50.6525 101.89 50.3887H101.885Z" fill="white"/>
<path d="M113.093 48.8073H107.165C107.212 49.4284 107.44 49.9275 107.85 50.3045C108.266 50.6822 108.811 50.8844 109.371 50.869C110.234 50.869 110.844 50.5067 111.201 49.7822H112.933C112.705 50.4886 112.26 51.1042 111.661 51.5404C111.046 51.9986 110.284 52.2277 109.373 52.2277C108.677 52.2391 107.989 52.0664 107.38 51.727C106.797 51.3956 106.319 50.906 106.001 50.3143C105.657 49.6652 105.485 48.9385 105.501 48.2036C105.486 47.4698 105.654 46.744 105.99 46.0919C106.3 45.4996 106.776 45.0112 107.36 44.6871C107.979 44.3506 108.676 44.1815 109.38 44.1962C110.063 44.184 110.737 44.3494 111.337 44.6763C111.902 44.9885 112.366 45.4562 112.675 46.0242C113.002 46.6383 113.167 47.3266 113.153 48.023C113.153 48.2856 113.134 48.5478 113.093 48.8073ZM111.479 47.5085C111.469 46.9156 111.258 46.4401 110.845 46.0821C110.417 45.7194 109.87 45.5284 109.311 45.5461C108.787 45.5346 108.278 45.7238 107.888 46.0752C107.497 46.4286 107.262 46.9064 107.184 47.5085H111.479Z" fill="white"/>
<path d="M121.604 44.5222C122.03 44.2922 122.508 44.1778 122.992 44.1904V45.8593H122.583C121.954 45.8593 121.478 46.0193 121.154 46.3394C120.83 46.6594 120.667 47.2157 120.665 48.0083V52.104H119.06V44.3229H120.665V45.4529C120.89 45.0643 121.214 44.7431 121.604 44.5222Z" fill="white"/>
<path d="M131.861 48.8073H125.934C125.981 49.4284 126.209 49.9275 126.619 50.3044C127.034 50.6821 127.579 50.8843 128.139 50.8689C129.004 50.8689 129.614 50.5067 129.97 49.7821H131.702C131.474 50.4886 131.029 51.1042 130.43 51.5404C129.815 51.9985 129.052 52.2276 128.141 52.2276C127.445 52.239 126.758 52.0664 126.149 51.7269C125.566 51.3961 125.087 50.9063 124.769 50.3142C124.426 49.6651 124.254 48.9384 124.269 48.2036C124.255 47.4698 124.423 46.744 124.759 46.0919C125.069 45.4998 125.545 45.0115 126.129 44.687C126.748 44.3508 127.445 44.1817 128.149 44.1962C128.832 44.1839 129.506 44.3493 130.106 44.6762C130.671 44.9885 131.135 45.4561 131.445 46.0241C131.772 46.6383 131.937 47.3265 131.923 48.0229C131.923 48.2856 131.903 48.5479 131.861 48.8073ZM130.242 47.5085C130.233 46.9155 130.022 46.4401 129.609 46.0821C129.181 45.7192 128.634 45.5283 128.074 45.546C127.55 45.5341 127.041 45.7234 126.652 46.0752C126.261 46.4286 126.026 46.9064 125.948 47.5085H130.242Z" fill="white"/>
<path d="M133.788 46.0969C134.09 45.516 134.547 45.0303 135.107 44.6938C135.668 44.3573 136.31 44.1831 136.963 44.1904C137.517 44.1774 138.066 44.3011 138.562 44.5507C138.987 44.7655 139.359 45.0715 139.653 45.447V44.317H141.272V52.0981H139.653V50.9397C139.357 51.327 138.976 51.6411 138.54 51.8576C138.001 52.1223 137.404 52.2474 136.804 52.2215C136.204 52.1956 135.62 52.0196 135.105 51.7094C134.544 51.3581 134.089 50.8602 133.788 50.2692C133.455 49.6213 133.287 48.901 133.299 48.1722C133.285 47.4502 133.454 46.7365 133.788 46.0969ZM139.322 46.8027C139.121 46.4278 138.822 46.1152 138.456 45.8986C138.106 45.6934 137.707 45.5863 137.302 45.5884C136.897 45.586 136.499 45.6906 136.147 45.8917C135.782 46.1021 135.482 46.41 135.281 46.7811C135.051 47.2078 134.937 47.6875 134.95 48.1722C134.939 48.6634 135.053 49.1493 135.281 49.584C135.481 49.9676 135.783 50.2881 136.154 50.5097C136.502 50.7161 136.899 50.8256 137.304 50.8268C137.709 50.828 138.106 50.7209 138.456 50.5166C138.823 50.2986 139.123 49.9834 139.322 49.6056C139.55 49.1733 139.664 48.6897 139.653 48.2007C139.663 47.7135 139.548 47.2318 139.317 46.8027H139.322Z" fill="white"/>
<path d="M143.67 46.0976C143.974 45.5145 144.433 45.0275 144.996 44.6908C145.559 44.3542 146.205 44.1812 146.86 44.1911C147.378 44.1936 147.889 44.3067 148.359 44.5229C148.816 44.7178 149.219 45.021 149.533 45.4065V41.6504H151.153V52.0998H149.533V50.9277C149.25 51.3221 148.875 51.6418 148.441 51.8593C147.947 52.1111 147.398 52.2372 146.843 52.2265C146.19 52.2327 145.549 52.054 144.992 51.7111C144.428 51.3615 143.97 50.8634 143.668 50.2709C143.336 49.623 143.168 48.9027 143.179 48.1739C143.166 47.4514 143.335 46.7373 143.67 46.0976ZM149.205 46.8035C149.003 46.4286 148.704 46.1159 148.339 45.8993C147.988 45.6941 147.59 45.587 147.184 45.5891C146.779 45.5867 146.381 45.6913 146.029 45.8924C145.664 46.1028 145.365 46.4107 145.163 46.7819C144.933 47.2084 144.819 47.6881 144.832 48.173C144.821 48.6642 144.935 49.1501 145.163 49.5847C145.363 49.9685 145.665 50.2891 146.036 50.5104C146.385 50.7169 146.782 50.8263 147.186 50.8275C147.591 50.8287 147.989 50.7216 148.339 50.5173C148.705 50.2994 149.005 49.9841 149.205 49.6063C149.433 49.1741 149.547 48.6904 149.535 48.2014C149.546 47.7143 149.431 47.2327 149.202 46.8035H149.205Z" fill="white"/>
<path d="M160.585 44.3164L155.826 55.7545H154.163L155.74 51.9699L152.684 44.3125H154.473L156.655 50.2431L158.922 44.3125L160.585 44.3164Z" fill="white"/>
<path d="M169.384 45.6298H167.949V52.0973H166.33V45.6298H165.414V44.3162H166.33V43.7655C166.33 42.8714 166.567 42.2196 167.041 41.8099C167.515 41.4002 168.259 41.1953 169.272 41.1953V42.5373C168.783 42.5373 168.441 42.629 168.245 42.8122C168.048 42.9955 167.95 43.3132 167.951 43.7655V44.3162H169.386L169.384 45.6298Z" fill="white"/>
<path d="M172.524 51.7231C171.937 51.3926 171.454 50.9031 171.131 50.3104C170.783 49.6628 170.608 48.9355 170.624 48.1997C170.61 47.4647 170.79 46.7389 171.145 46.0959C171.476 45.4995 171.969 45.0097 172.566 44.6832C173.188 44.3588 173.879 44.1895 174.58 44.1895C175.281 44.1895 175.972 44.3588 176.594 44.6832C177.191 45.0097 177.684 45.4995 178.015 46.0959C178.371 46.7389 178.551 47.4646 178.537 48.1997C178.551 48.9366 178.366 49.6636 178.002 50.3036C177.657 50.9033 177.152 51.3948 176.545 51.7231C175.919 52.0596 175.219 52.2318 174.51 52.2238C173.816 52.2334 173.131 52.0608 172.524 51.7231ZM175.671 50.5294C176.043 50.3225 176.348 50.0141 176.552 49.6399C176.788 49.1978 176.904 48.7012 176.889 48.1997C176.889 47.6343 176.781 47.1565 176.565 46.7664C176.369 46.3954 176.071 46.0887 175.706 45.8829C175.353 45.6869 174.956 45.5855 174.553 45.5884C174.151 45.5848 173.756 45.6863 173.405 45.8829C173.045 46.0883 172.753 46.3956 172.566 46.7664C172.348 47.2115 172.242 47.7038 172.257 48.1997C172.257 49.0375 172.471 49.6848 172.898 50.1416C173.102 50.365 173.352 50.5419 173.63 50.6604C173.908 50.779 174.208 50.8364 174.51 50.8288C174.916 50.83 175.316 50.7269 175.671 50.5294Z" fill="white"/>
<path d="M183.005 44.5222C183.43 44.2922 183.908 44.1778 184.391 44.1904V45.8593H183.983C183.354 45.8593 182.877 46.0193 182.554 46.3394C182.23 46.6594 182.067 47.2157 182.064 48.0083V52.104H180.459V44.3229H182.064V45.4529C182.289 45.0638 182.614 44.7424 183.005 44.5222Z" fill="white"/>
<path d="M190.16 46.0969C190.462 45.5157 190.919 45.0299 191.479 44.6934C192.04 44.3569 192.682 44.1827 193.335 44.1904C193.889 44.1774 194.438 44.3011 194.933 44.5507C195.358 44.7654 195.73 45.0715 196.024 45.447V44.317H197.643V52.0981H196.024V50.9397C195.728 51.327 195.347 51.641 194.912 51.8576C194.372 52.1223 193.775 52.2474 193.175 52.2215C192.575 52.1956 191.991 52.0196 191.476 51.7094C190.915 51.358 190.46 50.8602 190.16 50.2692C189.828 49.6212 189.659 48.901 189.671 48.1722C189.658 47.4502 189.826 46.7365 190.16 46.0969ZM195.693 46.8027C195.492 46.4278 195.193 46.1152 194.827 45.8986C194.477 45.6934 194.078 45.5863 193.673 45.5883C193.268 45.5861 192.87 45.6907 192.518 45.8917C192.153 46.1021 191.853 46.41 191.652 46.7811C191.423 47.2078 191.309 47.6875 191.322 48.1722C191.31 48.6634 191.424 49.1492 191.652 49.5839C191.852 49.9676 192.154 50.2881 192.525 50.5097C192.874 50.7161 193.271 50.8256 193.675 50.8268C194.08 50.828 194.478 50.7209 194.827 50.5166C195.194 50.2986 195.494 49.9834 195.693 49.6055C195.921 49.1733 196.035 48.6896 196.024 48.2007C196.036 47.7139 195.922 47.2323 195.693 46.8027Z" fill="white"/>
<path d="M205.648 44.5709C206.131 44.8244 206.526 45.2182 206.781 45.7008C207.053 46.1995 207.189 46.802 207.189 47.5082V52.0977H205.598V47.7487C205.598 47.0517 205.425 46.5173 205.078 46.1455C204.731 45.7738 204.257 45.5879 203.655 45.5879C203.054 45.5879 202.578 45.7738 202.227 46.1455C201.875 46.5173 201.699 47.0517 201.698 47.7487V52.0977H200.094V44.3166H201.698V45.206C201.97 44.8801 202.315 44.6237 202.705 44.458C203.116 44.2787 203.559 44.1875 204.007 44.19C204.577 44.1803 205.141 44.3111 205.648 44.5709Z" fill="white"/>
<path d="M216.553 44.3164L211.794 55.7545H210.131L211.708 51.9699L208.652 44.3125H210.44L212.623 50.2431L214.89 44.3125L216.553 44.3164Z" fill="white"/>
<path d="M219.974 45.6304V49.9372C219.974 50.2317 220.043 50.4388 220.179 50.5655C220.315 50.6921 220.546 50.7559 220.875 50.7559H221.862V52.0979H220.59C219.867 52.0979 219.313 51.9284 218.926 51.5894C218.539 51.2504 218.347 50.6996 218.349 49.9372V45.6304H217.434V44.3168H218.349V42.3828H219.968V44.3168H221.856V45.6304H219.974Z" fill="white"/>
<path d="M229.274 44.57C229.744 44.8292 230.126 45.2225 230.372 45.7C230.64 46.1987 230.774 46.8012 230.774 47.5074V52.0969H229.182V47.7479C229.182 47.0509 229.009 46.5165 228.662 46.1447C228.315 45.773 227.841 45.5871 227.24 45.5871C226.639 45.5871 226.163 45.773 225.811 46.1447C225.458 46.5165 225.282 47.0509 225.282 47.7479V52.0969H223.677V41.6484H225.282V45.2209C225.561 44.8864 225.916 44.6246 226.317 44.4581C226.751 44.2764 227.217 44.1852 227.687 44.1901C228.24 44.1795 228.786 44.3103 229.274 44.57Z" fill="white"/>
<path d="M233.237 42.9899C233.091 42.8458 232.99 42.6609 232.949 42.4591C232.908 42.2572 232.929 42.0477 233.008 41.8575C233.086 41.6674 233.22 41.5053 233.392 41.3921C233.563 41.279 233.765 41.2201 233.97 41.2228C234.103 41.2202 234.236 41.245 234.359 41.2956C234.483 41.3463 234.595 41.4217 234.688 41.5174C234.879 41.7147 234.986 41.9787 234.986 42.2537C234.986 42.5286 234.879 42.7927 234.688 42.9899C234.595 43.0856 234.483 43.161 234.359 43.2117C234.236 43.2623 234.103 43.2871 233.97 43.2845C233.834 43.2882 233.699 43.264 233.573 43.2133C233.447 43.1627 233.333 43.0866 233.237 42.9899ZM234.759 44.3172V52.0984H233.153V44.3172H234.759Z" fill="white"/>
<path d="M242.763 44.5708C243.245 44.8246 243.64 45.2183 243.897 45.7008C244.169 46.1995 244.305 46.8019 244.305 47.5081V52.0977H242.714V47.7486C242.714 47.0516 242.54 46.5172 242.192 46.1455C241.844 45.7737 241.37 45.5879 240.77 45.5879C240.17 45.5879 239.693 45.7737 239.342 46.1455C238.99 46.5172 238.814 47.0516 238.813 47.7486V52.0977H237.212V44.3165H238.817V45.206C239.089 44.8796 239.434 44.6231 239.824 44.4579C240.235 44.2787 240.679 44.1874 241.127 44.1899C241.695 44.1809 242.256 44.3117 242.763 44.5708Z" fill="white"/>
<path d="M251.408 44.5497C251.836 44.7595 252.21 45.0664 252.499 45.446V44.3161H254.118V52.2268C254.13 52.8924 253.975 53.5504 253.667 54.1402C253.37 54.6977 252.918 55.1565 252.365 55.4606C251.798 55.7806 251.12 55.9406 250.331 55.9406C249.279 55.9406 248.406 55.6936 247.712 55.1994C247.378 54.9725 247.1 54.6743 246.895 54.3263C246.691 53.9783 246.565 53.5892 246.529 53.1869H248.121C248.249 53.6013 248.529 53.9518 248.903 54.1686C249.335 54.4267 249.831 54.5564 250.333 54.5427C250.981 54.5427 251.502 54.3463 251.898 53.9536C252.294 53.5609 252.494 52.9866 252.497 52.2307V50.9319C252.202 51.3188 251.824 51.6347 251.392 51.8567C250.903 52.1119 250.358 52.2405 249.807 52.2307C249.154 52.2369 248.513 52.0583 247.956 51.7153C247.392 51.3657 246.934 50.8676 246.632 50.2751C246.3 49.6272 246.132 48.9069 246.143 48.1782C246.13 47.4561 246.298 46.7424 246.632 46.1028C246.935 45.5219 247.391 45.0363 247.952 44.6998C248.512 44.3633 249.154 44.189 249.807 44.1963C250.362 44.183 250.911 44.3042 251.408 44.5497ZM252.168 46.8018C251.967 46.4269 251.668 46.1143 251.302 45.8976C250.952 45.6925 250.553 45.5853 250.148 45.5874C249.743 45.585 249.345 45.6897 248.993 45.8908C248.628 46.1011 248.328 46.409 248.127 46.7802C247.898 47.2069 247.784 47.6865 247.797 48.1713C247.785 48.6624 247.899 49.1483 248.127 49.583C248.327 49.9667 248.629 50.2871 249 50.5088C249.349 50.7152 249.746 50.8247 250.15 50.8259C250.555 50.8271 250.953 50.72 251.302 50.5156C251.669 50.2977 251.969 49.9825 252.168 49.6046C252.397 49.1724 252.51 48.6887 252.499 48.1998C252.511 47.7129 252.397 47.2313 252.168 46.8018Z" fill="white"/>
<path d="M256.487 51.9001C256.341 51.7558 256.241 51.5709 256.201 51.3692C256.16 51.1676 256.181 50.9583 256.259 50.7683C256.338 50.5784 256.472 50.4164 256.643 50.3032C256.814 50.19 257.015 50.1307 257.22 50.133C257.354 50.1304 257.486 50.1551 257.61 50.2058C257.733 50.2564 257.845 50.3319 257.939 50.4275C258.13 50.6247 258.236 50.8888 258.236 51.1638C258.236 51.4388 258.13 51.7029 257.939 51.9001C257.845 51.9957 257.733 52.0712 257.61 52.1218C257.486 52.1725 257.354 52.1972 257.22 52.1946C257.085 52.1983 256.95 52.1741 256.823 52.1235C256.697 52.0728 256.583 51.9968 256.487 51.9001Z" fill="white"/>
<path d="M66.6575 69.0429H65.0518L60.2221 61.7143V69.0429H58.6174V59.2148H60.2221L65.0518 66.5297V59.2148H66.6575V69.0429Z" fill="white"/>
<path d="M76.1613 65.7517H70.2328C70.2808 66.3731 70.5097 66.8719 70.9236 67.2488C71.3393 67.6261 71.8838 67.8283 72.4442 67.8133C73.3072 67.8133 73.9174 67.4507 74.2749 66.7256H76.0058C75.7783 67.4322 75.3329 68.0479 74.7338 68.4838C74.1193 68.942 73.3567 69.1711 72.4461 69.1711C71.7496 69.1828 71.0624 69.0097 70.4539 68.6694C69.8704 68.3387 69.3918 67.8494 69.0733 67.2577C68.73 66.608 68.5579 65.8811 68.5733 65.146C68.5589 64.4125 68.7271 63.6871 69.0626 63.0353C69.3728 62.4429 69.849 61.9546 70.4324 61.6305C71.0521 61.2937 71.7484 61.1246 72.453 61.1396C73.1357 61.1277 73.8099 61.2934 74.4099 61.6206C74.9748 61.9326 75.4389 62.4004 75.7475 62.9685C76.075 63.5823 76.2397 64.2703 76.2259 64.9663C76.2247 65.2294 76.2031 65.492 76.1613 65.7517ZM74.542 64.4529C74.5322 63.8599 74.3208 63.3845 73.9079 63.0265C73.4802 62.6634 72.9337 62.4721 72.3737 62.4895C71.8496 62.4783 71.3409 62.6679 70.951 63.0196C70.5596 63.3717 70.3251 63.8495 70.2475 64.4529H74.542Z" fill="white"/>
<path d="M81.1309 67.6027L83.3275 61.2627H85.032L82.0741 69.0429H80.1593L77.217 61.2598H78.9342L81.1309 67.6027Z" fill="white"/>
<path d="M93.6346 65.7517H87.7022C87.7491 66.3728 87.9794 66.8719 88.393 67.2488C88.8086 67.6261 89.3532 67.8283 89.9135 67.8133C90.7765 67.8133 91.3864 67.4507 91.7432 66.7256H93.4751C93.2473 67.432 92.8019 68.0476 92.2031 68.4838C91.5886 68.942 90.8261 69.1711 89.9155 69.1711C89.219 69.1828 88.5317 69.0097 87.9233 68.6694C87.3397 68.3387 86.8611 67.8494 86.5427 67.2577C86.1994 66.608 86.0273 65.8811 86.0427 65.146C86.0283 64.4125 86.1964 63.6871 86.5319 63.0353C86.8422 62.4429 87.3183 61.9546 87.9018 61.6305C88.5215 61.2937 89.2178 61.1246 89.9223 61.1396C90.6051 61.1277 91.2793 61.2934 91.8792 61.6206C92.4442 61.9326 92.9083 62.4004 93.2168 62.9685C93.5443 63.5823 93.7091 64.2703 93.6953 64.9663C93.6953 65.2293 93.6751 65.4919 93.6346 65.7517ZM92.0153 64.4529C92.0055 63.8599 91.7941 63.3845 91.3812 63.0265C90.9535 62.6634 90.407 62.4721 89.847 62.4895C89.3228 62.4783 88.8141 62.6679 88.4243 63.0196C88.0329 63.3717 87.7984 63.8495 87.7208 64.4529H92.0153Z" fill="white"/>
<path d="M98.1474 61.4666C98.5726 61.2358 99.0507 61.121 99.5339 61.1338V62.8027H99.1259C98.4971 62.8027 98.0205 62.9627 97.6963 63.2828C97.3721 63.6028 97.2091 64.1591 97.2071 64.9517V69.0464H95.6014V61.2584H97.2071V62.3884C97.4331 62.0026 97.7577 61.6843 98.1474 61.4666Z" fill="white"/>
<path d="M106.525 68.838C106.071 68.6412 105.676 68.3297 105.377 67.9339C105.1 67.5651 104.942 67.1195 104.926 66.6576H106.59C106.604 66.8213 106.654 66.9798 106.735 67.1223C106.817 67.2648 106.928 67.388 107.061 67.4833C107.373 67.7121 107.752 67.829 108.137 67.8151C108.589 67.8151 108.938 67.7281 109.186 67.554C109.301 67.4837 109.395 67.3851 109.461 67.2677C109.526 67.1503 109.56 67.018 109.56 66.8834C109.564 66.7458 109.526 66.6102 109.452 66.4943C109.378 66.3785 109.271 66.2876 109.144 66.2335C108.72 66.0391 108.28 65.883 107.828 65.7672C107.345 65.6401 106.87 65.4847 106.406 65.3019C106.039 65.1501 105.713 64.9129 105.455 64.6098C105.187 64.2989 105.054 63.8892 105.054 63.3807C105.052 62.9725 105.18 62.5745 105.42 62.2448C105.688 61.8819 106.051 61.6005 106.469 61.4319C106.965 61.2274 107.498 61.1272 108.035 61.1374C108.917 61.1374 109.628 61.3613 110.168 61.8089C110.707 62.2566 110.996 62.8659 111.034 63.6369H109.429C109.421 63.4761 109.379 63.319 109.306 63.1755C109.233 63.0321 109.131 62.9057 109.006 62.8044C108.753 62.5969 108.411 62.4932 107.979 62.4932C107.547 62.4932 107.223 62.5734 107.007 62.7337C106.902 62.8022 106.816 62.8965 106.757 63.0076C106.698 63.1187 106.668 63.243 106.67 63.3689C106.668 63.467 106.687 63.5644 106.726 63.6545C106.765 63.7446 106.822 63.8253 106.895 63.8912C107.053 64.0381 107.24 64.151 107.444 64.223C107.66 64.3035 107.98 64.4049 108.402 64.5273C108.874 64.6475 109.337 64.8007 109.788 64.9858C110.148 65.1407 110.468 65.3757 110.725 65.673C110.987 65.9744 111.124 66.3739 111.133 66.8726C111.138 67.2971 111.01 67.7124 110.767 68.0595C110.503 68.4228 110.145 68.7061 109.731 68.8783C109.236 69.0846 108.702 69.1849 108.166 69.1728C107.601 69.1813 107.041 69.0671 106.525 68.838Z" fill="white"/>
<path d="M115.079 62.5757V66.8825C115.079 67.1744 115.147 67.3838 115.282 67.5108C115.418 67.6378 115.65 67.7012 115.979 67.7012H116.965V69.0423H115.693C114.971 69.0423 114.416 68.8731 114.03 68.5347C113.644 68.1964 113.451 67.6456 113.453 66.8825V62.5757H112.537V61.2592H113.453V59.3242H115.072V61.2592H116.958V62.5727L115.079 62.5757Z" fill="white"/>
<path d="M120.161 68.6685C119.574 68.3383 119.091 67.8491 118.767 67.2567C118.419 66.6087 118.245 65.8811 118.261 65.1451C118.247 64.41 118.426 63.6844 118.781 63.0412C119.113 62.4454 119.606 61.9559 120.203 61.6295C120.825 61.3045 121.515 61.1348 122.217 61.1348C122.918 61.1348 123.608 61.3045 124.23 61.6295C124.828 61.9559 125.32 62.4454 125.652 63.0412C126.007 63.6843 126.187 64.41 126.173 65.1451C126.187 65.8822 126.003 66.6095 125.638 67.2499C125.294 67.8496 124.789 68.3409 124.181 68.6685C123.556 69.0056 122.856 69.1782 122.146 69.1701C121.452 69.1798 120.768 69.0069 120.161 68.6685ZM123.308 67.4757C123.679 67.2683 123.984 66.96 124.188 66.5862C124.425 66.1438 124.541 65.6468 124.526 65.1451C124.54 64.6478 124.428 64.155 124.199 63.7137C124.003 63.3427 123.705 63.036 123.34 62.8302C122.987 62.6339 122.59 62.5325 122.186 62.5356C121.785 62.5316 121.389 62.6332 121.039 62.8302C120.679 63.0356 120.387 63.3429 120.2 63.7137C119.981 64.1585 119.875 64.6504 119.891 65.146C119.891 65.9844 120.104 66.6317 120.531 67.0879C120.735 67.3112 120.985 67.488 121.263 67.6065C121.541 67.725 121.841 67.7825 122.143 67.7751C122.55 67.7763 122.951 67.6733 123.308 67.4757Z" fill="white"/>
<path d="M130.819 61.5024C131.312 61.2523 131.858 61.1263 132.41 61.1352C133.062 61.1275 133.704 61.3017 134.263 61.6383C134.823 61.9749 135.278 62.4608 135.578 63.0417C135.907 63.6834 136.072 64.3968 136.058 65.1181C136.07 65.8457 135.906 66.5654 135.578 67.215C135.281 67.8079 134.825 68.3064 134.262 68.6552C133.706 68.9983 133.064 69.1769 132.41 69.1706C131.863 69.181 131.322 69.0573 130.834 68.8103C130.401 68.592 130.017 68.287 129.707 67.914V72.746H128.102V61.2599H129.707V62.4036C130.007 62.025 130.387 61.7173 130.819 61.5024ZM134.093 63.727C133.891 63.3545 133.588 63.0464 133.22 62.8375C132.866 62.6368 132.466 62.532 132.059 62.5332C131.656 62.5331 131.26 62.6405 130.911 62.8444C130.543 63.0586 130.24 63.3713 130.038 63.7476C129.809 64.1769 129.695 64.6586 129.707 65.1455C129.695 65.6349 129.81 66.1191 130.038 66.5514C130.183 66.8256 130.381 67.0675 130.622 67.2625C130.862 67.4575 131.139 67.6016 131.437 67.686C131.734 67.7705 132.046 67.7935 132.352 67.7537C132.659 67.7139 132.954 67.6121 133.22 67.4546C133.591 67.233 133.893 66.9129 134.093 66.5298C134.321 66.0949 134.435 65.6091 134.424 65.1181C134.436 64.6334 134.322 64.1538 134.093 63.727Z" fill="white"/>
<path d="M143.59 58.5938V69.0432H141.986V58.5938H143.59Z" fill="white"/>
<path d="M153.094 65.7517H147.167C147.214 66.3728 147.442 66.8719 147.852 67.2488C148.267 67.6261 148.812 67.8283 149.372 67.8133C150.236 67.8133 150.847 67.4507 151.203 66.7256H152.935C152.707 67.432 152.261 68.0476 151.663 68.4838C151.048 68.942 150.285 69.171 149.374 69.171C148.678 69.1826 147.99 69.0096 147.382 68.6694C146.798 68.339 146.32 67.8495 146.002 67.2577C145.658 66.6082 145.486 65.8812 145.502 65.146C145.488 64.4126 145.656 63.6872 145.991 63.0353C146.302 62.4434 146.778 61.9552 147.361 61.6304C147.981 61.2938 148.677 61.1247 149.382 61.1396C150.065 61.1278 150.739 61.2935 151.339 61.6206C151.903 61.9329 152.368 62.4006 152.676 62.9685C153.004 63.5823 153.169 64.2703 153.155 64.9663C153.155 65.2293 153.135 65.4919 153.094 65.7517ZM151.476 64.4529C151.466 63.8599 151.255 63.3844 150.842 63.0264C150.414 62.6632 149.867 62.4719 149.307 62.4894C148.783 62.4783 148.274 62.6678 147.885 63.0196C147.493 63.3717 147.259 63.8495 147.181 64.4529H151.476Z" fill="white"/>
<path d="M155.021 63.0402C155.323 62.4596 155.78 61.9742 156.34 61.6377C156.9 61.3012 157.542 61.1268 158.195 61.1337C158.749 61.1211 159.298 61.2448 159.794 61.494C160.219 61.7091 160.591 62.0155 160.885 62.3913V61.2584H162.504V69.0385H160.885V67.8811C160.589 68.2684 160.208 68.5824 159.772 68.799C159.233 69.0637 158.636 69.1888 158.036 69.1629C157.436 69.137 156.852 68.9609 156.337 68.6507C155.776 68.2997 155.321 67.8017 155.021 67.2105C154.688 66.5628 154.52 65.8424 154.531 65.1136C154.518 64.3922 154.687 63.6791 155.021 63.0402ZM160.554 63.746C160.352 63.3716 160.053 63.0594 159.688 62.8429C159.338 62.6374 158.939 62.5299 158.533 62.5317C158.129 62.5296 157.73 62.6346 157.379 62.836C157.014 63.0464 156.714 63.3543 156.513 63.7254C156.283 64.1521 156.169 64.6318 156.182 65.1165C156.171 65.6077 156.285 66.0935 156.513 66.5283C156.713 66.9114 157.015 67.2315 157.386 67.453C157.733 67.6611 158.129 67.7711 158.533 67.7711C158.939 67.7728 159.338 67.6654 159.688 67.4599C160.055 67.2423 160.354 66.9274 160.554 66.5498C160.782 66.1173 160.896 65.6333 160.885 65.144C160.895 64.6569 160.78 64.1753 160.55 63.746H160.554Z" fill="white"/>
<path d="M167.491 61.4666C167.917 61.2358 168.395 61.121 168.879 61.1338V62.8027H168.47C167.84 62.8027 167.364 62.9627 167.041 63.2828C166.718 63.6028 166.555 64.1591 166.552 64.9517V69.0465H164.947V61.2584H166.552V62.3884C166.778 62.0031 167.102 61.685 167.491 61.4666Z" fill="white"/>
<path d="M176.253 61.5161C176.736 61.7694 177.131 62.1633 177.386 62.646C177.658 63.1448 177.794 63.7472 177.794 64.4534V69.042H176.203V64.6949C176.203 63.9992 176.03 63.4651 175.683 63.0927C175.336 62.7203 174.862 62.5341 174.26 62.5341C173.659 62.5341 173.183 62.7203 172.832 63.0927C172.48 63.4651 172.304 63.9992 172.303 64.6949V69.0439H170.699V61.2589H172.303V62.1483C172.575 61.8221 172.92 61.5656 173.31 61.4002C173.721 61.2207 174.164 61.1291 174.612 61.1312C175.183 61.1228 175.746 61.255 176.253 61.5161Z" fill="white"/>
<path d="M180.254 59.9352C180.108 59.7911 180.007 59.6062 179.966 59.4044C179.925 59.2025 179.946 58.993 180.025 58.8028C180.104 58.6127 180.237 58.4506 180.409 58.3374C180.58 58.2243 180.782 58.1653 180.987 58.1681C181.12 58.1656 181.253 58.1905 181.376 58.2411C181.499 58.2918 181.611 58.3672 181.704 58.4627C181.896 58.6597 182.003 58.9239 182.003 59.1989C182.003 59.474 181.896 59.7382 181.704 59.9352C181.611 60.0307 181.499 60.1061 181.376 60.1568C181.253 60.2074 181.12 60.2323 180.987 60.2298C180.851 60.2333 180.716 60.209 180.59 60.1584C180.464 60.1077 180.35 60.0318 180.254 59.9352ZM181.776 61.2625V69.0427H180.167V61.2596L181.776 61.2625Z" fill="white"/>
<path d="M189.78 61.5161C190.262 61.7696 190.658 62.1634 190.914 62.646C191.186 63.1448 191.322 63.7472 191.322 64.4534V69.042H189.731V64.6949C189.731 63.9992 189.557 63.4651 189.209 63.0927C188.861 62.7203 188.388 62.5341 187.787 62.5341C187.187 62.5341 186.71 62.7203 186.359 63.0927C186.007 63.4651 185.831 63.9992 185.831 64.6949V69.0439H184.225V61.2589H185.831V62.1483C186.101 61.8216 186.447 61.565 186.837 61.4002C187.248 61.2207 187.692 61.1291 188.14 61.1312C188.709 61.1228 189.273 61.255 189.78 61.5161Z" fill="white"/>
<path d="M198.425 61.4948C198.853 61.7049 199.227 62.0121 199.516 62.3921V61.2591H201.136V69.1669C201.147 69.8325 200.992 70.4905 200.685 71.0803C200.387 71.6377 199.935 72.0964 199.382 72.4007C198.815 72.7207 198.137 72.8808 197.348 72.8808C196.296 72.8808 195.423 72.6337 194.729 72.1396C194.396 71.9125 194.117 71.6143 193.912 71.2663C193.708 70.9183 193.583 70.5293 193.546 70.127H195.138C195.267 70.5411 195.546 70.8914 195.92 71.1087C196.352 71.3668 196.848 71.4966 197.35 71.4828C197.998 71.4828 198.52 71.2864 198.915 70.8938C199.311 70.5011 199.511 69.9268 199.514 69.1708V67.872C199.197 68.2832 198.789 68.6146 198.322 68.8401C197.855 69.0655 197.343 69.1787 196.824 69.1708C196.171 69.177 195.53 68.9984 194.973 68.6554C194.409 68.3059 193.951 67.8077 193.649 67.2153C193.317 66.5673 193.149 65.847 193.16 65.1183C193.147 64.396 193.315 63.6819 193.649 63.042C193.952 62.4614 194.409 61.9761 194.969 61.6396C195.529 61.3032 196.172 61.1287 196.824 61.1354C197.379 61.1244 197.928 61.2476 198.425 61.4948ZM199.186 63.7468C198.984 63.3724 198.685 63.0602 198.32 62.8436C197.969 62.6382 197.571 62.5307 197.165 62.5324C196.76 62.5304 196.362 62.6354 196.01 62.8368C195.645 63.0471 195.346 63.355 195.144 63.7262C194.915 64.1529 194.801 64.6326 194.814 65.1173C194.803 65.6084 194.916 66.0943 195.144 66.529C195.344 66.9124 195.647 67.2325 196.017 67.4538C196.364 67.6619 196.761 67.7718 197.165 67.7719C197.571 67.7736 197.969 67.6662 198.32 67.4607C198.686 67.2431 198.986 66.9282 199.186 66.5506C199.414 66.1181 199.527 65.6341 199.516 65.1448C199.528 64.658 199.414 64.1764 199.186 63.7468Z" fill="white"/>
<path d="M203.5 68.8454C203.354 68.7013 203.254 68.5163 203.213 68.3145C203.172 68.1127 203.192 67.9032 203.271 67.713C203.35 67.5228 203.484 67.3607 203.655 67.2476C203.827 67.1345 204.028 67.0755 204.233 67.0783C204.367 67.0758 204.499 67.1006 204.622 67.1513C204.746 67.2019 204.857 67.2773 204.951 67.3728C205.142 67.5699 205.249 67.834 205.249 68.1091C205.249 68.3842 205.142 68.6483 204.951 68.8454C204.857 68.9409 204.746 69.0163 204.622 69.0669C204.499 69.1176 204.367 69.1424 204.233 69.1399C204.098 69.1435 203.963 69.1192 203.837 69.0685C203.711 69.0179 203.596 68.942 203.5 68.8454Z" fill="white"/>
<path d="M81.4871 30.3052L75.8452 21.7937L70.8727 30.3052H63.2221L72.0977 16.1753L63.0244 2.51953H70.8727L76.4343 10.9113L81.3266 2.51953H88.9792L80.1847 16.5316L89.3373 30.3052H81.4871Z" fill="white"/>
<path d="M116.596 2.51953V7.94256H109.258V30.3052H102.512V7.94256H95.1738V2.51953H116.596Z" fill="white"/>
<path d="M142.986 25.0814H151.822V30.3062H136.241V2.52344H142.986V25.0814Z" fill="white"/>
<path d="M210.286 2.51953L200.463 30.3023H192.021L182.198 2.51953H189.377L196.242 23.4979L203.145 2.51953H210.286Z" fill="white"/>
<path d="M223.777 7.94353V13.5639H232.809V18.7886H223.777V24.8841H233.994V30.3062H217.032V2.52344H233.994V7.94647L223.777 7.94353Z" fill="white"/>
<path d="M249.064 25.0814H257.9V30.3062H242.318V2.52344H249.064V25.0814Z" fill="white"/>
<path d="M39.238 2.51953V10.4538H45.9836V7.94256H56.2007V2.51953H39.238Z" fill="white"/>
<path d="M55.0177 13.5898H39.238V18.7507H55.0177V13.5898Z" fill="white"/>
<path d="M45.9836 21.8828H39.238V30.305H56.2007V24.8829H45.9836V21.8828Z" fill="white"/>
<path d="M23.6549 12.7422V19.737L12.3732 2.51953H5.62671V30.3052H12.3732V13.1673L23.6549 30.3052H30.4014V12.7422H23.6549Z" fill="white"/>
<path d="M174.783 13.5898H159.003V18.7507H174.783V13.5898Z" fill="#FB221D"/>
<path d="M165.748 21.8828H159.003V30.305H175.966V24.8829H165.748V21.8828Z" fill="white"/>
<path d="M159.003 2.51953V10.4538H165.748V7.94256H175.966V2.51953H159.003Z" fill="white"/>
<path d="M27.1393 0.015625L21.5269 9.76903H32.7508L27.1393 0.015625Z" fill="#FB221D"/>
</g>
</g>
<defs>
<clipPath id="clip0">
<rect width="265" height="74" fill="white"/>
</clipPath>
<clipPath id="clip1">
<rect width="261.543" height="72.8438" fill="white" transform="translate(3.45654)"/>
</clipPath>
</defs>
</svg>
