<svg width="230" height="64" viewBox="0 0 230 64" fill="none" xmlns="http://www.w3.org/2000/svg">
<g clip-path="url(#clip0)">
<g clip-path="url(#clip1)">
<path d="M10.5972 41.4183C10.8799 41.772 11.0452 42.2051 11.0703 42.6571C11.0955 43.1092 10.9791 43.5579 10.7373 43.9408C10.4975 44.2998 10.1606 44.5834 9.76583 44.7584C9.3013 44.9667 8.79628 45.0691 8.28731 45.0582H4.89038V36.5676H8.12851C8.6411 36.5542 9.15031 36.6543 9.61976 36.8605C10.002 37.0283 10.3284 37.3016 10.5607 37.6484C10.772 37.9775 10.8824 38.3612 10.8783 38.7522C10.8783 39.2407 10.7478 39.6477 10.4868 39.9732C10.2126 40.3087 9.8481 40.5588 9.43633 40.694C9.90042 40.7814 10.3148 41.0399 10.5972 41.4183ZM6.28312 40.1362H8.01046C8.46678 40.1362 8.82318 40.0323 9.07965 39.8246C9.33612 39.6168 9.46435 39.3177 9.46435 38.9271C9.46435 38.5439 9.33612 38.2448 9.07965 38.0297C8.82318 37.8146 8.46678 37.7067 8.01046 37.7062H6.28312V40.1362ZM9.27752 43.5799C9.54588 43.3535 9.68006 43.036 9.68006 42.6273C9.68832 42.4411 9.65443 42.2554 9.58091 42.0842C9.50738 41.9129 9.39613 41.7604 9.25544 41.6382C8.97236 41.3942 8.5936 41.2722 8.11916 41.2722H6.28312V43.9221H8.16502C8.6372 43.9221 9.00803 43.8081 9.27752 43.5799Z" fill="black"/>
<path d="M19.0047 42.2114H13.86C13.9008 42.7486 14.1003 43.1802 14.4587 43.5062C14.8193 43.8328 15.292 44.0077 15.7784 43.9944C16.5274 43.9944 17.0571 43.6811 17.3673 43.0545H18.8705C18.673 43.6656 18.2864 44.1981 17.7665 44.5752C17.2332 44.9714 16.5713 45.1695 15.781 45.1695C15.1766 45.1795 14.5802 45.0302 14.0519 44.7365C13.5455 44.4504 13.1303 44.0268 12.8545 43.5147C12.5561 42.9533 12.4067 42.3248 12.4206 41.6893C12.4079 41.0546 12.5539 40.4269 12.8452 39.8629C13.1144 39.3506 13.5277 38.9283 14.0341 38.6479C14.5721 38.3571 15.1763 38.2108 15.7878 38.2234C16.3803 38.2128 16.9655 38.3558 17.4862 38.6386C17.9764 38.9087 18.3791 39.3131 18.6471 39.8044C18.9317 40.3354 19.0749 40.9307 19.0633 41.533C19.0614 41.7603 19.0418 41.9872 19.0047 42.2114ZM17.5992 41.0881C17.5907 40.5753 17.4075 40.1641 17.0497 39.8544C16.6781 39.5407 16.2034 39.3756 15.7173 39.3909C15.2627 39.3805 14.8213 39.5442 14.4833 39.8485C14.1437 40.1542 13.9398 40.5674 13.8719 41.0881H17.5992Z" fill="black"/>
<path d="M26.3921 38.5056C26.7613 38.3067 27.1762 38.2077 27.5955 38.2186V39.662H27.2413C26.695 39.662 26.2814 39.8004 26.0006 40.0772C25.7198 40.354 25.5783 40.8351 25.576 41.5206V45.0628H24.1858V38.3332H25.5794V39.3105C25.7735 38.9744 26.0542 38.6965 26.3921 38.5056Z" fill="black"/>
<path d="M35.2946 42.2114H30.15C30.1902 42.7486 30.3898 43.1802 30.7487 43.5062C31.1093 43.8328 31.582 44.0077 32.0684 43.9944C32.8174 43.9944 33.3468 43.6811 33.6565 43.0545H35.1605C34.9623 43.6653 34.5759 44.1976 34.0565 44.5752C33.5231 44.9714 32.8613 45.1695 32.071 45.1695C31.4666 45.1795 30.8702 45.0302 30.3419 44.7365C29.8354 44.4502 29.42 44.0267 29.1437 43.5147C28.8457 42.9532 28.6963 42.3248 28.7097 41.6893C28.6971 41.0546 28.843 40.4269 29.1343 39.8629C29.4036 39.3506 29.8168 38.9283 30.3232 38.6479C30.8612 38.3571 31.4655 38.2108 32.0769 38.2234C32.6694 38.2128 33.2546 38.3558 33.7754 38.6386C34.2629 38.9081 34.6638 39.3106 34.9312 39.7993C35.2154 40.3304 35.3584 40.9257 35.3465 41.5279C35.3471 41.7568 35.3297 41.9853 35.2946 42.2114ZM33.8892 41.0881C33.8807 40.5753 33.6972 40.1641 33.3389 39.8544C32.9675 39.5408 32.4932 39.3756 32.0073 39.3909C31.5524 39.3809 31.1109 39.5446 30.7725 39.8485C30.4328 40.1542 30.2293 40.5674 30.1619 41.0881H33.8892Z" fill="black"/>
<path d="M38.3986 36.0205V45.0579H37.005V36.0205H38.3986Z" fill="black"/>
<path d="M46.6506 42.2114H41.5025C41.5433 42.7486 41.7415 43.1802 42.097 43.5062C42.4576 43.8328 42.9303 44.0077 43.4167 43.9944C44.1657 43.9944 44.6954 43.6811 45.0056 43.0545H46.5088C46.311 43.6654 45.9244 44.1979 45.4048 44.5752C44.8715 44.9714 44.2096 45.1695 43.4193 45.1695C42.8149 45.1795 42.2185 45.0302 41.6902 44.7365C41.1837 44.4502 40.7683 44.0267 40.492 43.5147C40.1943 42.9531 40.0452 42.3247 40.0588 41.6893C40.0462 41.0546 40.1922 40.4269 40.4835 39.8629C40.7527 39.3506 41.166 38.9283 41.6724 38.6479C42.2103 38.3571 42.8146 38.2108 43.4261 38.2234C44.0186 38.2128 44.6037 38.3558 45.1245 38.6386C45.6147 38.9087 46.0174 39.3131 46.2854 39.8044C46.5699 40.3354 46.7132 40.9307 46.7015 41.533C46.7022 41.7601 46.6852 41.987 46.6506 42.2114ZM45.2451 41.0881C45.2366 40.5753 45.0535 40.1641 44.6957 39.8544C44.3239 39.5409 43.8494 39.3757 43.3632 39.3909C42.9084 39.3809 42.4669 39.5446 42.1284 39.8485C41.7887 40.1542 41.5852 40.5674 41.5178 41.0881H45.2451Z" fill="black"/>
<path d="M50.9604 43.8112L52.8669 38.3271H54.3463L51.7799 45.0568H50.118L47.5635 38.3271H49.0547L50.9604 43.8112Z" fill="black"/>
<path d="M55.6474 39.8675C55.9097 39.3651 56.306 38.945 56.7924 38.654C57.2788 38.363 57.8363 38.2123 58.4032 38.2186C58.884 38.2072 59.3602 38.3142 59.79 38.5302C60.1589 38.7159 60.4825 38.9806 60.7377 39.3054V38.3281H62.1423V45.0577H60.7377V44.0559C60.4804 44.3905 60.1502 44.662 59.7721 44.8497C59.3037 45.0786 58.7855 45.1868 58.2646 45.1644C57.7437 45.1421 57.2367 44.9898 56.7896 44.7215C56.3029 44.4177 55.908 43.9871 55.6474 43.476C55.3588 42.9156 55.2129 42.2926 55.2228 41.6624C55.2114 41.0379 55.3574 40.4206 55.6474 39.8675ZM60.4498 40.4779C60.2757 40.1533 60.0157 39.8828 59.6982 39.696C59.3943 39.5184 59.0482 39.4257 58.6962 39.4276C58.3377 39.4243 57.9852 39.5186 57.6762 39.7003C57.3673 39.8821 57.1137 40.1444 56.9425 40.4593C56.7435 40.8284 56.6446 41.2432 56.6554 41.6624C56.6461 42.0871 56.7449 42.5072 56.9425 42.8833C57.1164 43.2152 57.3789 43.4923 57.7009 43.684C58.0032 43.8625 58.3476 43.9572 58.6987 43.9582C59.0498 43.9593 59.3949 43.8666 59.6982 43.6899C60.0169 43.5019 60.2771 43.2291 60.4498 42.902C60.6486 42.5285 60.7478 42.11 60.7377 41.687C60.7482 41.2658 60.649 40.8492 60.4498 40.4779Z" fill="black"/>
<path d="M69.0899 38.5467C69.5087 38.7659 69.8515 39.1066 70.0733 39.5239C70.3105 39.9553 70.4289 40.4763 70.4283 41.087V45.0564H69.0474V41.2951C69.0474 40.6922 68.8966 40.2301 68.5948 39.9086C68.293 39.587 67.8817 39.4263 67.3609 39.4263C66.8394 39.4263 66.4259 39.587 66.1201 39.9086C65.8144 40.2301 65.6618 40.6922 65.6624 41.2951V45.0564H64.2688V38.3268H65.6624V39.096C65.8977 38.814 66.197 38.5921 66.5354 38.449C66.892 38.2942 67.277 38.2153 67.6657 38.2172C68.1603 38.2088 68.6493 38.3219 69.0899 38.5467Z" fill="black"/>
<path d="M74.119 39.464V43.1888C74.119 43.4435 74.1776 43.6226 74.2957 43.7322C74.4137 43.8417 74.615 43.8969 74.9003 43.8969H75.7563V45.0575H74.6523C74.0245 45.0575 73.5432 44.9109 73.2086 44.6177C72.8741 44.3245 72.707 43.8482 72.7076 43.1888V39.464H71.9127V38.3279H72.7076V36.6553H74.1131V38.3279H75.7504V39.464H74.119Z" fill="black"/>
<path d="M77.2595 44.8859C77.1327 44.7611 77.0461 44.6013 77.0108 44.427C76.9755 44.2526 76.9931 44.0717 77.0614 43.9075C77.1296 43.7432 77.2455 43.6031 77.3939 43.5051C77.5424 43.4071 77.7168 43.3558 77.8947 43.3576C78.0105 43.3553 78.1255 43.3767 78.2327 43.4205C78.3399 43.4643 78.437 43.5296 78.518 43.6123C78.6838 43.7828 78.7766 44.0113 78.7766 44.2491C78.7766 44.4869 78.6838 44.7154 78.518 44.8859C78.437 44.9686 78.3399 45.0338 78.2327 45.0776C78.1255 45.1214 78.0105 45.1429 77.8947 45.1406C77.777 45.1438 77.6599 45.1229 77.5507 45.0791C77.4414 45.0353 77.3423 44.9695 77.2595 44.8859Z" fill="black"/>
<path d="M89.7484 41.4183C90.0314 41.7718 90.197 42.2048 90.2223 42.657C90.2476 43.1091 90.1312 43.5579 89.8893 43.9408C89.6493 44.2997 89.3124 44.5832 88.9178 44.7584C88.453 44.9667 87.9477 45.069 87.4384 45.0582H84.0415V36.5676H87.2796C87.7922 36.5542 88.3014 36.6543 88.7709 36.8605C89.1531 37.0283 89.4796 37.3016 89.7118 37.6484C89.9232 37.9775 90.0336 38.3612 90.0295 38.7522C90.0295 39.2407 89.8992 39.6477 89.6388 39.9732C89.3643 40.3087 88.9995 40.5588 88.5874 40.694C89.0516 40.7811 89.466 41.0397 89.7484 41.4183ZM85.4351 40.1362H87.159C87.6159 40.1362 87.9718 40.0326 88.2291 39.8246C88.4864 39.6166 88.6138 39.3151 88.6138 38.9271C88.6138 38.5391 88.4855 38.2479 88.2291 38.0297C87.9726 37.8115 87.6159 37.7062 87.159 37.7062H85.4351V40.1362ZM88.4286 43.58C88.6976 43.3535 88.832 43.036 88.832 42.6273C88.8405 42.4411 88.8067 42.2554 88.7331 42.0841C88.6596 41.9128 88.5482 41.7603 88.4074 41.6382C88.1243 41.3942 87.7456 41.2722 87.2711 41.2722H85.4351V43.9221H87.317C87.7892 43.9221 88.1611 43.8081 88.4329 43.58H88.4286Z" fill="black"/>
<path d="M98.1565 42.2114H93.011C93.0517 42.7486 93.2499 43.1802 93.6054 43.5063C93.9663 43.8329 94.4393 44.0078 94.926 43.9945C95.675 43.9945 96.2044 43.6812 96.5141 43.0545H98.0172C97.8195 43.6655 97.4329 44.198 96.9132 44.5752C96.3799 44.9714 95.718 45.1695 94.9277 45.1695C94.3231 45.1794 93.7265 45.0301 93.1978 44.7365C92.6917 44.4499 92.2767 44.0265 92.0004 43.5147C91.702 42.9533 91.5526 42.3248 91.5664 41.6893C91.5538 41.0547 91.6997 40.4269 91.991 39.863C92.2603 39.3506 92.6736 38.9283 93.18 38.6479C93.7179 38.357 94.3222 38.2107 94.9336 38.2234C95.5261 38.2129 96.1113 38.356 96.6321 38.6386C97.1222 38.9087 97.525 39.3132 97.793 39.8044C98.0773 40.3355 98.2203 40.9308 98.2083 41.533C98.2086 41.7602 98.1913 41.987 98.1565 42.2114ZM96.7552 41.0881C96.7467 40.5753 96.5633 40.1641 96.2049 39.8545C95.8336 39.5408 95.3592 39.3756 94.8733 39.3909C94.4185 39.3809 93.977 39.5446 93.6386 39.8485C93.2989 40.1542 93.0953 40.5674 93.028 41.0881H96.7552Z" fill="black"/>
<path d="M105.543 38.5056C105.913 38.3066 106.328 38.2077 106.747 38.2186V39.662H106.392C105.847 39.662 105.433 39.8004 105.152 40.0772C104.872 40.354 104.73 40.8351 104.728 41.5206V45.0628H103.335V38.3332H104.728V39.3105C104.923 38.9744 105.205 38.6966 105.543 38.5056Z" fill="black"/>
<path d="M114.446 42.2114H109.301C109.342 42.7486 109.54 43.1802 109.895 43.5062C110.256 43.8328 110.729 44.0077 111.215 43.9944C111.965 43.9944 112.495 43.6811 112.804 43.0545H114.307C114.11 43.6655 113.723 44.1979 113.203 44.5752C112.669 44.9714 112.007 45.1695 111.217 45.1695C110.613 45.1794 110.016 45.03 109.488 44.7365C108.981 44.4504 108.566 44.0268 108.29 43.5147C107.992 42.9533 107.843 42.3248 107.856 41.6892C107.844 41.0546 107.99 40.4269 108.281 39.8629C108.551 39.3508 108.964 38.9286 109.47 38.6479C110.008 38.3571 110.612 38.2109 111.224 38.2234C111.816 38.2128 112.401 38.3558 112.922 38.6386C113.413 38.9087 113.816 39.3131 114.084 39.8043C114.368 40.3355 114.511 40.9307 114.499 41.533C114.499 41.7602 114.481 41.9871 114.446 42.2114ZM113.04 41.0881C113.033 40.5753 112.85 40.1641 112.491 39.8544C112.119 39.5406 111.644 39.3755 111.158 39.3908C110.704 39.3805 110.262 39.5442 109.924 39.8485C109.585 40.1541 109.381 40.5674 109.313 41.0881H113.04Z" fill="black"/>
<path d="M116.118 39.8674C116.38 39.365 116.776 38.945 117.263 38.654C117.749 38.363 118.307 38.2123 118.874 38.2186C119.355 38.2073 119.831 38.3143 120.261 38.5302C120.63 38.7159 120.953 38.9806 121.208 39.3054V38.3281H122.614V45.0577H121.208V44.0558C120.951 44.3908 120.621 44.6624 120.242 44.8497C119.774 45.0786 119.256 45.1868 118.735 45.1644C118.215 45.142 117.708 44.9898 117.261 44.7215C116.774 44.4177 116.379 43.9871 116.118 43.4759C115.829 42.9156 115.683 42.2926 115.693 41.6623C115.682 41.0379 115.828 40.4206 116.118 39.8674ZM120.921 40.4779C120.746 40.1537 120.487 39.8833 120.169 39.6959C119.865 39.5185 119.519 39.4258 119.167 39.4276C118.816 39.4256 118.47 39.5161 118.165 39.69C117.848 39.8719 117.588 40.1382 117.414 40.4592C117.214 40.8282 117.115 41.2431 117.127 41.6623C117.117 42.0871 117.216 42.5073 117.414 42.8833C117.587 43.2151 117.849 43.4923 118.171 43.684C118.474 43.8625 118.818 43.9571 119.17 43.9582C119.521 43.9592 119.866 43.8666 120.169 43.6899C120.488 43.5014 120.748 43.2288 120.921 42.902C121.119 42.5282 121.218 42.1098 121.208 41.687C121.217 41.2656 121.117 40.849 120.917 40.4779H120.921Z" fill="black"/>
<path d="M124.695 39.8677C124.958 39.3634 125.357 38.9422 125.846 38.651C126.334 38.3599 126.895 38.2103 127.464 38.2188C127.913 38.221 128.356 38.3188 128.765 38.5058C129.161 38.6744 129.511 38.9366 129.784 39.27V36.0215H131.189V45.0588H129.784V44.0451C129.537 44.3862 129.212 44.6627 128.836 44.8508C128.407 45.0686 127.93 45.1776 127.449 45.1684C126.882 45.1737 126.325 45.0192 125.842 44.7226C125.353 44.4203 124.955 43.9895 124.693 43.4771C124.405 42.9167 124.259 42.2937 124.269 41.6635C124.258 41.0386 124.404 40.421 124.695 39.8677ZM129.498 40.4782C129.324 40.154 129.064 39.8836 128.747 39.6962C128.443 39.5188 128.097 39.4261 127.745 39.4279C127.393 39.4258 127.048 39.5163 126.743 39.6903C126.426 39.8722 126.166 40.1385 125.991 40.4595C125.791 40.8284 125.692 41.2433 125.703 41.6626C125.694 42.0875 125.793 42.5077 125.991 42.8836C126.164 43.2155 126.427 43.4928 126.749 43.6842C127.051 43.8628 127.396 43.9574 127.747 43.9585C128.098 43.9595 128.443 43.8669 128.747 43.6902C129.065 43.5017 129.325 43.229 129.498 42.9022C129.696 42.5284 129.795 42.1101 129.785 41.6872C129.795 41.266 129.695 40.8494 129.496 40.4782H129.498Z" fill="black"/>
<path d="M139.376 38.3286L135.245 48.221H133.801L135.17 44.9478L132.518 38.3252H134.071L135.964 43.4543L137.932 38.3252L139.376 38.3286Z" fill="black"/>
<path d="M147.013 39.4641H145.767V45.0577H144.362V39.4641H143.567V38.3281H144.362V37.8517C144.362 37.0785 144.567 36.5148 144.979 36.1604C145.391 35.8061 146.036 35.6289 146.915 35.6289V36.7896C146.491 36.7896 146.194 36.8688 146.024 37.0273C145.853 37.1858 145.768 37.4606 145.769 37.8517V38.3281H147.015L147.013 39.4641Z" fill="black"/>
<path d="M149.738 44.7344C149.228 44.4485 148.809 44.0251 148.529 43.5126C148.227 42.9524 148.075 42.3234 148.089 41.6871C148.077 41.0514 148.232 40.4237 148.541 39.8676C148.828 39.3518 149.256 38.9281 149.775 38.6458C150.314 38.3652 150.914 38.2188 151.522 38.2188C152.131 38.2187 152.73 38.3652 153.27 38.6458C153.789 38.9281 154.217 39.3518 154.504 39.8676C154.813 40.4236 154.969 41.0513 154.957 41.6871C154.969 42.3244 154.808 42.9531 154.492 43.5066C154.193 44.0253 153.755 44.4504 153.228 44.7344C152.685 45.0253 152.077 45.1743 151.461 45.1674C150.859 45.1757 150.265 45.0264 149.738 44.7344ZM152.469 43.7019C152.792 43.523 153.057 43.2563 153.234 42.9327C153.439 42.5503 153.54 42.1208 153.527 41.6871C153.527 41.1981 153.433 40.7848 153.245 40.4475C153.075 40.1266 152.816 39.8613 152.5 39.6833C152.193 39.5139 151.849 39.4261 151.499 39.4286C151.15 39.4255 150.807 39.5133 150.502 39.6833C150.19 39.861 149.937 40.1268 149.775 40.4475C149.585 40.8325 149.493 41.2582 149.506 41.6871C149.506 42.4116 149.692 42.9715 150.063 43.3665C150.24 43.5597 150.456 43.7128 150.697 43.8153C150.939 43.9178 151.199 43.9674 151.461 43.9609C151.814 43.9619 152.161 43.8728 152.469 43.7019Z" fill="black"/>
<path d="M158.834 38.5056C159.203 38.3067 159.618 38.2077 160.038 38.2186V39.662H159.683C159.137 39.662 158.724 39.8004 158.443 40.0772C158.162 40.354 158.02 40.8351 158.018 41.5206V45.0628H156.625V38.3332H158.018V39.3105C158.213 38.974 158.495 38.696 158.834 38.5056Z" fill="black"/>
<path d="M165.045 39.8674C165.307 39.3648 165.703 38.9447 166.189 38.6536C166.676 38.3626 167.234 38.212 167.8 38.2186C168.281 38.2074 168.757 38.3144 169.187 38.5302C169.556 38.7159 169.879 38.9806 170.134 39.3054V38.3281H171.54V45.0577H170.134V44.0558C169.877 44.3908 169.547 44.6624 169.169 44.8497C168.7 45.0786 168.182 45.1868 167.661 45.1644C167.141 45.142 166.634 44.9898 166.187 44.7215C165.7 44.4176 165.305 43.9871 165.045 43.4759C164.756 42.9155 164.61 42.2926 164.62 41.6623C164.609 41.0379 164.755 40.4206 165.045 39.8674ZM169.847 40.4779C169.672 40.1537 169.413 39.8833 169.095 39.6959C168.791 39.5185 168.445 39.4258 168.093 39.4276C167.742 39.4257 167.397 39.5162 167.091 39.69C166.774 39.8719 166.514 40.1382 166.34 40.4592C166.14 40.8282 166.041 41.2431 166.053 41.6623C166.043 42.0871 166.142 42.5073 166.34 42.8833C166.513 43.2151 166.776 43.4922 167.097 43.6839C167.4 43.8625 167.744 43.9571 168.096 43.9582C168.447 43.9592 168.792 43.8666 169.095 43.6899C169.414 43.5014 169.674 43.2287 169.847 42.902C170.045 42.5282 170.144 42.1098 170.134 41.687C170.144 41.2659 170.046 40.8494 169.847 40.4779Z" fill="black"/>
<path d="M178.487 38.5467C178.906 38.7659 179.249 39.1066 179.471 39.5239C179.707 39.9552 179.825 40.4763 179.825 41.087V45.0564H178.444V41.2951C178.444 40.6922 178.293 40.2301 177.992 39.9086C177.691 39.587 177.279 39.4263 176.757 39.4263C176.236 39.4263 175.823 39.587 175.518 39.9086C175.212 40.2301 175.06 40.6922 175.059 41.2951V45.0564H173.666V38.3268H175.059V39.096C175.295 38.8141 175.594 38.5923 175.933 38.449C176.289 38.294 176.674 38.2151 177.063 38.2172C177.558 38.2089 178.047 38.322 178.487 38.5467Z" fill="black"/>
<path d="M187.952 38.3286L183.821 48.221H182.378L183.747 44.9478L181.094 38.3252H182.646L184.541 43.4543L186.508 38.3252L187.952 38.3286Z" fill="black"/>
<path d="M190.921 39.464V43.1888C190.921 43.4435 190.98 43.6226 191.098 43.7322C191.216 43.8417 191.418 43.8969 191.703 43.8969H192.559V45.0575H191.455C190.828 45.0575 190.347 44.9109 190.011 44.6177C189.676 44.3245 189.509 43.8482 189.51 43.1888V39.464H188.716V38.3279H189.51V36.6553H190.916V38.3279H192.554V39.464H190.921Z" fill="black"/>
<path d="M198.993 38.5473C199.4 38.7714 199.732 39.1116 199.946 39.5246C200.178 39.9559 200.295 40.4769 200.295 41.0877V45.057H198.913V41.2957C198.913 40.6929 198.762 40.2307 198.461 39.9092C198.16 39.5877 197.749 39.4269 197.227 39.4269C196.706 39.4269 196.292 39.5877 195.986 39.9092C195.681 40.2307 195.528 40.6929 195.528 41.2957V45.057H194.135V36.0205H195.528V39.1102C195.77 38.8209 196.078 38.5945 196.426 38.4505C196.803 38.2934 197.207 38.2145 197.615 38.2187C198.095 38.2096 198.569 38.3226 198.993 38.5473Z" fill="black"/>
<path d="M202.432 37.1798C202.305 37.0552 202.218 36.8953 202.182 36.7207C202.147 36.5461 202.165 36.3649 202.233 36.2005C202.301 36.036 202.418 35.8958 202.566 35.798C202.715 35.7001 202.89 35.6491 203.068 35.6515C203.184 35.6493 203.299 35.6707 203.406 35.7145C203.514 35.7583 203.611 35.8235 203.692 35.9062C203.857 36.0769 203.95 36.3053 203.95 36.543C203.95 36.7808 203.857 37.0092 203.692 37.1798C203.611 37.2625 203.514 37.3278 203.406 37.3716C203.299 37.4154 203.184 37.4368 203.068 37.4345C202.951 37.4378 202.833 37.4168 202.724 37.373C202.615 37.3292 202.515 37.2635 202.432 37.1798ZM203.753 38.3278V45.0574H202.359V38.3278H203.753Z" fill="black"/>
<path d="M210.7 38.5466C211.118 38.7661 211.461 39.1066 211.684 39.5239C211.92 39.9552 212.038 40.4762 212.038 41.087V45.0563H210.657V41.295C210.657 40.6922 210.506 40.23 210.204 39.9085C209.903 39.587 209.491 39.4262 208.971 39.4262C208.449 39.4262 208.036 39.587 207.731 39.9085C207.425 40.23 207.273 40.6922 207.272 41.295V45.0563H205.882V38.3267H207.275V39.0959C207.511 38.8137 207.811 38.5919 208.149 38.449C208.506 38.294 208.891 38.215 209.28 38.2172C209.773 38.2094 210.26 38.3225 210.7 38.5466Z" fill="black"/>
<path d="M218.203 38.5302C218.575 38.7116 218.899 38.977 219.15 39.3053V38.3281H220.556V45.1698C220.566 45.7455 220.431 46.3145 220.164 46.8246C219.906 47.3068 219.513 47.7036 219.034 47.9666C218.541 48.2434 217.953 48.3818 217.268 48.3818C216.356 48.3818 215.598 48.1681 214.995 47.7407C214.706 47.5444 214.464 47.2865 214.286 46.9856C214.109 46.6846 214 46.3481 213.968 46.0002H215.35C215.461 46.3585 215.704 46.6617 216.029 46.8492C216.404 47.0724 216.834 47.1846 217.27 47.1727C217.832 47.1727 218.285 47.0029 218.629 46.6633C218.972 46.3236 219.146 45.8269 219.148 45.1732V44.0499C218.892 44.3845 218.564 44.6577 218.189 44.8497C217.765 45.0704 217.292 45.1816 216.814 45.1732C216.247 45.1785 215.69 45.024 215.207 44.7274C214.717 44.4251 214.32 43.9943 214.058 43.4819C213.77 42.9215 213.624 42.2985 213.634 41.6683C213.622 41.0438 213.768 40.4265 214.058 39.8734C214.32 39.3709 214.717 38.951 215.203 38.6599C215.69 38.3689 216.247 38.2182 216.814 38.2245C217.295 38.2129 217.772 38.3178 218.203 38.5302ZM218.863 40.4779C218.689 40.1537 218.429 39.8833 218.112 39.6959C217.808 39.5185 217.461 39.4258 217.109 39.4276C216.758 39.4256 216.413 39.516 216.107 39.69C215.79 39.8719 215.53 40.1382 215.356 40.4592C215.156 40.8282 215.057 41.2431 215.069 41.6623C215.059 42.0871 215.158 42.5073 215.356 42.8833C215.529 43.2151 215.792 43.4922 216.113 43.6839C216.416 43.8625 216.76 43.9571 217.112 43.9582C217.463 43.9592 217.808 43.8666 218.112 43.6899C218.43 43.5014 218.69 43.2287 218.863 42.902C219.061 42.5281 219.16 42.1098 219.15 41.6869C219.16 41.2659 219.062 40.8494 218.863 40.4779Z" fill="black"/>
<path d="M222.612 44.8859C222.485 44.7611 222.398 44.6012 222.363 44.4268C222.328 44.2523 222.345 44.0714 222.414 43.9071C222.482 43.7428 222.598 43.6027 222.747 43.5048C222.895 43.4068 223.07 43.3556 223.248 43.3576C223.364 43.3553 223.479 43.3767 223.586 43.4205C223.693 43.4643 223.79 43.5296 223.871 43.6123C224.037 43.7828 224.13 44.0113 224.13 44.2491C224.13 44.4869 224.037 44.7154 223.871 44.8859C223.79 44.9686 223.693 45.0338 223.586 45.0776C223.479 45.1215 223.364 45.1429 223.248 45.1406C223.13 45.1438 223.013 45.1229 222.903 45.0791C222.794 45.0353 222.695 44.9695 222.612 44.8859Z" fill="black"/>
<path d="M57.8536 59.7128H56.4601L52.2682 53.3746V59.7128H50.8755V51.2129H52.2682L56.4601 57.5392V51.2129H57.8536V59.7128Z" fill="black"/>
<path d="M66.1023 56.8666H60.9568C60.9984 57.4041 61.1971 57.8354 61.5563 58.1614C61.9171 58.4877 62.3897 58.6626 62.876 58.6496C63.625 58.6496 64.1547 58.336 64.4649 57.7089H65.9672C65.7699 58.32 65.3832 58.8525 64.8632 59.2295C64.3299 59.6258 63.6681 59.8239 62.8777 59.8239C62.2732 59.834 61.6768 59.6843 61.1487 59.39C60.6422 59.104 60.2268 58.6808 59.9504 58.1691C59.6524 57.6072 59.5031 56.9785 59.5165 56.3427C59.5039 55.7084 59.6499 55.081 59.9411 54.5173C60.2103 54.005 60.6236 53.5826 61.13 53.3023C61.6678 53.0111 62.2722 52.8648 62.8837 52.8777C63.4763 52.8674 64.0614 53.0108 64.5821 53.2938C65.0725 53.5636 65.4753 53.9682 65.743 54.4595C66.0273 54.9904 66.1703 55.5854 66.1583 56.1874C66.1572 56.4149 66.1385 56.642 66.1023 56.8666ZM64.6968 55.7433C64.6883 55.2305 64.5049 54.8193 64.1465 54.5096C63.7753 54.1956 63.3009 54.0302 62.8149 54.0452C62.36 54.0356 61.9184 54.1995 61.5801 54.5037C61.2404 54.8082 61.0369 55.2214 60.9695 55.7433H64.6968Z" fill="black"/>
<path d="M70.4155 58.4672L72.322 52.984H73.8014L71.2341 59.7128H69.5722L67.0186 52.9814H68.509L70.4155 58.4672Z" fill="black"/>
<path d="M81.2678 56.8666H76.1189C76.1596 57.4038 76.3595 57.8354 76.7184 58.1614C77.0792 58.4877 77.5518 58.6626 78.0381 58.6496C78.7872 58.6496 79.3165 58.336 79.6262 57.7089H81.1293C80.9316 58.3198 80.5451 58.8523 80.0253 59.2295C79.492 59.6258 78.8302 59.8239 78.0398 59.8239C77.4353 59.834 76.8389 59.6843 76.3108 59.39C75.8043 59.104 75.3889 58.6808 75.1125 58.1691C74.8145 57.6072 74.6652 56.9785 74.6786 56.3427C74.666 55.7084 74.812 55.081 75.1032 54.5173C75.3724 54.005 75.7857 53.5826 76.2921 53.3023C76.8299 53.0111 77.4343 52.8648 78.0458 52.8777C78.6384 52.8674 79.2235 53.0108 79.7442 53.2938C80.2345 53.5636 80.6374 53.9682 80.9051 54.4595C81.1894 54.9904 81.3324 55.5854 81.3204 56.1874C81.3205 56.4148 81.3029 56.6419 81.2678 56.8666ZM79.8623 55.7433C79.8538 55.2305 79.6704 54.8193 79.312 54.5096C78.9408 54.1956 78.4664 54.0302 77.9804 54.0452C77.5255 54.0356 77.084 54.1995 76.7456 54.5037C76.4059 54.8082 76.2024 55.2214 76.135 55.7433H79.8623Z" fill="black"/>
<path d="M85.1846 53.1607C85.5536 52.9611 85.9685 52.8619 86.3879 52.8729V54.3163H86.0338C85.488 54.3163 85.0744 54.4547 84.7931 54.7315C84.5117 55.0083 84.3701 55.4894 84.3685 56.1749V59.7163H82.9749V52.9807H84.3685V53.958C84.5646 53.6243 84.8464 53.3491 85.1846 53.1607Z" fill="black"/>
<path d="M92.4556 59.5356C92.0616 59.3654 91.7184 59.096 91.4595 58.7536C91.2186 58.4347 91.0819 58.0493 91.068 57.6499H92.5117C92.5243 57.7914 92.5674 57.9285 92.6381 58.0517C92.7088 58.175 92.8053 58.2815 92.921 58.3639C93.1913 58.5618 93.5204 58.6629 93.8552 58.6509C94.247 58.6509 94.5504 58.5756 94.7656 58.425C94.8648 58.3643 94.9467 58.279 95.0035 58.1775C95.0603 58.0759 95.0901 57.9615 95.09 57.8451C95.0931 57.7261 95.0603 57.6088 94.9959 57.5086C94.9316 57.4084 94.8386 57.3298 94.729 57.2831C94.3611 57.1149 93.9788 56.9799 93.5868 56.8798C93.1677 56.7698 92.7554 56.6354 92.352 56.4773C92.0336 56.346 91.7509 56.1408 91.5274 55.8787C91.2947 55.6099 91.1787 55.2555 91.1792 54.8157C91.1774 54.4627 91.2887 54.1185 91.4969 53.8334C91.7295 53.5194 92.0447 53.2761 92.4072 53.1303C92.838 52.9535 93.3004 52.8668 93.766 52.8756C94.532 52.8756 95.1491 53.0692 95.6173 53.4564C96.0855 53.8435 96.3361 54.3705 96.3689 55.0373H94.9762C94.9689 54.8983 94.9325 54.7623 94.8693 54.6383C94.8061 54.5143 94.7175 54.4049 94.6093 54.3173C94.3896 54.1379 94.0924 54.0482 93.7176 54.0482C93.3428 54.0482 93.0617 54.1175 92.8743 54.2562C92.7829 54.3154 92.7081 54.3969 92.6569 54.493C92.6056 54.5891 92.5796 54.6966 92.5813 54.8055C92.5797 54.8904 92.5963 54.9746 92.63 55.0525C92.6637 55.1304 92.7137 55.2002 92.7767 55.2572C92.9143 55.3843 93.0764 55.4819 93.2531 55.5442C93.441 55.6138 93.7182 55.7016 94.0845 55.8074C94.4944 55.9114 94.8964 56.0439 95.2878 56.2039C95.6003 56.3379 95.8782 56.5411 96.1006 56.7982C96.3281 57.0589 96.447 57.4045 96.4547 57.8358C96.4594 58.2029 96.3483 58.5621 96.1371 58.8623C95.9084 59.1765 95.5975 59.4215 95.2386 59.5704C94.8083 59.7489 94.3455 59.8356 93.8798 59.8251C93.3898 59.8325 92.9039 59.7337 92.4556 59.5356Z" fill="black"/>
<path d="M99.8798 54.1197V57.8445C99.8798 58.097 99.9386 58.2781 100.056 58.3879C100.174 58.4977 100.376 58.5526 100.661 58.5526H101.517V59.7124H100.413C99.7858 59.7124 99.3045 59.5661 98.9694 59.2735C98.6342 58.9808 98.4672 58.5045 98.4683 57.8445V54.1197H97.6735V52.9811H98.4683V51.3076H99.8738V52.9811H101.511V54.1171L99.8798 54.1197Z" fill="black"/>
<path d="M104.291 59.3887C103.781 59.1032 103.362 58.6801 103.081 58.1677C102.779 57.6073 102.627 56.978 102.641 56.3414C102.629 55.7057 102.785 55.0781 103.093 54.5219C103.381 54.0065 103.809 53.5832 104.327 53.3009C104.867 53.0198 105.466 52.873 106.075 52.873C106.683 52.873 107.283 53.0198 107.823 53.3009C108.341 53.5832 108.769 54.0065 109.056 54.5219C109.365 55.078 109.521 55.7056 109.509 56.3414C109.521 56.979 109.361 57.608 109.045 58.1618C108.746 58.6805 108.308 59.1054 107.78 59.3887C107.237 59.6802 106.63 59.8295 106.014 59.8225C105.411 59.831 104.817 59.6814 104.291 59.3887ZM107.022 58.3571C107.344 58.1777 107.609 57.9111 107.786 57.5878C107.991 57.2052 108.092 56.7754 108.079 56.3414C108.092 55.9113 107.994 55.4851 107.795 55.1035C107.625 54.7826 107.366 54.5173 107.05 54.3393C106.744 54.1696 106.399 54.0819 106.049 54.0846C105.7 54.0812 105.356 54.169 105.052 54.3393C104.74 54.517 104.487 54.7828 104.325 55.1035C104.135 55.4882 104.043 55.9136 104.056 56.3423C104.056 57.0674 104.241 57.6272 104.612 58.0217C104.789 58.2148 105.006 58.3677 105.247 58.4702C105.488 58.5727 105.749 58.6224 106.011 58.616C106.365 58.6171 106.712 58.528 107.022 58.3571Z" fill="black"/>
<path d="M113.541 53.191C113.969 52.9747 114.443 52.8657 114.922 52.8734C115.488 52.8668 116.045 53.0174 116.531 53.3085C117.016 53.5996 117.411 54.0199 117.672 54.5223C117.957 55.0773 118.1 55.6943 118.088 56.3181C118.099 56.9474 117.956 57.5698 117.672 58.1316C117.414 58.6444 117.018 59.0755 116.53 59.3772C116.046 59.6739 115.489 59.8284 114.922 59.823C114.448 59.832 113.978 59.725 113.554 59.5114C113.178 59.3226 112.845 59.0587 112.576 58.7362V62.9152H111.183V52.9813H112.576V53.9704C112.837 53.643 113.166 53.3769 113.541 53.191ZM116.383 55.1149C116.207 54.7928 115.945 54.5264 115.625 54.3457C115.318 54.1721 114.97 54.0814 114.617 54.0825C114.267 54.0824 113.923 54.1753 113.621 54.3516C113.301 54.5369 113.039 54.8073 112.864 55.1328C112.665 55.5041 112.565 55.9207 112.576 56.3418C112.566 56.7651 112.665 57.1838 112.864 57.5577C112.989 57.7948 113.161 58.004 113.37 58.1727C113.578 58.3414 113.819 58.466 114.077 58.539C114.335 58.612 114.606 58.6319 114.872 58.5975C115.138 58.5631 115.394 58.4751 115.625 58.3388C115.947 58.1472 116.209 57.8704 116.383 57.539C116.58 57.1629 116.679 56.7428 116.67 56.3181C116.681 55.8989 116.582 55.4841 116.383 55.1149Z" fill="black"/>
<path d="M124.625 50.6748V59.7122H123.233V50.6748H124.625Z" fill="black"/>
<path d="M132.874 56.8676H127.729C127.77 57.4048 127.968 57.8364 128.324 58.1624C128.685 58.4887 129.157 58.6635 129.644 58.6506C130.394 58.6506 130.923 58.337 131.233 57.7098H132.736C132.538 58.3208 132.151 58.8533 131.632 59.2305C131.098 59.6267 130.436 59.8248 129.645 59.8248C129.041 59.8349 128.444 59.6852 127.916 59.391C127.41 59.1052 126.995 58.6819 126.719 58.17C126.421 57.6083 126.271 56.9796 126.285 56.3437C126.273 55.7094 126.419 55.082 126.71 54.5182C126.979 54.0063 127.392 53.5841 127.898 53.3032C128.436 53.0121 129.041 52.8658 129.652 52.8787C130.245 52.8685 130.83 53.0119 131.351 53.2947C131.841 53.5648 132.244 53.9693 132.512 54.4605C132.796 54.9913 132.939 55.5863 132.927 56.1883C132.927 56.4158 132.91 56.6429 132.874 56.8676ZM131.47 55.7443C131.461 55.2315 131.278 54.8202 130.919 54.5106C130.548 54.1965 130.073 54.031 129.587 54.0462C129.132 54.0365 128.691 54.2005 128.353 54.5047C128.013 54.8092 127.81 55.2224 127.742 55.7443H131.47Z" fill="black"/>
<path d="M134.546 54.5217C134.809 54.0195 135.205 53.5997 135.691 53.3087C136.177 53.0177 136.734 52.8669 137.301 52.8728C137.782 52.862 138.259 52.9689 138.689 53.1844C139.058 53.3705 139.381 53.6354 139.636 53.9605V52.9807H141.041V59.7094H139.636V58.7084C139.379 59.0434 139.048 59.315 138.67 59.5023C138.202 59.7312 137.684 59.8394 137.163 59.817C136.642 59.7946 136.135 59.6423 135.688 59.3741C135.201 59.0704 134.807 58.6398 134.546 58.1285C134.257 57.5682 134.111 56.9452 134.122 56.3149C134.11 55.691 134.256 55.0743 134.546 54.5217ZM139.349 55.1322C139.174 54.8083 138.914 54.5383 138.597 54.351C138.293 54.1733 137.947 54.0804 137.595 54.0819C137.244 54.0801 136.898 54.1709 136.593 54.3451C136.276 54.527 136.016 54.7933 135.841 55.1143C135.642 55.4833 135.543 55.8982 135.554 56.3175C135.545 56.7422 135.643 57.1624 135.841 57.5384C136.015 57.8698 136.277 58.1466 136.599 58.3382C136.9 58.5182 137.244 58.6133 137.595 58.6133C137.947 58.6148 138.293 58.5219 138.597 58.3441C138.915 58.156 139.175 57.8836 139.349 57.5571C139.547 57.183 139.645 56.7644 139.636 56.3412C139.645 55.9199 139.545 55.5034 139.345 55.1322H139.349Z" fill="black"/>
<path d="M145.37 53.1607C145.739 52.9611 146.154 52.8619 146.574 52.8729V54.3163H146.219C145.673 54.3163 145.259 54.4547 144.979 54.7315C144.699 55.0083 144.557 55.4894 144.554 56.1749V59.7163H143.162V52.9807H144.554V53.958C144.751 53.6248 145.032 53.3496 145.37 53.1607Z" fill="black"/>
<path d="M152.975 53.2033C153.393 53.4223 153.736 53.763 153.958 54.1805C154.194 54.6119 154.312 55.1329 154.312 55.7437V59.7121H152.931V55.9525C152.931 55.3508 152.781 54.8889 152.479 54.5669C152.178 54.2448 151.767 54.0837 151.245 54.0837C150.723 54.0837 150.31 54.2448 150.005 54.5669C149.7 54.8889 149.547 55.3508 149.546 55.9525V59.7138H148.153V52.9808H149.546V53.7501C149.782 53.4679 150.081 53.2461 150.42 53.1031C150.777 52.9478 151.161 52.8686 151.55 52.8704C152.045 52.8632 152.534 52.9775 152.975 53.2033Z" fill="black"/>
<path d="M156.447 51.8361C156.32 51.7114 156.233 51.5515 156.197 51.3769C156.162 51.2024 156.179 51.0212 156.248 50.8567C156.316 50.6922 156.432 50.552 156.581 50.4542C156.73 50.3563 156.905 50.3053 157.083 50.3078C157.199 50.3056 157.314 50.3271 157.421 50.3709C157.528 50.4147 157.625 50.4799 157.706 50.5625C157.872 50.7329 157.965 50.9614 157.965 51.1993C157.965 51.4372 157.872 51.6656 157.706 51.8361C157.625 51.9187 157.528 51.9839 157.421 52.0277C157.314 52.0715 157.199 52.0929 157.083 52.0908C156.965 52.0939 156.848 52.0729 156.739 52.0291C156.629 51.9853 156.53 51.9196 156.447 51.8361ZM157.768 52.984V59.7128H156.371V52.9814L157.768 52.984Z" fill="black"/>
<path d="M164.714 53.2033C165.133 53.4225 165.476 53.7632 165.699 54.1805C165.935 54.6119 166.053 55.1329 166.053 55.7437V59.7121H164.672V55.9525C164.672 55.3508 164.521 54.8889 164.219 54.5669C163.918 54.2448 163.506 54.0837 162.985 54.0837C162.464 54.0837 162.051 54.2448 161.746 54.5669C161.44 54.8889 161.287 55.3508 161.287 55.9525V59.7138H159.893V52.9808H161.287V53.7501C161.522 53.4675 161.822 53.2456 162.161 53.1031C162.517 52.9478 162.902 52.8686 163.291 52.8704C163.786 52.8632 164.274 52.9775 164.714 53.2033Z" fill="black"/>
<path d="M172.218 53.1854C172.59 53.3671 172.914 53.6328 173.165 53.9614V52.9816H174.571V59.8207C174.581 60.3964 174.446 60.9654 174.179 61.4756C173.921 61.9576 173.528 62.3543 173.049 62.6175C172.556 62.8943 171.968 63.0327 171.283 63.0327C170.371 63.0327 169.613 62.819 169.01 62.3917C168.721 62.1953 168.479 61.9374 168.301 61.6364C168.124 61.3355 168.015 60.999 167.983 60.6511H169.365C169.477 61.0092 169.719 61.3122 170.044 61.5002C170.419 61.7234 170.849 61.8356 171.285 61.8237C171.847 61.8237 172.3 61.6539 172.644 61.3142C172.987 60.9746 173.161 60.4779 173.163 59.8241V58.7008C172.888 59.0564 172.534 59.3431 172.129 59.5381C171.724 59.733 171.278 59.831 170.829 59.8241C170.262 59.8295 169.705 59.675 169.222 59.3784C168.732 59.076 168.335 58.6452 168.073 58.1328C167.784 57.5724 167.639 56.9495 167.648 56.3192C167.637 55.6945 167.783 55.077 168.073 54.5235C168.336 54.0214 168.732 53.6016 169.218 53.3107C169.705 53.0197 170.262 52.8688 170.829 52.8746C171.31 52.8651 171.787 52.9717 172.218 53.1854ZM172.878 55.1331C172.703 54.8093 172.443 54.5392 172.126 54.352C171.823 54.1743 171.476 54.0813 171.124 54.0828C170.773 54.0811 170.427 54.1718 170.122 54.346C169.805 54.528 169.545 54.7943 169.371 55.1153C169.171 55.4843 169.072 55.8991 169.084 56.3184C169.074 56.7431 169.173 57.1634 169.371 57.5393C169.544 57.8709 169.807 58.1478 170.128 58.3391C170.429 58.5191 170.774 58.6142 171.124 58.6142C171.476 58.6157 171.823 58.5228 172.126 58.3451C172.445 58.1569 172.705 57.8846 172.878 57.558C173.076 57.1839 173.175 56.7653 173.165 56.3422C173.175 55.9211 173.076 55.5046 172.878 55.1331Z" fill="black"/>
<path d="M176.623 59.5421C176.496 59.4175 176.409 59.2575 176.373 59.083C176.338 58.9084 176.355 58.7272 176.424 58.5627C176.492 58.3983 176.608 58.2581 176.757 58.1602C176.906 58.0624 177.081 58.0114 177.259 58.0138C177.375 58.0117 177.49 58.0331 177.597 58.0769C177.704 58.1207 177.801 58.1859 177.882 58.2685C178.048 58.439 178.141 58.6674 178.141 58.9053C178.141 59.1432 178.048 59.3717 177.882 59.5421C177.801 59.6247 177.704 59.6899 177.597 59.7337C177.49 59.7775 177.375 59.799 177.259 59.7968C177.141 59.7999 177.024 59.7789 176.915 59.7351C176.805 59.6913 176.706 59.6256 176.623 59.5421Z" fill="black"/>
<path d="M70.7246 26.2105L65.8279 18.8492L61.5121 26.2105H54.872L62.5754 13.9901L54.7004 2.17969H61.5121L66.3392 9.43742L70.5853 2.17969H77.2272L69.5943 14.2983L77.538 26.2105H70.7246Z" fill="black"/>
<path d="M101.197 2.17969V6.86988H94.8276V26.2105H88.973V6.86988H82.6038V2.17969H101.197Z" fill="black"/>
<path d="M124.101 21.6913H131.77V26.2099H118.247V2.18164H124.101V21.6913Z" fill="black"/>
<path d="M182.513 2.17969L173.987 26.208H166.66L158.135 2.17969H164.365L170.324 20.3232L176.315 2.17969H182.513Z" fill="black"/>
<path d="M194.222 6.86929V11.7301H202.06V16.2488H194.222V21.5206H203.09V26.2099H188.367V2.18164H203.09V6.87183L194.222 6.86929Z" fill="black"/>
<path d="M216.169 21.6913H223.838V26.2099H210.314V2.18164H216.169V21.6913Z" fill="black"/>
<path d="M34.0555 2.17969V9.04176H39.9102V6.86988H48.7778V2.17969H34.0555Z" fill="black"/>
<path d="M47.7511 11.7529H34.0555V16.2164H47.7511V11.7529Z" fill="black"/>
<path d="M39.9102 18.9268H34.0555V26.2108H48.7778V21.5215H39.9102V18.9268Z" fill="black"/>
<path d="M20.5307 11.0209V17.0704L10.739 2.17969H4.88354V26.2105H10.739V11.3886L20.5307 26.2105H26.3861V11.0209H20.5307Z" fill="black"/>
<path d="M151.698 11.7529H138.003V16.2164H151.698V11.7529Z" fill="#FB221D"/>
<path d="M143.857 18.9268H138.003V26.2108H152.725V21.5215H143.857V18.9268Z" fill="black"/>
<path d="M138.003 2.17969V9.04176H143.857V6.86988H152.725V2.17969H138.003Z" fill="black"/>
<path d="M23.5548 0.0146484L18.6836 8.45002H28.4251L23.5548 0.0146484Z" fill="#FB221D"/>
</g>
</g>
<defs>
<clipPath id="clip0">
<rect width="230" height="64" fill="white"/>
</clipPath>
<clipPath id="clip1">
<rect width="227" height="63" fill="white" transform="translate(3)"/>
</clipPath>
</defs>
</svg>
