<svg width="532" height="69" viewBox="0 0 532 69" fill="none" xmlns="http://www.w3.org/2000/svg">
<g clip-path="url(#clip0)">
<path d="M163.445 60.5735L152.129 43.5615L142.155 60.5735H126.809L144.612 32.3319L126.413 5.03809H142.155L153.31 21.8108L163.123 5.03809H178.472L160.833 33.0442L179.191 60.5735H163.445Z" fill="black"/>
<path d="M233.867 5.03809V15.8771H219.147V60.5735H205.617V15.8771H190.898V5.03809H233.867Z" fill="black"/>
<path d="M286.797 50.1288H304.521V60.5715H273.269V5.04199H286.797V50.1288Z" fill="black"/>
<path d="M421.788 5.03809L402.085 60.5676H385.152L365.45 5.03809H379.849L393.619 46.9678L407.465 5.03809H421.788Z" fill="black"/>
<path d="M448.848 15.8752V27.1086H466.962V37.5513H448.848V49.7344H469.341V60.5715H435.318V5.04199H469.341V15.881L448.848 15.8752Z" fill="black"/>
<path d="M499.567 50.1288H517.291V60.5715H486.037V5.04199H499.567V50.1288Z" fill="black"/>
<path d="M78.7026 5.03809V20.8964H92.2327V15.8771H112.726V5.03809H78.7026Z" fill="black"/>
<path d="M110.353 27.1611H78.7026V37.4763H110.353V27.1611Z" fill="black"/>
<path d="M92.2327 43.7402H78.7026V60.5737H112.726V49.7366H92.2327V43.7402Z" fill="black"/>
<path d="M47.4465 25.4702V39.4507L24.8179 5.03809H11.2859V60.5735H24.8179V26.3198L47.4465 60.5735H60.9785V25.4702H47.4465Z" fill="black"/>
<path d="M350.575 27.1611H318.925V37.4763H350.575V27.1611Z" fill="#FB221D"/>
<path d="M332.455 43.7402H318.925V60.5737H352.948V49.7366H332.455V43.7402Z" fill="black"/>
<path d="M318.925 5.03809V20.8964H332.455V15.8771H352.948V5.03809H318.925Z" fill="black"/>
<path d="M54.4352 0.0332031L43.1779 19.5274H65.6906L54.4352 0.0332031Z" fill="#FB221D"/>
</g>
<defs>
<clipPath id="clip0">
<rect width="532" height="69" fill="white"/>
</clipPath>
</defs>
</svg>
