<svg width="506" height="1104" viewBox="0 0 506 1104" fill="none" xmlns="http://www.w3.org/2000/svg">
<path d="M-290.012 -1348C-167.856 -1329.46 -81.1173 -1313.82 -33.6123 -1290.64C-4.76996 -1289.09 89.6886 -1229.34 81.5449 -1144.05C71.3653 -1037.44 -172.946 -1069.89 -172.946 -842.768C-172.946 -615.645 -15.1617 -527.577 183.341 -527.577C381.844 -527.577 463.281 -583.199 453.102 -680.538C442.922 -777.876 453.102 -889.12 295.317 -865.944C137.533 -842.768 117.174 -722.254 81.5449 -601.74C45.9162 -481.226 -40.6108 -328.266 45.9162 -128.954C132.443 70.3578 259.689 24.0062 183.341 232.588C106.994 441.17 5.19761 492.157 5.19761 733.185C5.19761 974.213 147.713 1159.62 295.317 1085.46C442.922 1011.29 504 932.497 504 890.78C504 849.064 488.731 677.563 341.126 733.185C193.521 788.807 137.533 770.266 183.341 691.469C229.15 612.671 117.174 538.509 5.19761 459.711C-106.778 380.913 -228.934 329.927 -346 339.197" stroke="#FDE61B" stroke-width="4"/>
</svg>
