<svg width="448" height="1048" viewBox="0 0 448 1048" fill="none" xmlns="http://www.w3.org/2000/svg">
<path d="M583.996 -187C541.085 -180.244 501.797 -166.266 476.723 -128.945C448.431 -86.8337 425.728 -41.6817 405.854 4.89716C383.231 57.9203 375.465 111.491 362.896 167.402C347.863 234.272 317.765 296.094 301.978 362.457C272.007 488.444 283.305 623.479 274.795 752.081C270.999 809.453 262.381 846.016 223.828 888.11C175.91 940.429 67.8234 967.536 19.3507 906.085C0.0632523 881.633 -1.25611 839.517 6.24544 810.987C11.1432 792.359 46.7602 771.26 64.1312 767.142C96.3222 759.511 148.225 763.619 178.806 791.311C195.187 806.145 205.842 815.238 218.124 828.476C238.056 849.96 242.15 897.34 250.887 927.947C259.625 958.553 265.332 970.337 278.436 992.196C310.685 1045.99 388.741 1046 446.628 1046C485.7 1046 526.503 1038.91 558.27 1014.18C584.895 993.453 608.774 962.125 631.08 936.691C646.859 918.701 658.216 897.458 667 875.479" stroke="#FDE61B" stroke-width="4" stroke-linecap="round"/>
</svg>
