<svg width="926" height="2427" viewBox="0 0 926 2427" fill="none" xmlns="http://www.w3.org/2000/svg">
<path opacity="0.7" d="M-113.125 2302.58C-110.196 2207.33 -164.58 2091.24 -41.1286 2044.74C-9.03516 2032.65 42.8396 2039.34 77.5027 2043.43C110.362 2047.3 148.935 2045.89 181.414 2042.77C256.308 2035.57 324.829 2022.24 352.964 1955.83C377.422 1898.1 382.204 1844.09 358.234 1781.9C349.148 1758.32 332.833 1737.21 323.744 1713.63C309.393 1676.39 300.523 1640.16 299.591 1601.56C298.844 1570.59 304.477 1561.38 331.864 1553.61C353.795 1547.38 370.48 1546.47 400.168 1554.89C423.659 1561.55 444.579 1573.22 461.779 1584.51C479.22 1595.96 512.545 1613.61 526.405 1627.86C535.987 1637.7 572.053 1659.86 576.506 1686.39C583.337 1727.1 548.636 1754.31 518.167 1782.09C479.91 1816.96 429.337 1856.1 372.861 1868.27C337.605 1875.87 285.86 1868.88 249.974 1859.46C234.706 1855.45 214.3 1836.58 208.06 1823.73C202.707 1812.71 204.862 1804.73 197.132 1794.24C191.393 1786.45 191.805 1770.35 192.935 1762.21C197.181 1731.6 193.173 1701.64 200.39 1671.06C207.669 1640.22 214.948 1609.37 222.227 1578.53C230.91 1541.73 247.495 1506.57 250.463 1468.62C254.423 1418.01 240.342 1377.89 221.095 1328.84C203.338 1283.59 171.671 1246.35 118.979 1227.68C95.1223 1219.23 70.7391 1213.61 47.1343 1204C27.1756 1195.88 1.35947 1190.34 -14.0068 1176.11C-35.5668 1156.15 -49.0983 1144.55 -54.3114 1117.33C-60.4085 1085.48 -66.9532 1050.46 -67.819 1018.62C-68.2934 1001.18 -60.9807 980.315 -55.4439 964.021C-42.1088 924.777 -30.1113 886.224 -18.4875 846.405C6.00023 762.521 47.5304 681.805 78.2856 599.855C104.442 530.16 116.626 460.508 118.342 385.722C119.037 355.42 118.664 329.612 105.215 300.57C98.8805 286.892 -61.0638 16.092 -63.0814 2.00002" stroke="#3F4E4F" stroke-width="2" stroke-linecap="round"/>
</svg>
