<svg width="450" height="1652" viewBox="0 0 450 1652" fill="none" xmlns="http://www.w3.org/2000/svg">
<path d="M442.175 1640.03C461.083 1566.29 525.547 1492.87 437.518 1430.34C414.634 1414.09 371.794 1407.95 343.253 1403.55C316.197 1399.39 285.768 1389.91 260.576 1380.46C202.485 1358.66 150.843 1333.53 143.228 1276.45C136.608 1226.82 144.843 1184.33 177.82 1141.81C190.319 1125.69 208.031 1113.03 220.536 1096.91C240.28 1071.45 255.43 1045.57 264.781 1016.15C272.284 992.539 277.463 984.85 249.753 972.327C232.738 964.637 207.911 953.071 187.271 958.867C170.694 963.523 156.555 972.347 140.327 977.274C123.873 982.269 101.665 987.003 87.4403 994.921C68.5067 1005.46 43.198 1002.75 33.7324 1022.15C19.2089 1051.9 32.2083 1079.25 50.2996 1107.19C73.0151 1142.27 104.596 1183.3 146.897 1204.92C173.304 1218.41 216.107 1224.3 246.812 1224.87C259.875 1225.11 280.348 1215.07 288.187 1206.56C294.912 1199.26 294.974 1192.67 303.476 1186.3C309.788 1181.57 313.049 1169.12 313.965 1162.62C317.406 1138.21 327.283 1116.09 328.351 1091.05C329.428 1065.79 330.506 1040.54 331.583 1015.29C332.868 985.158 327.492 954.562 333.588 924.796C341.72 885.091 361.89 857.362 388.171 823.9C412.416 793.029 445.962 771.332 492.126 768.456C513.026 767.154 533.715 768.138 554.673 765.895C572.393 763.999 594.204 765.363 609.626 757.782C631.263 747.145 644.635 741.186 654.862 721.424C666.824 698.31 679.851 672.855 687.642 648.608C691.911 635.321 690.735 617.718 689.956 604.009C688.079 570.991 687.115 538.794 686.73 505.707C685.921 436.003 670.82 365.027 664.583 295.445C659.279 236.269 665.101 180.163 680.413 122.392C686.617 98.9841 692.67 79.2579 709.867 59.8914C717.966 50.7705 732.297 41.7421 737.048 31.3651" stroke="white" stroke-width="4" stroke-linecap="round"/>
</svg>
