<svg width="544" height="1140" viewBox="0 0 544 1140" fill="none" xmlns="http://www.w3.org/2000/svg">
<path d="M-770.253 261.441C-736.871 233.644 -700.451 213.334 -655.86 219.104C-605.547 225.616 -556.635 238.334 -508.517 254.12C-453.742 272.09 -408.355 301.588 -358.04 329.019C-297.864 361.827 -231.545 379.982 -171.251 411.889C-56.7878 472.463 37.2549 570.023 139.528 648.452C185.154 683.441 218.319 701.081 275.387 699.868C346.318 698.361 437.986 635.001 423.77 558.035C418.114 527.41 387.328 498.638 360.937 485.458C343.705 476.853 304.353 489.706 289.801 500.046C262.832 519.209 231.685 560.929 232.328 602.181C232.672 624.277 232.479 638.283 234.328 656.246C237.328 685.398 270.24 719.727 287.482 746.482C304.723 773.237 309.816 785.3 317.602 809.567C336.763 869.289 285.286 927.963 247.104 971.472C221.332 1000.84 189.088 1026.83 149.547 1034.4C116.408 1040.74 77.1108 1038.02 43.2809 1038.01C19.3513 1038 -4.10632 1032.53 -26.4203 1024.63" stroke="#FDE61B" stroke-width="4" stroke-linecap="round"/>
</svg>
