<svg width="491" height="1319" viewBox="0 0 491 1319" fill="none" xmlns="http://www.w3.org/2000/svg">
<path d="M1313.63 440.441C1280.25 412.644 1243.83 392.334 1199.24 398.104C1148.93 404.616 1100.01 417.334 1051.9 433.12C997.121 451.09 951.734 480.588 901.419 508.019C841.243 540.827 774.924 558.982 714.63 590.889C600.167 651.463 506.124 749.023 403.851 827.452C358.225 862.441 325.06 880.081 267.992 878.868C197.061 877.361 105.393 814.001 119.609 737.035C125.265 706.41 156.05 677.638 182.442 664.458C199.674 655.853 239.025 668.706 253.578 679.046C280.547 698.209 311.694 739.929 311.051 781.181C310.707 803.277 310.9 817.283 309.051 835.246C306.05 864.398 273.139 898.727 255.897 925.482C238.656 952.237 233.563 964.3 225.777 988.567C206.615 1048.29 258.093 1106.96 296.275 1150.47C322.047 1179.84 354.291 1205.83 393.831 1213.4C426.971 1219.74 466.268 1217.02 500.098 1217.01C524.028 1217 547.485 1211.53 569.799 1203.63" stroke="#FDE61B" stroke-width="4" stroke-linecap="round"/>
</svg>
