<svg width="768" height="1764" viewBox="0 0 768 1764" fill="none" xmlns="http://www.w3.org/2000/svg">
<path opacity="0.5" d="M-46.512 109.96C-42.2872 179.518 -77.845 261.586 16.4065 291.354C40.9089 299.093 79.9597 292.418 106.062 288.236C130.805 284.271 159.978 283.981 184.582 285.147C241.317 287.837 293.368 295.236 316.027 342.835C335.724 384.214 340.478 423.55 323.681 469.859C317.315 487.411 305.435 503.412 299.066 520.971C289.01 548.697 283.074 575.499 283.185 603.759C283.274 626.435 280.92 634.588 308.58 637.721C325.564 639.645 350.443 642.754 366.8 631.909C379.936 623.2 389.779 611.542 402.535 602.694C415.47 593.722 433.492 583.364 443.663 572.471C457.201 557.973 480.013 553.228 482.816 533.672C487.118 503.667 468.115 483.492 444.509 464.226C414.869 440.035 375.834 413.148 332.908 406.188C306.111 401.842 267.165 408.731 240.252 416.854C228.801 420.31 213.782 434.808 209.339 444.42C205.528 452.665 207.325 458.426 201.706 466.367C197.535 472.261 198.186 484.018 199.212 489.937C203.066 512.174 200.671 534.222 206.769 556.341C212.92 578.648 219.071 600.954 225.221 623.261C232.559 649.872 245.832 675.022 248.876 702.669C252.936 739.548 243.145 769.37 229.64 805.904C217.18 839.608 194.041 867.929 154.626 883.394C136.781 890.395 118.478 895.346 100.847 903.183C85.9394 909.809 66.5519 914.744 55.243 925.678C39.3758 941.02 29.3975 949.966 26.034 970.056C22.1001 993.553 17.8951 1019.39 17.9134 1042.7C17.9234 1055.48 23.8889 1070.49 28.4162 1082.21C39.3198 1110.45 49.1984 1138.24 58.8213 1166.96C79.0938 1227.47 112.175 1285.07 137.142 1343.95C158.375 1394.02 169.052 1444.54 171.927 1499.17C173.092 1521.31 146.69 1610.8 137.142 1632.5C103.661 1708.6 -31.774 1750.62 -33.0007 1761" stroke="#FDE61B" stroke-width="4" stroke-linecap="round"/>
</svg>
