<svg width="601" height="1941" viewBox="0 0 601 1941" fill="none" xmlns="http://www.w3.org/2000/svg">
<path d="M-14.6396 5.13808C78.6373 26.2802 144.732 43.2036 180.112 63.7355C202.295 66.5434 271.88 117.911 260.819 183.213C246.992 264.841 60.1787 226.131 47.4661 401.25C34.7534 576.369 151.647 653.116 304.908 664.241C458.17 675.367 524.16 637.046 521.748 561.424C519.337 485.803 533.423 400.601 410.303 409.626C287.183 418.652 264.718 510.431 230.464 601.354C196.21 692.277 120.842 805.365 176.492 963.89C232.143 1122.42 332.982 1093.81 262.36 1250.35C191.738 1406.9 110.289 1440.5 96.798 1626.35C83.307 1812.19 182.963 1963.13 301.078 1914.22C419.192 1865.31 470.76 1807.98 473.095 1775.81C475.43 1743.65 473.24 1610.56 356.163 1645.17C239.086 1679.79 196.897 1662.35 236.675 1604.17C276.454 1545.98 194.15 1482.52 112.105 1415.49C30.0604 1348.46 -61.4004 1302.3 -152.304 1302.88" stroke="#FDE61B" stroke-width="4"/>
</svg>
