<svg width="1791" height="1559" viewBox="0 0 1791 1559" fill="none" xmlns="http://www.w3.org/2000/svg">
<path d="M-52 42C15.2098 20.4929 85.5313 2 156.222 2C176.861 2 200.467 2.84368 220.444 8.22222C251.053 16.463 281.306 10.1667 312 14.8889C333.41 18.1828 354.309 18 376 18C393.245 18 401.379 12.0216 418.222 20C466.464 42.8513 512.154 74.4109 546 115.778C578.769 155.829 546.453 215.026 536 258C521.913 315.912 511.885 368.248 483.778 419.778C472.49 440.471 443.688 453.989 429.778 474.222C418.579 490.512 398.9 502.879 380.889 510C333.701 528.656 322.11 502.285 304.889 458.889C286.959 413.705 276.433 368.174 296.222 322C313.206 282.371 365.881 239.966 412 250.889C487.485 268.767 519.647 325.832 561.778 380C592.448 419.434 639.379 472.109 688 492C709.658 500.86 738.302 502.671 757.556 516C776.327 528.995 793.888 529.575 816 530C830.25 530.274 843.793 534 858.222 534C879.414 534 902.218 524.668 922.222 518C949.199 509.008 976.741 501.437 1003.11 490.889C1015.59 485.898 1029.64 485.552 1041.78 480.222C1053.9 474.901 1066.59 467.712 1080 466.222C1096.41 464.399 1105.67 469.956 1120.44 476C1152.38 489.064 1189.27 489.479 1223.11 490C1285.55 490.961 1343.24 522 1406.22 522C1468.19 522 1521.59 493.679 1585.11 497.778C1606.78 499.176 1627.15 504.022 1648.22 505.778C1665.08 507.182 1680.83 506.489 1693.78 518C1700.29 523.792 1709.12 523.503 1716 530C1724.06 537.611 1730.3 544.304 1738 552C1761.3 575.303 1773.1 618.834 1780.89 650C1789.21 683.301 1781.05 717.639 1751.11 736.222C1712.78 760.011 1660.66 756.322 1625.78 786.222C1605.83 803.323 1573.24 807.315 1548 812.222C1505.43 820.499 1461.95 822.9 1420 832.222C1392.17 838.407 1355.68 836.068 1328 830C1294.33 822.62 1258.35 826 1224 826C1173.43 826 1127.75 794 1078.44 794C1008.33 794 940.728 802 870.222 802C833.949 802 798.013 806 762 806C730.535 806 723.468 809.244 698 826.222C668.033 846.2 636.948 890.948 666 920C681.529 935.529 676.115 959.403 692 976.222C704.973 989.959 712.691 1005.91 727.111 1018.89C744.131 1034.21 776.501 1038 798.222 1038C833.275 1038 864.927 1022 900 1022C941.912 1022 988.389 1016.38 1029.56 1024C1057.78 1029.23 1090.95 1014.32 1118 1006C1141.41 998.798 1167.71 978.991 1192 978C1220.83 976.823 1266.15 962.324 1290 943.778C1306.43 930.997 1334.8 930 1355.11 930C1399.52 930 1442.95 928.391 1484 947.778C1503.16 956.827 1559.25 962.154 1580 951.778C1611.5 936.027 1649.16 947.117 1680 958C1705.62 967.043 1738.57 980.575 1758 1000C1785.6 1027.6 1788 1086 1788 1122C1788 1131.22 1790.87 1146.66 1787.56 1155.78C1785.44 1161.6 1776.06 1163.43 1772 1168C1760.74 1180.67 1739.34 1181.18 1725.33 1190C1708.22 1200.78 1686.91 1198.04 1668 1202.89C1650.12 1207.47 1638.37 1210 1619.56 1210C1576.3 1210 1534.37 1222.25 1492.89 1234C1438.86 1249.31 1384.12 1256.16 1329.33 1269.56C1225.25 1295 1111.12 1287.25 1008.89 1319.78C993.496 1324.68 978.793 1320.64 963.778 1315.78C943.704 1309.28 911.329 1302.18 896 1286C879.05 1268.11 881.35 1247.47 902 1236C915.373 1228.57 944.297 1227.81 953.778 1240C967.518 1257.67 975.801 1274.36 964.889 1294C954.458 1312.78 923.508 1330 902 1330C882.075 1330 864.289 1334 844 1334C817.659 1334 794.08 1330 768 1330C743.984 1330 713.807 1318.84 690 1328C650.433 1343.22 546 1315.78 463 1423C376 1511 213.272 1543.64 240 1557" stroke="#FDE61B" stroke-width="3" stroke-linecap="round"/>
</svg>
