<svg width="620" height="1561" viewBox="0 0 620 1561" fill="none" xmlns="http://www.w3.org/2000/svg">
<path opacity="0.5" d="M4.75858 61.1841C0.351854 130.731 -45.0788 207.773 44.7697 248.965C68.1274 259.673 107.704 257.878 134.123 256.954C159.166 256.079 188.151 259.398 212.422 263.597C268.39 273.279 319.127 287.056 335.727 337.091C350.158 380.588 350.012 420.211 327.62 464.087C319.132 480.718 305.365 495.127 296.875 511.764C283.468 538.034 274.264 563.897 270.881 591.953C268.166 614.467 264.822 622.266 291.882 628.795C308.498 632.804 332.802 638.964 350.374 630.225C364.486 623.206 375.694 612.855 389.447 605.651C403.392 598.348 422.556 590.297 433.995 580.745C449.222 568.032 472.446 566.143 477.645 547.084C485.623 517.841 469.261 495.471 448.217 473.435C421.795 445.766 386.383 414.259 344.647 402.045C318.593 394.421 279.094 396.442 251.383 401.175C239.593 403.189 222.897 415.719 217.3 424.708C212.498 432.418 213.569 438.358 207.012 445.543C202.144 450.876 201.337 462.623 201.623 468.624C202.699 491.167 197.596 512.75 200.913 535.453C204.259 558.349 207.605 581.245 210.951 604.141C214.942 631.455 225.004 658.053 224.607 685.863C224.077 722.962 210.674 751.345 192.756 785.928C176.225 817.834 149.763 843.077 108.738 853.55C90.1643 858.292 71.3896 860.942 52.9252 866.539C37.3129 871.272 17.464 873.772 4.89005 883.224C-12.752 896.487 -23.7597 904.13 -29.5811 923.651C-36.3896 946.481 -43.7563 971.6 -46.6203 994.737C-48.1897 1007.42 -44.1253 1023.04 -41.0824 1035.24C-33.7538 1064.61 -27.3857 1093.41 -21.3873 1123.1C-8.75048 1185.65 16.9559 1246.9 34.4525 1308.41C49.3327 1360.72 53.6821 1412.17 49.7812 1466.75C48.2006 1488.86 46.127 1507.63 33.9698 1527.99C28.2442 1537.57 16.8986 1548.14 14.3986 1558.28" stroke="#FDE61B" stroke-width="4" stroke-linecap="round"/>
</svg>
