<svg width="194" height="194" fill="none" xmlns="http://www.w3.org/2000/svg"><g clip-path="url(#clip0)"><path d="M39.182 96.422S59.114 41.144 60.983 39.59c1.869-1.553 18.358-15.939 18.973-14.4.616 1.539 3.055 25.482 3.055 25.482l-23.87 57.504-19.96-11.755z" fill="#FBFCFF"/><path d="M59.142 108.609a.428.428 0 01-.22-.06l-19.96-11.756a.433.433 0 01-.186-.52c2.043-5.668 20.027-55.433 21.931-57.016.237-.196.706-.598 1.349-1.147 11.05-9.44 16.34-13.467 17.69-13.467.287 0 .515.144.612.386.62 1.55 2.834 23.143 3.084 25.599a.435.435 0 01-.03.21l-23.87 57.504a.43.43 0 01-.4.267zM39.71 96.229l19.222 11.323L82.57 50.607c-.942-9.244-2.463-23.095-2.962-25.08-.99.241-4.825 2.848-16.99 13.24-.648.553-1.12.958-1.359 1.155C59.873 41.25 47.661 74.191 39.71 96.23z" fill="#3F4E4F"/><path d="M82.31 41.084L67.007 33.9s12.191-10.814 13.06-10.51c1.736.607 2.243 17.694 2.243 17.694z" fill="#3F4E4F"/><path d="M60.625 39.342l5.004 9.371 7.49-2.578 2.022 5.609s6.73-2.818 8.27-.907c1.538 1.91-23.207 56.093-23.207 56.093s-22.718-9.244-21.883-11.305c.836-2.061 20.531-58.226 22.304-56.283z" fill="#FDE61B"/><path d="M45.293 102.398l-.042-.001a.423.423 0 01-.389-.445c.09-1.465 18.496-48.74 20.594-54.125a.433.433 0 01.806.314c-5.639 14.472-20.32 52.362-20.538 53.876a.445.445 0 01-.431.381zm8.705 5.923a.433.433 0 01-.405-.585L75.024 51.2a.433.433 0 01.809.306l-21.43 56.535a.432.432 0 01-.404.28z" fill="#3F4E4F"/><path d="M62.384 100.775S41.26 90.023 40.35 90.369c-.91.347-4.764 13.866-3.474 15.058 1.29 1.192 17.91 10.011 19.48 7.452 1.57-2.559 6.03-12.104 6.03-12.104z" fill="#fff"/><path d="M55.111 113.774c-4.353 0-17.319-6.912-18.53-8.03-.236-.218-.787-.727.031-4.952.575-2.966 2.541-10.432 3.583-10.828a.817.817 0 01.212-.036c1.543 0 18.741 8.715 22.173 10.462a.432.432 0 01.196.568c-.183.39-4.487 9.596-6.052 12.147-.273.444-.815.669-1.613.669zM40.476 90.801c-.913 1.064-4.2 13.277-3.305 14.31.992.917 13.762 7.799 17.94 7.799.464 0 .775-.091.876-.258 1.363-2.22 4.983-9.884 5.828-11.681-7.709-3.918-19.85-9.908-21.339-10.17z" fill="#3F4E4F"/><path d="M61.597 105.839S39.815 94.776 38.322 95.624c-1.493.849-4.157 12.794-4.157 12.794s21.986 9.024 22.695 8.193c.709-.83 4.737-10.772 4.737-10.772z" fill="#FDE7E6"/><path d="M94.219 159.549s-.831-6.31 5.242-4.268c6.074 2.042 4.095 7.819 1.779 5.842-2.315-1.977 2.029-8.682 6.677-5.697 4.648 2.986 3.608 8.78.312 9.207-3.297.428 1.995-6.746 6.148-2.315 4.153 4.43-4.914 12.506-8.622 9.537-3.709-2.97-.807-7.763.083-4.842.89 2.921-1.509 5.786-8.086 5.673-6.577-.114-3.584-10.232-1.285-7.287 2.3 2.946-1.517 6.27-6.157 2.8-4.639-3.47.654-10.643 3.909-8.65zM10.38 58.7s-1.304-6.229 4.905-4.65c6.21 1.579 4.672 7.489 2.214 5.692-2.458-1.797 1.37-8.81 6.23-6.183 4.858 2.627 4.258 8.482 1.003 9.157-3.255.674 1.482-6.877 5.957-2.772 4.474 4.105-3.96 12.841-7.88 10.16-3.922-2.683-1.389-7.68-.282-4.835 1.107 2.846-1.07 5.883-7.636 6.265-6.566.382-4.343-9.933-1.83-7.169 2.515 2.764-1.04 6.366-5.928 3.255-4.888-3.11-.15-10.662 3.246-8.92z" fill="#fff"/><path d="M79.341 71.156s59.49-22.784 62.022-17.088c5.56 12.51 19.38 76.323 9.493 79.426-9.887 3.104-54.427 11.709-55.377 12.341-3.745 2.497-56.184 17.587-56.184 17.587S18.8 85.059 20.8 80.332c2-4.726 58.541-9.176 58.541-9.176z" fill="#B2B2B2"/><path d="M82.19 83.498s20.899-27.036 55.649-21.14c0 0 15.115 64.078 11.751 65.441-3.363 1.363-56.53 10.309-56.53 10.309s-44.737 22.651-49.03 13.547c-4.292-9.104-15.705-65.287-15.705-65.287 28.642-13.058 53.864-2.87 53.864-2.87z" fill="#fff"/><path d="M49.184 154.245c-2.926 0-4.791-.809-5.544-2.406-4.266-9.045-15.272-63.089-15.74-65.385a.434.434 0 01.245-.48c9.742-4.44 20.13-6.693 30.876-6.693 12.364 0 21.306 3.065 23.029 3.702 2.02-2.45 18.924-21.897 45.946-21.897 3.266 0 6.602.285 9.915.847.171.03.309.158.349.326.037.16 3.818 16.211 7.139 32.222 6.79 32.731 5.145 33.399 4.354 33.719-3.34 1.353-53.597 9.825-56.556 10.323-1.938.979-31.353 15.722-44.013 15.722zM28.819 86.62c.958 4.692 11.555 56.264 15.604 64.851.598 1.267 2.2 1.909 4.762 1.909 12.61 0 43.372-15.5 43.68-15.658a.453.453 0 01.124-.04c.531-.09 53.159-8.954 56.44-10.284 1.954-1.857-6.258-40.524-11.944-64.66a58.543 58.543 0 00-9.489-.787c-28.257 0-45.295 21.593-45.464 21.811a.433.433 0 01-.504.137c-.093-.038-9.459-3.753-23.007-3.753-10.505 0-20.665 2.178-30.203 6.474z" fill="#3F4E4F"/><path d="M94.53 134.244a.433.433 0 01-.401-.272c-1.262-3.154-11.3-42.37-11.726-44.038a.432.432 0 01.838-.215c.104.408 10.45 40.829 11.69 43.932a.433.433 0 01-.4.593z" fill="#3F4E4F"/><path d="M35.766 95.913s11.394-4.457 19.938-4.774c8.544-.316 16.146.791 19.943.791" fill="#fff"/><path d="M35.766 96.346a.432.432 0 01-.158-.835c.115-.045 11.56-4.487 20.08-4.803 5.547-.204 10.603.178 14.665.488 2.129.162 3.968.303 5.294.303a.432.432 0 110 .864c-1.359 0-3.213-.14-5.36-.305-4.04-.307-9.07-.691-14.568-.486-8.37.31-19.683 4.699-19.796 4.744a.428.428 0 01-.157.03z" fill="#3F4E4F"/><path d="M38.095 103.956s19.303-7.595 41.77-4.747l-41.77 4.747z" fill="#fff"/><path d="M38.095 104.388a.432.432 0 01-.158-.835c.194-.078 19.664-7.6 41.983-4.774.236.03.404.247.374.483a.427.427 0 01-.483.376c-22.1-2.803-41.365 4.644-41.558 4.719a.419.419 0 01-.158.031z" fill="#3F4E4F"/><path d="M48.402 132.839s17.972-8.705 35.943-7.507l-35.943 7.507z" fill="#fff"/><path d="M48.403 133.272a.432.432 0 01-.19-.821c.181-.088 18.28-8.748 36.16-7.55a.433.433 0 01.403.46.422.422 0 01-.46.403c-17.652-1.185-35.547 7.379-35.726 7.466a.43.43 0 01-.187.042z" fill="#3F4E4F"/><path d="M51.3 141.012s17.04-7.328 36.064-9.213L51.3 141.012z" fill="#fff"/><path d="M51.3 141.444a.433.433 0 01-.172-.829c.171-.074 17.32-7.377 36.193-9.247.24-.011.45.15.472.388a.433.433 0 01-.387.473c-18.741 1.856-35.766 9.107-35.936 9.179a.413.413 0 01-.17.036z" fill="#3F4E4F"/><path d="M42.14 113.504s18.484-7.557 36.345-5.231l-36.345 5.231z" fill="#fff"/><path d="M42.14 113.936a.432.432 0 01-.163-.832c.186-.077 18.796-7.574 36.563-5.26a.432.432 0 01-.111.857c-17.543-2.281-35.94 5.129-36.125 5.203a.41.41 0 01-.164.032z" fill="#3F4E4F"/><path d="M44.518 121.84s17.467-6.241 36.572-6.926l-36.572 6.926z" fill="#fff"/><path d="M44.518 122.271a.432.432 0 01-.146-.84c.176-.062 17.75-6.271 36.702-6.951.237.005.44.178.448.418a.432.432 0 01-.417.447c-18.815.674-36.268 6.839-36.442 6.9a.435.435 0 01-.145.026z" fill="#3F4E4F"/><path d="M130.293 75.546s-12.233-.182-20.346 2.516c-8.112 2.698-14.844 6.4-18.4 7.731" fill="#fff"/><path d="M91.546 86.226a.433.433 0 01-.151-.838c1.242-.464 2.915-1.24 4.853-2.138 3.696-1.713 8.295-3.845 13.563-5.598 8.089-2.69 20.368-2.535 20.489-2.538.239.003.429.2.426.44-.004.237-.227.4-.439.425-.122.001-12.255-.149-20.203 2.494-5.221 1.736-9.796 3.857-13.472 5.562-1.954.905-3.641 1.688-4.913 2.164a.436.436 0 01-.153.027z" fill="#3F4E4F"/><path d="M132.987 84.247s-20.74-.347-40.784 10.195l40.784-10.195z" fill="#fff"/><path d="M92.204 94.874a.431.431 0 01-.202-.815c19.91-10.472 40.784-10.25 40.992-10.243.239.004.429.2.426.44-.005.239-.188.442-.44.424-.21.005-20.867-.22-40.575 10.144a.43.43 0 01-.201.05z" fill="#3F4E4F"/><path d="M136.406 113.229s-19.882-1.854-36.294 5.566l36.294-5.566z" fill="#fff"/><path d="M100.112 119.227a.433.433 0 01-.179-.827c16.327-7.38 36.313-5.621 36.513-5.602a.433.433 0 01.391.47.44.44 0 01-.471.391c-.196-.018-19.962-1.757-36.076 5.529a.433.433 0 01-.178.039z" fill="#3F4E4F"/><path d="M137.398 123.159s-18.527-.891-37.005 4.011l37.005-4.011z" fill="#fff"/><path d="M100.393 127.602a.433.433 0 01-.111-.85c18.332-4.862 36.951-4.035 37.137-4.025a.433.433 0 01.412.453c-.012.239-.212.44-.453.41-.184-.006-18.678-.829-36.874 3.998a.428.428 0 01-.111.014z" fill="#3F4E4F"/><path d="M132.546 94.607s-19.96-.6-35.873 7.838l35.873-7.838z" fill="#fff"/><path d="M96.673 102.879a.432.432 0 01-.203-.814c15.833-8.395 35.886-7.897 36.088-7.889a.433.433 0 01-.026.865c-.2-.008-20.032-.498-35.656 7.787a.421.421 0 01-.203.051z" fill="#3F4E4F"/><path d="M133.241 103.248s-18.547.277-36.68 6.332l36.68-6.332z" fill="#fff"/><path d="M96.56 110.013a.433.433 0 01-.137-.843c17.99-6.006 36.625-6.351 36.811-6.354.222.005.435.188.439.426a.432.432 0 01-.426.439c-.184.003-18.691.347-36.55 6.31a.435.435 0 01-.136.022z" fill="#3F4E4F"/><path d="M11.591 136.688s17.31-15.611 36.691-4.464c20.951 12.05 10.145 32.308 12.294 35.157 2.148 2.849 9.084-2.25 9.403-.495.99 5.444-15.733 21.054-40.19 19.688-26.743-1.493-41.483-31.293-18.198-49.886z" fill="#FDE61B"/><path d="M32.08 177.43c-5.38 0-9.593-8.701-9.593-19.808s4.214-19.808 9.593-19.808c5.38 0 9.594 8.701 9.594 19.808S37.46 177.43 32.08 177.43zm0-38.751c-4.813 0-8.728 8.498-8.728 18.943 0 10.445 3.915 18.943 8.728 18.943 4.814 0 8.73-8.498 8.73-18.943 0-10.445-3.916-18.943-8.73-18.943z" fill="#3F4E4F"/><path d="M41.35 169.657c-4.19 0-9.182-1.139-14.057-3.206-10.765-4.565-17.553-12.021-15.452-16.974 1.066-2.513 4.221-3.897 8.886-3.897 4.19 0 9.182 1.139 14.057 3.206 10.765 4.565 17.553 12.02 15.453 16.973-1.066 2.513-4.222 3.898-8.887 3.898zm-20.623-23.212c-4.233 0-7.182 1.229-8.09 3.37-1.88 4.432 4.847 11.537 14.994 15.84 4.77 2.023 9.643 3.137 13.72 3.137 4.233 0 7.181-1.229 8.09-3.371 1.879-4.431-4.847-11.536-14.994-15.839-4.771-2.023-9.644-3.137-13.72-3.137z" fill="#3F4E4F"/><path d="M21.72 170.155c-3.697 0-6.334-1.137-7.426-3.2-1.23-2.322-.414-5.516 2.296-8.991 2.636-3.382 6.772-6.665 11.645-9.245 5.375-2.844 11.022-4.477 15.493-4.477 3.696 0 6.333 1.137 7.426 3.2 1.229 2.322.413 5.516-2.297 8.992-2.636 3.381-6.772 6.664-11.645 9.244-5.375 2.845-11.022 4.477-15.493 4.477zm22.008-25.049c-4.335 0-9.834 1.596-15.088 4.377-4.768 2.524-8.805 5.725-11.368 9.011-2.488 3.192-3.275 6.053-2.214 8.056.935 1.766 3.3 2.74 6.66 2.74 4.336 0 9.835-1.596 15.09-4.377 4.767-2.524 8.804-5.724 11.367-9.011 2.488-3.192 3.275-6.052 2.215-8.055-.936-1.767-3.302-2.741-6.662-2.741z" fill="#3F4E4F"/><path d="M31.168 162.396a4.317 4.317 0 100-8.635 4.317 4.317 0 000 8.635z" fill="#FDE7E6"/><path d="M16.215 149.549a2.948 2.948 0 100-5.896 2.948 2.948 0 000 5.896z" fill="#B2B2B2"/><path d="M28.5 179.314a2.948 2.948 0 10.002-5.895 2.948 2.948 0 00-.002 5.895zm21.201-29.765a2.948 2.948 0 100-5.896 2.948 2.948 0 000 5.896z" fill="#3F4E4F"/><path d="M183.146 105.137s-42.564 40.513-44.93 41.065c-2.366.552-23.549 6.037-23.411 4.386.138-1.652 8.672-24.155 8.672-24.155l47.082-40.742 12.587 19.446z" fill="#FBFCFF"/><path d="M115.743 151.329c-.644 0-1.007-.095-1.211-.316a.604.604 0 01-.158-.461c.139-1.664 7.823-21.963 8.699-24.272a.422.422 0 01.121-.173l47.081-40.742a.432.432 0 01.646.092l12.588 19.445a.432.432 0 01-.065.548c-4.366 4.155-42.719 40.61-45.13 41.173-.299.07-.899.218-1.719.422-5.172 1.282-17.285 4.284-20.852 4.284zm-.474-.895c.092.016.241.03.474.03 3.461 0 15.945-3.094 20.644-4.258.826-.205 1.43-.354 1.73-.425 1.835-.566 27.498-24.559 44.472-40.709l-12.124-18.728-46.622 40.345c-3.29 8.675-8.119 21.716-8.574 23.745z" fill="#3F4E4F"/><path d="M119.678 135.33l10.605 13.265s-15.741 4.214-16.382 3.554c-1.282-1.32 5.777-16.819 5.777-16.819zm18.726 11.264l-.258-10.63-7.852-1.046.702-5.921s-7.344-.423-7.865-2.82c-.521-2.398 45.919-39.847 45.919-39.847s16.18 18.434 14.51 19.903c-1.67 1.469-44.441 42.892-45.156 40.361z" fill="#3F4E4F"/><path d="M137.831 136.946a.427.427 0 01-.32-.143.43.43 0 01.03-.61c11.519-10.418 41.606-37.732 42.477-38.988a.441.441 0 01.593-.128.423.423 0 01.149.572c-.736 1.27-38.352 35.309-42.639 39.185a.43.43 0 01-.29.112zm-7.319-7.297a.433.433 0 01-.293-.751l44.466-40.967a.433.433 0 01.586.637l-44.466 40.967a.433.433 0 01-.293.114z" fill="#323F40"/><path d="M163.532 90.441s14.893 19.488 15.863 19.585c.97.098 10.466-10.267 9.846-11.91-.621-1.643-13.331-16.703-15.88-15.116-2.55 1.586-9.829 7.441-9.829 7.441z" fill="#fff"/><path d="M179.409 110.46a.585.585 0 01-.058-.004c-.955-.096-9.317-10.794-16.162-19.752a.431.431 0 01.072-.6c.299-.24 7.329-5.89 9.871-7.471.195-.121.424-.182.683-.182 3.705 0 15.253 13.982 15.83 15.512.142.376.125 1.068-1.28 3.1-2.203 3.185-7.824 9.397-8.956 9.397zm-15.276-19.946c5.41 7.071 13.99 18.024 15.316 19.049 1.511-.74 9.72-9.99 9.386-11.298-.578-1.531-12.013-14.95-15.02-14.95a.423.423 0 00-.226.052c-2.191 1.363-8.009 5.99-9.456 7.147z" fill="#3F4E4F"/><path d="M167.391 86.843s14.866 19.674 16.581 19.584c1.715-.09 10.028-10.09 10.028-10.09s-16.62-17.594-17.626-17.17c-1.005.426-8.983 7.676-8.983 7.676zM149.698 1.167s-27.871-3.113-38.993 21.38c-12.023 26.477 14.992 36.695 14.891 40.987-.102 4.293-8.242 6.769-8.292 8.915-.051 2.146 32.097 7.295 55.044-11.2 25.09-20.22 13.153-58.246-22.65-60.082z" fill="#FDE7E6"/><path d="M165.928 31.928c2.929 11.729-8.949 15.203-10.387 18.47-1.438 3.269.35 5.225-1.817 5.135-2.166-.09-15.122-1.231-14.906-2.958.217-1.728-1.223-4.582-2.072-5.052-.848-.47-16.356-5.365-10.272-17.947 10.021-20.725 35.666-12.82 39.454 2.352z" fill="#FDE61B"/><path d="M143.362 55.054s-.698 7.118.536 7.97c1.234.854 6.238.76 6.569-.763.33-1.523-.148-7.452-1.076-7.624-.928-.172-6.163-1.192-6.029.417z" fill="#fff"/><path d="M146.718 63.996c-1.363 0-2.509-.23-3.066-.615-1.338-.926-.89-6.64-.72-8.369-.026-.22.066-.49.263-.705.363-.395 1.053-.579 2.172-.579 1.512 0 3.402.354 4.024.47a.903.903 0 01.632.425c.852 1.282 1.156 6.398.866 7.73-.263 1.212-2.327 1.643-4.171 1.643zm-1.351-9.402c-1.17 0-1.471.228-1.537.3-.028.03-.043.06-.037.125-.324 3.38-.281 7.213.351 7.65.4.277 1.434.463 2.574.463 1.951 0 3.223-.489 3.326-.962.349-1.607-.213-6.67-.791-7.13-.623-.104-2.454-.446-3.886-.446zm-2.707-.825a.433.433 0 01-.394-.254c-.019-.041-1.893-4.174-3.29-8.464-1.973-6.054-2.067-9.401-.286-10.232.929-.433 1.921-.285 2.866.398a5.412 5.412 0 01.779-1.66c.577-.803 2.253-2.442 5.335-.282.476.333.897.675 1.269 1.02.807-.822 1.806-1.327 2.733-1.305.798.007 1.924.37 2.751 2.06 1.402 2.869.136 6.55-1.089 10.11-.98 2.846-1.904 5.533-1.481 7.655a.432.432 0 11-.848.17c-.469-2.352.492-5.147 1.51-8.106 1.168-3.394 2.375-6.903 1.131-9.448-.35-.715-.977-1.567-1.982-1.576-.71-.016-1.471.395-2.115 1.055 1.598 1.759 1.99 3.53 1.758 4.695-.159.808-.627 1.374-1.251 1.514-.411.09-1.227.067-2.101-1.118-.825-1.118-.85-2.702-.067-4.237.145-.285.311-.555.491-.806a10.931 10.931 0 00-1.206-.975c-1.237-.867-2.961-1.559-4.137.08-.355.493-.603 1.122-.749 1.8.259.272.513.586.757.94 1.018 1.478 2.041 4.05 1.23 4.838-.24.231-.68.39-1.429-.162-1.269-.935-1.8-3.234-1.492-5.318-.629-.556-1.438-.962-2.298-.558-2.397 1.119 1.18 11.36 3.998 17.554a.432.432 0 01-.393.612zm-.52-16.743c-.071 1.557.35 3.118 1.218 3.758.166.122.272.17.33.19.143-.465-.367-2.394-1.548-3.948zm6.853-1.434a5.271 5.271 0 00-.335.565c-.631 1.237-.634 2.483-.007 3.331.419.57.873.868 1.217.787.279-.063.501-.376.592-.838.197-.994-.223-2.427-1.467-3.845z" fill="#3F4E4F"/><path d="M139.351 50.994s16.017.333 16.12 1.072c.103.74.392 8.232-.347 8.335-.739.103-16.495-.085-16.701-1.563-.205-1.479-.478-7.769.928-7.844z" fill="#fff"/><path d="M153.986 60.856c-2.625 0-15.732-.095-15.991-1.959-.102-.731-.544-6.534.623-7.95.248-.3.523-.375.71-.385 16.418.34 16.511 1.005 16.571 1.445.045.316.457 7.55-.322 8.58a.587.587 0 01-.394.242c-.13.018-.533.027-1.197.027zm-14.644-9.43c.014 0-.022.029-.057.07-.757.92-.672 5.566-.433 7.28.665.723 9.271 1.215 15.135 1.215.494 0 .787-.006.942-.011.37-.947.271-6.251.136-7.667-1.236-.39-8.871-.745-15.723-.887z" fill="#3F4E4F"/><path d="M138.704 53.707s15.611.45 16.525.955l-16.525-.955z" fill="#fff"/><path d="M155.23 55.094a.44.44 0 01-.21-.055c-.786-.335-10.434-.73-16.328-.9a.432.432 0 01-.42-.446c.006-.238.198-.412.444-.42 3.687.107 15.789.493 16.723 1.01a.432.432 0 01-.209.81z" fill="#3F4E4F"/><path d="M138.187 56.488s15.626.116 17.454 1.127l-17.454-1.127z" fill="#fff"/><path d="M155.641 58.049a.44.44 0 01-.21-.054c-1.27-.703-10.851-1.026-17.088-1.072a.418.418 0 01-.414-.434c.002-.237.021-.432.258-.432h.003c1.611.011 15.623.113 17.494 1.148a.4.4 0 01.157.563c-.078.143-.049.28-.2.28zm-11.977-44.245a.442.442 0 01-.194-.046.555.555 0 01-.289-.389c-.222-.94 1.271-5.22 1.881-6.034a.655.655 0 01.533-.272c1.308 0 3.535 4.889 3.62 5.485a.612.612 0 01-.151.49c-.577.666-3.631.766-5.4.766zm2.004-5.821c-.536.897-1.547 3.965-1.645 4.954 1.799-.019 3.772-.18 4.3-.417-.28-.945-1.974-4.037-2.655-4.537z" fill="#3F4E4F"/><path d="M152.914 14.753s4.807 2.069 5.008 1.324c.201-.744-.177-6.484-1.122-5.941-.946.542-4.2 4.245-3.886 4.617z" fill="#FDFFFF"/><path d="M165.441 23.203c-.876 0-2.861-2.37-3.966-3.781a.436.436 0 01-.084-.181.556.556 0 01.129-.469c.603-.753 4.894-2.216 5.911-2.237a.67.67 0 01.64.417c.495 1.161-1.725 5.587-2.185 6.067a.611.611 0 01-.445.184zm-3.063-4.033c1.124 1.404 2.467 2.86 2.98 3.13.57-.802 1.962-4.044 1.936-4.888-1.034.13-4.076 1.226-4.916 1.758z" fill="#3F4E4F"/><path d="M167.676 25.279s1.018 5.132 1.745 4.877c.727-.255 5.244-3.818 4.262-4.29-.983-.472-5.878-1.058-6.007-.587z" fill="#FDFFFF"/><path d="M171.605 39.556h-.001c-.459 0-1.57-.014-1.969-.147a.611.611 0 01-.372-.355c-.336-.816.943-3.59 1.737-5.171a.434.434 0 01.127-.152.66.66 0 01.321-.104c.908 0 4.251 3.49 4.708 4.407a.66.66 0 01-.026.652c-.446.72-2.707.87-4.525.87zm-1.546-.937c.249.036.764.073 1.545.073 2.021 0 3.305-.226 3.697-.41-.564-.885-2.849-3.158-3.688-3.69-.786 1.612-1.525 3.441-1.554 4.027z" fill="#3F4E4F"/><path d="M169.701 42.594s-4.46 2.736-3.968 3.33c.492.593 5.402 3.592 5.503 2.506.102-1.085-1.049-5.878-1.535-5.836z" fill="#FDFFFF"/><path d="M164.22 55.507c-1.282 0-5.004-2.308-5.493-2.897a.61.61 0 01-.128-.498c.144-.87 2.695-2.552 4.203-3.476a.422.422 0 01.188-.063.58.58 0 01.476.207c.679.746 1.623 5.075 1.527 6.1-.027.29-.245.627-.773.627zm-4.716-3.343c.672.57 3.628 2.372 4.634 2.474-.015-1.052-.757-4.184-1.189-5.076-1.52.955-3.114 2.12-3.445 2.602z" fill="#3F4E4F"/><path d="M139.818 13.972s-4.732 2.235-4.959 1.498c-.227-.737-.05-6.486.914-5.977.964.51 4.345 4.096 4.045 4.48z" fill="#FDFFFF"/><path d="M127.569 22.854a.605.605 0 01-.426-.17c-.48-.466-2.858-4.822-2.393-5.993a.664.664 0 01.622-.431c1.108 0 5.374 1.307 5.989 2.033.151.178.16.347.141.459a.424.424 0 01-.077.183c-1.3 1.788-3.025 3.92-3.856 3.92zm-2.03-5.723c.004.845 1.508 4.035 2.105 4.816.503-.287 1.794-1.787 2.868-3.23-.842-.483-3.864-1.495-4.973-1.586z" fill="#3F4E4F"/><path d="M125.432 25.007s-.838 5.165-1.574 4.935c-.736-.23-5.374-3.633-4.408-4.138.965-.507 5.836-1.262 5.982-.797z" fill="#FDFFFF"/><path d="M121.135 39.429c-3.216 0-3.561-.536-3.691-.738a.657.657 0 01-.041-.64c.371-.816 3.616-4.569 4.572-4.569a.65.65 0 01.303.093.43.43 0 01.133.148c.847 1.552 2.224 4.28 1.916 5.107a.613.613 0 01-.359.369c-.426.158-1.767.23-2.833.23zm-2.87-1.161c.317.137 1.227.296 2.87.296 1.116 0 2.012-.073 2.381-.14-.049-.586-.857-2.4-1.703-3.987-.753.513-3.008 2.916-3.548 3.831z" fill="#3F4E4F"/><path d="M124.013 42.381s4.552 2.58 4.081 3.19c-.471.61-5.273 3.777-5.412 2.696-.139-1.08.844-5.911 1.331-5.886z" fill="#FDFFFF"/><path d="M129.897 55.099c-.497 0-.713-.31-.751-.601-.127-.985.676-5.425 1.323-6.161.259-.292.488-.249.65-.156 1.539.871 4.147 2.464 4.321 3.328a.611.611 0 01-.111.502c-.484.627-4.166 3.088-5.432 3.088zm1.107-5.987c-.402.907-1.034 4.064-1.011 5.115.962-.128 3.867-1.988 4.546-2.632-.344-.468-1.981-1.58-3.535-2.483zm32.567-12.148h-.017a.433.433 0 01-.416-.45c.211-5.487-1.686-9.676-5.639-12.452-2.957-2.075-5.999-2.538-6.03-2.542a.432.432 0 01.125-.856c.129.019 12.94 2.047 12.408 15.885a.43.43 0 01-.431.415z" fill="#3F4E4F"/></g><defs><clipPath id="clip0"><path fill="#fff" d="M0 0h194v194H0z"/></clipPath></defs></svg>