<svg width="194" height="194" fill="none" xmlns="http://www.w3.org/2000/svg"><path d="M161.361 128.586s-.838-6.355 5.28-4.299c6.118 2.057 4.125 7.876 1.792 5.885-2.333-1.992 2.044-8.746 6.725-5.738 4.682 3.007 3.635 8.843.314 9.273-3.321.431 2.01-6.794 6.193-2.332s-4.95 12.597-8.685 9.606c-3.735-2.991-.812-7.819.084-4.876.896 2.942-1.52 5.827-8.145 5.713-6.624-.114-3.609-10.306-1.293-7.339 2.315 2.966-1.529 6.315-6.202 2.82-4.673-3.495.658-10.721 3.937-8.713zM69.154 25.067s-.837-6.356 5.28-4.3c6.119 2.057 4.125 7.876 1.793 5.885-2.332-1.991 2.044-8.745 6.725-5.738 4.681 3.008 3.634 8.843.314 9.274-3.321.43 2.01-6.795 6.193-2.333s-4.95 12.598-8.685 9.607c-3.735-2.992-.812-7.82.084-4.877.896 2.942-1.52 5.827-8.145 5.713-6.624-.114-3.609-10.306-1.293-7.339 2.315 2.967-1.529 6.315-6.202 2.82-4.673-3.495.658-10.72 3.936-8.712z" fill="#fff"/><path d="M149.836 49.493a.418.418 0 01-.146-.026c-6.53-2.395-8.061-13.654-8.124-14.132a.424.424 0 01.842-.11c.014.113 1.526 11.228 7.574 13.446a.424.424 0 01-.146.822z" fill="#3F4E4F"/><path d="M62.108 107.94s-5.218.13-6.917-.578c-1.699-.708-3.562-8.435-2.086-10.217 1.475-1.781 11.62-3.34 12.358-3.207 6.521 1.162 3.263 12.648 1.995 13.608-1.267.959-5.35.394-5.35.394z" fill="#FDE7E6"/><path d="M55.396 104.863c-.185 0-.402-.049-.652-.18-2.416-1.268-2.174-6.676-2.163-6.906a.433.433 0 01.444-.403.425.425 0 01.403.445c-.07 1.414.101 5.268 1.71 6.112.11.057.256.114.334.058.49-.359.443-2.78.096-4.962a39.54 39.54 0 01-.065-.38.425.425 0 01.349-.485.429.429 0 01.488.344l.068.4c.36 2.023 1.112 4.727 1.83 5.077.056.027.102.033.18-.011.793-.439.831-3.153.59-5.509a25.275 25.275 0 01-.177-1.366.424.424 0 01.842-.108c.04.252.11.734.176 1.34.29 1.782.822 3.73 1.462 4.056.08.04.176.063.35-.037 1.262-.742 1.529-4.775 1.4-7.143a.423.423 0 01.4-.447c.268-.027.435.168.447.401.038.68.3 6.677-1.818 7.92-.495.291-.907.194-1.165.062-.387-.197-.708-.635-.972-1.192-.103 1.266-.412 2.372-1.123 2.766a1.005 1.005 0 01-.963.031c-.481-.235-.89-.897-1.225-1.707-.084.74-.282 1.353-.67 1.635a.969.969 0 01-.576.189z" fill="#3F4E4F"/><path d="M92.828 131.242s-22.6 1.649-23.564.993c-.965-.655-2.44-29.673-3.503-30.063-1.062-.39-5.818-.119-7.898.624s-.42 38.659.616 39.943c1.035 1.284 36.504 3.153 36.292 1.267-.211-1.885-1.943-12.764-1.943-12.764z" fill="#FDE7E6"/><path d="M98.571 128.476s-24.607-1.131-26.587 1.98c-1.98 3.111-.283 22.061 1.414 23.193 1.697 1.131 26.587-2.829 27.153-5.091.566-2.263-1.98-20.082-1.98-20.082zm9.991-73.253s1.624-26.67 4.453-26.002c2.828.669 21.496 2.673 22.627 5.346 1.131 2.673-2.263 24.724-2.263 24.724l-24.817-4.068z" fill="#B3B3B3"/><path d="M127.453 24.347s-26.318 3.591-25.137 6.204c1.181 2.613 20.532 13.12 23.587 13.753 3.055.633 21.539-6.087 22.368-7.595.829-1.507-16.186-12.694-20.818-12.362z" fill="#B3B3B3"/><path d="M124.824 45.715c-1.797 0-11.913-7.361-15.006-9.643a.424.424 0 11.504-.683c6.33 4.671 13.449 9.48 14.456 9.48h.011c1.479-.188 8.41-2.697 8.48-2.723a.426.426 0 01.29.798c-.289.105-7.091 2.567-8.668 2.767a.521.521 0 01-.067.004z" fill="#3F4E4F"/><path d="M122.895 114.9l-.848 14.425 11.031-.848s-9.334 15.273-14.425 16.122c-5.091.848-16.122-14.425-16.122-14.425l12.541-.075-1.511-11.804 9.334-3.395zM89.012 74.593s.397-11.393-6.16-6.31c-6.556 5.081-7.368 11.58-.1 13.564 0 0 2.422-5.416 6.26-7.254z" fill="#FDE7E6"/><path d="M140.939 74.997S121.514 38.81 96.226 64.112c-28.63 28.647-4.234 64.947 8.588 55.295 0 0 39.405-6.836 36.125-44.41z" fill="#FDE7E6"/><path d="M138.221 91.104s3.358-12.037 10.725-5.81c6.976 5.896 1.891 18.389-6.42 17.544-8.312-.846-4.305-11.734-4.305-11.734z" fill="#FDE7E6"/><path d="M81.655 78.679a.424.424 0 01-.296-.728c3.55-3.465 3.753-5.215 3.559-5.95-.213-.801-1.015-1.02-1.023-1.022a.424.424 0 11.214-.821c.053.014 1.292.351 1.629 1.626.43 1.623-.844 3.902-3.786 6.774a.427.427 0 01-.297.12z" fill="#3F4E4F"/><path d="M135.779 72.81s3.355 22.763-10.793 32.322c-14.148 9.558-9.372-17.964-18.912-14.551-9.54 3.412-10.655 20.793-17.716 9.499-13.064-20.895 12.071-37.123 12.071-37.123l-3.284.406s-42.44 33.207-7.737 55.562c33.764 21.751 66.831-13.189 50.829-49.079l-4.458 2.965z" fill="#FDE61B"/><path d="M103.294 89.924c-1.297 0-1.419-.25-1.491-.396-.055-.112-.146-.405.192-.715.956-.874 5.593-7.585 7.912-11.011a.425.425 0 01.703.475c-.258.38-5.93 8.756-7.719 10.82 1.26.039 4.805-.413 7.992-.963a.424.424 0 01.144.836c-4.247.733-6.511.954-7.733.954zm1.974 12.39a1.16 1.16 0 01-.588-.157c-1.635-.939-.808-4.81-.044-7.638.049-.185.084-.31.094-.361a.43.43 0 01.477-.351.418.418 0 01.365.453 5.615 5.615 0 01-.118.48c-1.4 5.185-.821 6.412-.352 6.682.064.036.159.07.33.015 1.185-.384 3.106-3.816 4.038-5.888a.425.425 0 01.775.348c-.263.584-2.622 5.722-4.551 6.347-.144.047-.288.07-.426.07zm13.98-12.4c-.262 0-.468-.07-.637-.163-2.087-1.136.038-8.337.485-9.769a.423.423 0 01.532-.278c.222.07.347.307.278.53-1.187 3.805-1.865 8.24-.889 8.772.288.156 1.562.266 5.792-4.81a.423.423 0 11.651.543c-3.526 4.235-5.251 5.175-6.212 5.175zm-22.545-5.18c-.145 0-.283-.025-.414-.079-.888-.364-1.692-1.755-.005-9.348a.425.425 0 01.829.184c-1.664 7.489-.71 8.293-.502 8.379.986.409 4.132-3.407 6.483-7.167a.425.425 0 01.719.45c-1.159 1.854-4.92 7.581-7.11 7.581zm43.952 13.296a.426.426 0 01-.425-.41c-.158-4.818.618-7.503 2.372-8.208 2.398-.964 5.491 2.438 5.621 2.584a.424.424 0 01-.632.568c-.78-.867-3.144-2.982-4.672-2.365-.939.378-2.019 1.967-1.84 7.392a.424.424 0 01-.41.438h-.014z" fill="#3F4E4F"/><path d="M112.741 124.451c-.85 0-1.795-.203-2.826-.681-1.873-.866-3.225-2.122-4.15-3.466-1.242.673-2.818.998-4.63.724-2.895-.435-4.237-2.951-4.853-4.997-1.067.603-2.986.957-5.616-1.45-1.784-1.632-2.827-3.442-3.35-5.116-1.222.598-2.737.637-4.296-.578-1.795-1.399-2.36-4.122-2.127-6.649-.653-.265-1.294-.683-1.893-1.248-2.608-2.456-3.713-5.782-2.628-7.909.546-1.07 2.134-2.74 6.654-1.877a.424.424 0 11-.16.834c-2.946-.563-4.982-.054-5.738 1.429-.904 1.769.151 4.738 2.453 6.906a5.48 5.48 0 001.423.997c.236-1.406.715-2.691 1.358-3.57.836-1.144 1.902-1.439 2.853-.788.848.58 1.262 1.475 1.135 2.453-.16 1.25-1.156 2.407-2.476 2.879a4.002 4.002 0 01-2.16.143c-.172 2.214.319 4.554 1.826 5.731 1.3 1.012 2.547.957 3.552.408-.46-2.103-.105-3.89.575-4.676.52-.602 1.217-.67 1.817-.18 1.127.921.66 2.898-.441 4.278-.28.35-.611.68-.986.96.456 1.577 1.424 3.339 3.182 4.947 1.84 1.684 3.535 2.11 4.817 1.221a13.506 13.506 0 01-.246-1.437c-.197-1.716-.108-4.42.939-4.834.223-.09.665-.147 1.12.466 1.181 1.587.748 4.584-.864 6.122.475 1.728 1.619 4.299 4.255 4.695 1.591.239 2.967-.034 4.052-.606-.709-1.246-1.075-2.521-1.17-3.595-.128-1.461.224-2.596.966-3.113.372-.258 1.004-.475 1.919-.042 1.501.709 2.117 2.33 1.569 4.13-.331 1.09-1.063 2.124-2.115 2.89.846 1.218 2.081 2.357 3.789 3.147 3.192 1.476 5.359-.005 6.321-1.883.072-.14.137-.284.198-.432a7.322 7.322 0 01-2.323-2.407c-.844-1.428-.984-2.823-.35-3.471.259-.263.857-.613 1.978.019 1.857 1.047 2.28 3.417 1.72 5.467 1.52.778 3.538 1.074 6.023.38 3.52-.983 5.379-2.835 5.236-5.215l-.006-.089c-2.363.549-3.882-.538-4.505-1.133-1.107-1.058-1.584-2.582-1.109-3.547.318-.645 1.002-.938 1.874-.803 1.748.269 3.768 2.105 4.401 4.386a7.8 7.8 0 00.933-.44c1.75-.963 2.843-2.231 3.249-3.766.701-2.65-.86-5.243-.877-5.269a.424.424 0 01.724-.443c.072.118 1.767 2.932.973 5.929-.468 1.768-1.699 3.213-3.66 4.292a8.62 8.62 0 01-1.175.543c.01.096.02.192.026.289.097 1.633-.532 4.596-5.855 6.083-2.67.746-4.861.443-6.535-.383a5.947 5.947 0 01-.184.396c-.789 1.543-2.372 2.949-4.606 2.949zm2.218-9.132c-.102 0-.183.027-.236.081-.254.26-.231 1.254.474 2.446a6.445 6.445 0 001.861 1.993c.387-1.655.039-3.474-1.38-4.273-.288-.163-.539-.247-.719-.247zm-8.919-1.883a.759.759 0 00-.446.135c-.471.328-.704 1.226-.606 2.343.085.961.411 2.101 1.041 3.219.873-.648 1.48-1.511 1.756-2.417.333-1.093.213-2.486-1.121-3.116a1.48 1.48 0 00-.624-.164zm18.874-2.735c-.347 0-.581.121-.7.363-.268.545.013 1.678.934 2.558.513.489 1.764 1.381 3.77.905-.532-1.958-2.269-3.579-3.721-3.803a1.955 1.955 0 00-.283-.023zm-27.906-1.003c-.267.183-.704 2.178-.231 4.784 1.02-1.326 1.257-3.47.412-4.604-.116-.156-.181-.18-.181-.18zm-8.348-5.401c-.103 0-.218.056-.35.208-.474.548-.761 1.906-.465 3.585.195-.176.374-.368.536-.571.931-1.166 1.191-2.582.568-3.092-.088-.072-.183-.13-.289-.13zm-6.846-2.65c.753.166 1.374.04 1.775-.102 1.01-.361 1.801-1.261 1.92-2.189.061-.467-.025-1.132-.773-1.644-.208-.142-.837-.577-1.688.588-.59.806-1.028 2.021-1.234 3.347z" fill="#3F4E4F"/><path d="M136.029 81.847s1.084-11.751-6.577-15.066c-7.66-3.316-12.714 1.605-17.332.733-4.618-.871-6.354-13.636-23.995 8.211-4.32 5.35 1.385-23.32 21.704-22.105 20.32 1.213 36.868 15.169 26.2 28.227z" fill="#FDE61B"/><path d="M118.789 58.778s.78-16.08-7.892-17.813c-18.04-3.609-18.49 16.911-23.902 13.529-5.412-3.383-.225-6.765-.225-6.765s-8.343-3.382-10.147 4.96c-1.804 8.344 5.637 17.589 13.529 16.687 7.892-.902 25.255-15.108 28.637-10.598z" fill="#FDE61B"/><path d="M115.246 61.375s9.922-20.294 25.029-14.43c15.108 5.862 4.961 27.283 5.863 29.763.902 2.48 5.186-4.058 5.186-4.058s7.216 8.343-6.539 11.725c-14.345 3.527-8.794-23.902-29.539-23z" fill="#FDE61B"/><path d="M113.574 59.431a.424.424 0 01-.416-.512c.02-.09 1.893-9.127-1.494-12.898-1.139-1.268-2.784-1.803-4.887-1.586-4.493.461-7.606 4.213-10.618 7.842-3.733 4.5-7.264 8.746-13.001 6.332a.424.424 0 01.33-.782c5.159 2.173 8.338-1.657 12.018-6.092 3.12-3.76 6.346-7.647 11.184-8.144 2.381-.246 4.275.382 5.606 1.864 3.674 4.093 1.775 13.252 1.692 13.64a.424.424 0 01-.414.336z" fill="#3F4E4F"/><path d="M86.693 65.594c-.902 0-1.73-.175-2.479-.524-2.721-1.269-3.347-4.353-3.373-4.483a.425.425 0 01.834-.162c.005.028.576 2.799 2.904 3.88 1.89.877 4.421.447 7.521-1.276 2.668-1.482 4.715-3.053 6.36-4.315 4.231-3.248 6.562-5.034 11.529.726a.424.424 0 01-.643.554c-4.443-5.155-6.179-3.823-10.369-.607-1.667 1.28-3.742 2.871-6.464 4.384-2.187 1.214-4.134 1.823-5.82 1.823zm58.346 11.441a.434.434 0 01-.095-.01c-3.493-.806-2.623-5.099-1.616-10.07 1.162-5.732 2.479-12.229-2.441-14.962-3.75-2.083-7.207-2.526-10.273-1.316-5.964 2.354-8.556 10.203-8.582 10.282a.425.425 0 01-.807-.26c.108-.339 2.744-8.312 9.077-10.81 3.316-1.308 7.016-.85 10.998 1.362 5.462 3.035 4.019 10.153 2.86 15.873-.919 4.536-1.713 8.454.974 9.074a.425.425 0 01-.095.837z" fill="#3F4E4F"/><path d="M137.732 68.702a.424.424 0 01-.422-.395c-.293-4.26-1.478-6.864-3.521-7.742-3.626-1.56-8.885 2.735-8.938 2.78a.424.424 0 01-.54-.655c.232-.191 5.723-4.662 9.813-2.905 2.359 1.014 3.715 3.861 4.033 8.464a.425.425 0 01-.395.452l-.03.001z" fill="#3F4E4F"/><path d="M111.552 129.309s.03 9.632 2.292 10.764c2.263 1.131 11.88-11.88 11.88-11.88s13.689-.976 16.195 1.954c2.926 3.42 3.604 49.523 3.604 49.523l-60.528 1.697s2.48-48.213 7.676-51.443c5.605-3.484 18.881-.615 18.881-.615z" fill="#B3B3B3"/><path d="M147.22 138.375s15.839 39.598 7.919 42.992c-7.919 3.394-32.244-13.011-36.769-14.142-4.526-1.131-12.95 9.077-13.516 6.815-.566-2.263 2.768-7.381 2.768-7.381s-4.102 8.223-6.199 6.723c-2.8-2.001 1.673-8.42 1.673-8.42s-4.525 10.182-5.09 6.788c-.566-3.394 4.525-14.707 11.879-15.273 7.354-.566 34.506 12.445 34.506 12.445s-11.313-18.668-8.485-22.627c2.829-3.96 11.314-7.92 11.314-7.92z" fill="#FDE7E6"/><path d="M140.432 165.244s20.93-3.394 21.495-6.222c.566-2.829-18.384-29.981-21.213-29.416-2.828.566-15.556 4.243-15.556 9.334 0 5.091 15.274 26.304 15.274 26.304z" fill="#B3B3B3"/><path d="M113.844 129.888s-1.98 6.506 0 5.657c1.98-.848 9.9-7.637 11.88-7.354 1.98.283 8.485-1.414 7.354.283-1.132 1.697-18.668 16.688-21.496 17.819-2.829 1.131-5.374-16.971-3.394-17.536 1.979-.566 5.656 1.131 5.656 1.131z" fill="#fff"/><path d="M111.326 146.769c-2.364 0-3.63-8.176-3.859-9.815-.341-2.438-.966-8.156.604-8.605a3.882 3.882 0 011.053-.132c2.088 0 4.784 1.234 4.899 1.286a.424.424 0 01.227.509c-.74 2.432-1.086 4.905-.727 5.189.017-.004.065-.008.154-.046.688-.295 2.274-1.45 3.953-2.674 3.973-2.898 6.87-4.895 8.153-4.709.689.099 2.016-.068 3.298-.225 1.058-.128 2.153-.262 2.954-.262.613 0 1.272.062 1.517.518.098.184.156.49-.121.907-1.237 1.857-18.961 16.885-21.691 17.978a1.113 1.113 0 01-.414.081zm-2.202-17.703a3.04 3.04 0 00-.819.099c-.774.502-.432 7.863 1.167 13.297.988 3.361 1.769 3.458 1.854 3.458a.258.258 0 00.098-.021c2.68-1.072 20.084-15.835 21.301-17.66l.022-.036c-.099-.03-.306-.07-.713-.07-.75 0-1.818.13-2.851.256-1.357.165-2.758.33-3.519.222h-.004c-1.285 0-4.894 2.633-7.531 4.555-1.792 1.307-3.341 2.436-4.118 2.769-.484.206-.921.11-1.18-.241-.716-.966.091-4.154.499-5.566-.769-.32-2.709-1.062-4.206-1.062zm-.386 38.567c-2.259 0-6.682-3.095-7.21-3.469a.424.424 0 01.493-.691c1.998 1.419 5.653 3.57 6.945 3.291a.427.427 0 01.504.325.425.425 0 01-.326.504c-.126.027-.262.04-.406.04z" fill="#3F4E4F"/><path d="M100.234 171.402a.425.425 0 01-.412-.322c-.303-1.214 2.164-4.841 2.928-5.924a.424.424 0 01.693.489c-1.458 2.067-2.942 4.655-2.797 5.23a.425.425 0 01-.412.527zm4.822 1.169a.424.424 0 01-.491-.489c.431-2.535 2.047-5.351 2.116-5.47a.423.423 0 11.733.424c-.015.028-1.606 2.806-2.012 5.189a.425.425 0 01-.346.346zm-15.253-17.65h-.01a.426.426 0 01-.415-.434c.283-13.022 8.237-21.69 8.317-21.776a.425.425 0 01.62.578c-.078.084-7.813 8.529-8.088 21.216a.425.425 0 01-.424.416z" fill="#3F4E4F"/><path d="M67.662 99.917s-2.664-3.3-4.674-2.443c-2.01.857-6.522 4.772-5.268 6.647.736 1.101 4.886-3.201 4.886-3.201s-3.376 3.221.158 5.695" fill="#FDE7E6"/><path d="M62.764 107.038a.43.43 0 01-.243-.076c-1.104-.773-1.705-1.702-1.785-2.761a3.438 3.438 0 01.08-1.02c-1.012.848-2.115 1.6-2.82 1.539a.818.818 0 01-.63-.364c-.313-.469-.372-1.042-.174-1.704.66-2.216 4.068-4.903 5.63-5.569 2.288-.972 5.054 2.422 5.17 2.567a.424.424 0 11-.66.533c-.686-.848-2.772-2.919-4.177-2.32-1.614.689-4.626 3.271-5.15 5.031-.123.415-.102.739.067.99.396.132 2.345-1.334 4.096-3.124.08-.086.134-.137.145-.148a.425.425 0 01.598.602l-.108.112c-.32.344-1.32 1.53-1.22 2.815.06.792.54 1.507 1.425 2.126a.424.424 0 01-.244.771z" fill="#3F4E4F"/><path d="M47.526 114.048s22.943-5.498 24.617-2.629c1.673 2.868 10.277 41.347 9.32 41.825-.955.478-21.51 2.151-22.943 1.673-1.434-.478-12.906-40.63-10.994-40.869zm70.505 41.108s-8.679 21.18-5.019 24.617c2.512 2.36 52.1 7.107 56.164 1.195 7.887-11.472-24.378-48.995-26.29-49.712-1.912-.717-.478 20.554-.956 23.183-.478 2.629-.716 9.56-.716 9.56s-20.076-13.623-23.183-8.843z" fill="#B3B3B3"/><path d="M145.038 160.838a.423.423 0 01-.235-.071c-.976-.56-22.604-7.816-24.143-7.816-.959 0-2.445 2.504-3.193 4.282a.425.425 0 01-.783-.329c.338-.802 2.116-4.801 3.976-4.801 1.458 0 18.043 5.501 23.148 7.372-2.027-2.731-6.875-9.359-8.219-12.045a.425.425 0 01.759-.38c1.642 3.284 8.956 13.012 9.03 13.109a.426.426 0 01-.34.679z" fill="#3F4E4F"/><path d="M35.744 142.834l60.606.047.187 36.074s16.77-.788 17.064.388c.727 2.908.242 8.723.242 8.723s-77.928 4.597-78.022.485c-.093-4.112-.077-45.717-.077-45.717z" fill="#fff"/><path d="M53.615 190.685c-18.169 0-18.2-1.382-18.218-2.124-.093-4.07-.078-45.311-.078-45.726a.426.426 0 01.424-.425l60.607.046c.234 0 .424.189.424.422l.185 35.634c1.404-.061 5.895-.24 9.83-.24 6.982 0 7.116.537 7.223.969.735 2.941.274 8.62.254 8.861a.424.424 0 01-.398.388c-.372.022-37.477 2.195-60.253 2.195zm-17.447-47.426c-.002 4.405-.01 41.445.078 45.282.168.277 1.943 1.295 17.369 1.295 21.525 0 55.881-1.943 59.832-2.172.089-1.296.333-5.709-.235-8.124-.254-.127-1.386-.42-6.423-.42-4.69 0-10.177.256-10.232.258a.422.422 0 01-.444-.422l-.185-35.652-59.76-.045zm97.954.21a.425.425 0 01-.418-.352c-.859-4.983 4.702-12.905 4.939-13.239a.425.425 0 01.692.49c-.056.079-5.594 7.968-4.794 12.604a.425.425 0 01-.419.497zm24.333 29.368a.422.422 0 01-.134-.022c-.241-.08-.393-.298-.998-1.211-1.373-2.069-4.586-6.914-9.418-8.694a.423.423 0 11.293-.796c5.093 1.876 8.414 6.883 9.833 9.021.261.395.532.802.635.909a.425.425 0 01-.211.793zm-80.532-34.038a.423.423 0 01-.414-.339c-1.861-9.037-1.283-9.55-1.093-9.718a.516.516 0 01.511-.103.425.425 0 01.088.764c-.134.889.547 5.11 1.324 8.887a.425.425 0 01-.416.509zm78.48-88.333c-3.045 0-5.255-1.583-5.348-1.65a.424.424 0 11.499-.687c.02.015 2.09 1.488 4.849 1.488a.424.424 0 110 .849zm-1 3.121a.429.429 0 01-.117-.016c-2.927-.837-4.618-2.965-4.689-3.055a.425.425 0 01.668-.524c.016.02 1.601 2.005 4.254 2.763a.424.424 0 01-.116.832zm-3.166 2.01a.42.42 0 01-.261-.09c-2.396-1.88-3.159-4.49-3.19-4.6a.424.424 0 01.816-.231c.007.024.726 2.46 2.898 4.163a.425.425 0 01-.263.758z" fill="#3F4E4F"/><path d="M150.078 51.904a2.696 2.696 0 10.001-5.392 2.696 2.696 0 00-.001 5.392z" fill="#FDE61B"/><path d="M25.74 46.735s30.546-6.788 36.91 1.697c6.364 8.485 8.061 27.577 3.395 30.546-4.667 2.97-15.698 4.243-15.274 5.94.425 1.697 5.091 3.818 2.546 5.091-2.546 1.273-21.213 2.121-28.85-2.97C16.83 81.95 7.92 53.947 25.74 46.735z" fill="#3F4E4F"/><path d="M39.742 53.963c-1.25-.574-6.56 1.29-7.653 1.434-1.093.143-1.406 26.241-1.406 26.241s5.688.036 6.625-.68c.937-.717-.226-9.843-.226-9.843s2.816-.949 4.065-.518c1.25.43 2.03 8.317 2.967 8.747.937.43 5.778-.717 6.872-1.147 1.093-.43-9.995-23.66-11.244-24.234zm-.313 11.328c-1.25.43-3.436.717-3.436 0 0 0-.312-6.023.468-5.88.782.144 4.218 5.45 2.968 5.88z" fill="#fff"/><path d="M30.82 82.063h-.14a.421.421 0 01-.3-.127.42.42 0 01-.121-.302c.316-26.466 1.338-26.6 1.774-26.657.293-.039.99-.233 1.797-.458 1.652-.46 3.913-1.09 5.219-1.09.368 0 .652.05.869.148 1.468.675 11.63 22.15 11.567 24.446-.01.381-.22.52-.344.569-.912.358-4.614 1.271-6.348 1.271-.386 0-.657-.043-.856-.133-.569-.261-.862-1.353-1.494-4.177-.363-1.618-.968-4.325-1.439-4.557a2.183 2.183 0 00-.683-.087c-.952 0-2.192.332-2.775.505.44 3.534.97 9.152.02 9.88-.874.67-4.602.77-6.745.77zm1.49-26.272c-.66 1.615-1.079 16.145-1.198 25.423 3.075-.014 5.496-.254 5.938-.593.427-.544.135-5.334-.39-9.452a.424.424 0 01.286-.456c.079-.026 1.954-.652 3.375-.652.385 0 .7.044.964.135.809.279 1.247 1.866 1.987 5.172.315 1.411.749 3.346 1.048 3.608-.006-.003.087.039.474.04 1.509 0 4.74-.772 5.84-1.143-.242-2.397-9.678-22.482-11.099-23.54-.029-.01-.172-.055-.486-.055-1.19 0-3.387.612-4.991 1.06-.752.208-1.368.38-1.749.453zm4.687 10.362c-1.242 0-1.428-.54-1.428-.861-.084-1.597-.209-5.435.435-6.114a.625.625 0 01.533-.183c.957.176 3.467 4.15 3.582 5.669.055.738-.368.966-.552 1.029-.799.275-1.831.46-2.57.46zm-.582-.927c.061.028.223.078.582.078.642 0 1.582-.17 2.288-.412-.014-.01.04-.216-.171-.815-.525-1.494-1.957-3.549-2.572-4.116-.207.775-.233 3.183-.127 5.265z" fill="#3F4E4F"/><path d="M57.881 60.575c-.083-.21-1.426.06-3.141.46-.444-1.44-.843-2.64-.954-2.837-.302-.537-3.084.652-3.084.652-.2.093.124 1.366.601 3.005-.856.2-1.677.384-2.371.515-.657.123.71 2.921.788 3.246.03.121 1.156-.077 2.587-.387.261.886.503 1.74.68 2.458.158.65 2.878-.869 3.198-.965.111-.034-.11-1.013-.457-2.298 1.348-.338 2.442-.64 2.635-.734.552-.272-.482-3.115-.482-3.115z" fill="#fff"/><path d="M53.279 68.272c-.544 0-.678-.37-.705-.484a55.53 55.53 0 00-.563-2.062c-1.665.35-2.021.35-2.145.35-.41 0-.526-.225-.558-.358-.02-.07-.093-.237-.185-.458-.668-1.605-.96-2.509-.698-2.993a.606.606 0 01.427-.314 49.22 49.22 0 001.919-.41c-.707-2.475-.68-2.877-.248-3.078.21-.09 1.968-.83 2.875-.83.37 0 .624.12.757.356.156.278.62 1.73.873 2.543 1.406-.322 2.168-.456 2.587-.456.13 0 .525 0 .66.341 1.168 3.213.496 3.544.274 3.653-.257.126-1.487.45-2.3.659.512 1.932.502 2.263.058 2.397-.067.023-.23.105-.446.209-.98.472-1.988.935-2.582.935zm-.972-3.468c.185 0 .353.12.407.305.292.992.492 1.715.642 2.31.497-.056 1.595-.586 2.137-.848.102-.05.196-.094.278-.132-.037-.239-.146-.765-.453-1.904a.424.424 0 01.306-.522c1.446-.364 2.221-.587 2.474-.674.053-.328-.182-1.373-.54-2.405-.608.033-1.758.29-2.722.515a.423.423 0 01-.502-.289c-.435-1.415-.76-2.376-.883-2.676a.912.912 0 00-.052-.001c-.552 0-1.727.43-2.33.674.027.286.175.979.642 2.58a.426.426 0 01-.31.531c-.797.187-1.562.359-2.226.487.016.316.261 1.046.733 2.179l.116.283c.28-.027.881-.118 2.194-.403.03-.007.06-.01.09-.01zM39.698 183.16a.425.425 0 01-.011-.848c.477-.012 47.752-1.224 52.982-2.413a.424.424 0 11.187.828c-5.31 1.207-51.197 2.384-53.148 2.433h-.01zm89.935-5.144c-.447 0-.949-.071-1.472-.272a.425.425 0 11.305-.792c1.344.518 2.549-.069 2.56-.075a.424.424 0 01.383.757 4.222 4.222 0 01-1.776.382zm1.948-3.998c-.447 0-.949-.071-1.472-.272a.424.424 0 11.305-.792c1.346.518 2.549-.068 2.561-.075a.424.424 0 01.383.757 4.224 4.224 0 01-1.777.382zm3.946 2.318c-.447 0-.949-.07-1.472-.272a.424.424 0 11.305-.792c1.344.518 2.549-.069 2.56-.075a.425.425 0 01.383.758 4.225 4.225 0 01-1.776.381zm3.604-3.259c-.447 0-.949-.071-1.473-.272a.425.425 0 01.305-.792c1.345.518 2.549-.069 2.561-.075a.422.422 0 01.568.189.422.422 0 01-.185.568 4.227 4.227 0 01-1.776.382zm3.558 2.388c-.447 0-.949-.071-1.472-.272a.425.425 0 01.305-.792c1.345.519 2.548-.069 2.56-.075a.424.424 0 01.383.757 4.222 4.222 0 01-1.776.382zm-18.429-1.226c-.447 0-.949-.071-1.472-.272a.425.425 0 11.305-.792c1.344.519 2.548-.069 2.56-.075a.423.423 0 01.383.757 4.222 4.222 0 01-1.776.382zm-.54 3.82c-.447 0-.949-.071-1.473-.272a.424.424 0 01.305-.792c1.346.518 2.549-.069 2.561-.075a.422.422 0 01.568.189.422.422 0 01-.185.568 4.222 4.222 0 01-1.776.382zm-13.104.895a.424.424 0 01-.424-.425c0-2.318 2.199-7.842 2.293-8.077a.423.423 0 11.787.315c-.023.056-2.232 5.607-2.232 7.762a.424.424 0 01-.424.425z" fill="#3F4E4F"/></svg>