<svg width="18" height="18" fill="none" xmlns="http://www.w3.org/2000/svg"><path d="M16.81 8.766c-1.685-3.115-4.64-5-7.91-5-3.27 0-6.23 1.885-7.9 5L.86 9l.13.24c1.685 3.115 4.64 5 7.91 5 3.27 0 6.23-1.86 7.91-5l.13-.24-.13-.235zm-7.91 4.45c-2.815 0-5.4-1.57-6.9-4.215 1.5-2.645 4.085-4.215 6.9-4.215 2.815 0 5.37 1.575 6.895 4.215-1.525 2.645-4.085 4.215-6.895 4.215z" fill="#222F3B"/><path d="M9.045 5.584a3.43 3.43 0 10.05 6.86 3.43 3.43 0 00-.05-6.86zm0 5.86a2.43 2.43 0 112.27-1.505 2.437 2.437 0 01-2.27 1.505z" fill="#222F3B"/></svg>