<svg width="506" height="1104" fill="none" xmlns="http://www.w3.org/2000/svg"><path d="M-290.012-1348c122.156 18.54 208.895 34.18 256.4 57.36 28.842 1.55 123.3 61.3 115.157 146.59-10.18 106.61-254.491 74.16-254.491 301.282 0 227.123 157.784 315.191 356.287 315.191s279.94-55.622 269.761-152.961c-10.18-97.338 0-208.582-157.785-185.406-157.784 23.176-178.143 143.69-213.772 264.204C45.916-481.226-40.611-328.266 45.916-128.954 132.443 70.358 259.69 24.006 183.341 232.588 106.994 441.17 5.198 492.157 5.198 733.185c0 241.028 142.515 426.435 290.119 352.275C442.922 1011.29 504 932.497 504 890.78c0-41.716-15.269-213.217-162.874-157.595-147.605 55.622-203.593 37.081-157.785-41.716 45.809-78.798-66.167-152.96-178.143-231.758S-228.934 329.927-346 339.197" stroke="#FDE61B" stroke-width="4"/></svg>