<svg width="448" height="1048" fill="none" xmlns="http://www.w3.org/2000/svg"><path d="M583.996-187c-42.911 6.756-82.199 20.734-107.273 58.055-28.292 42.111-50.995 87.263-70.869 133.842-22.623 53.023-30.389 106.594-42.958 162.505-15.033 66.87-45.131 128.692-60.918 195.055-29.971 125.987-18.673 261.022-27.183 389.624-3.796 57.372-12.414 93.935-50.967 136.029-47.918 52.319-156.005 79.426-204.477 17.975C.063 881.633-1.256 839.517 6.245 810.987c4.898-18.628 40.515-39.727 57.886-43.845 32.191-7.631 84.094-3.523 114.675 24.169 16.381 14.834 27.036 23.927 39.318 37.165 19.932 21.484 24.026 68.864 32.763 99.471 8.738 30.606 14.445 42.39 27.549 64.249C310.685 1045.99 388.741 1046 446.628 1046c39.072 0 79.875-7.09 111.642-31.82 26.625-20.727 50.504-52.055 72.81-77.489 15.779-17.99 27.136-39.233 35.92-61.212" stroke="#FDE61B" stroke-width="4" stroke-linecap="round"/></svg>