<svg width="926" height="2427" fill="none" xmlns="http://www.w3.org/2000/svg"><path opacity=".7" d="M-113.125 2302.58c2.929-95.25-51.455-211.34 71.996-257.84 32.094-12.09 83.969-5.4 118.632-1.31 32.859 3.87 71.432 2.46 103.911-.66 74.894-7.2 143.415-20.53 171.55-86.94 24.458-57.73 29.24-111.74 5.27-173.93-9.086-23.58-25.401-44.69-34.49-68.27-14.351-37.24-23.221-73.47-24.153-112.07-.747-30.97 4.886-40.18 32.273-47.95 21.931-6.23 38.616-7.14 68.304 1.28 23.491 6.66 44.411 18.33 61.611 29.62 17.441 11.45 50.766 29.1 64.626 43.35 9.582 9.84 45.648 32 50.101 58.53 6.831 40.71-27.87 67.92-58.339 95.7-38.257 34.87-88.83 74.01-145.306 86.18-35.256 7.6-87.001.61-122.887-8.81-15.268-4.01-35.674-22.88-41.914-35.73-5.353-11.02-3.198-19-10.928-29.49-5.739-7.79-5.327-23.89-4.197-32.03 4.246-30.61.238-60.57 7.455-91.15l21.837-92.53c8.683-36.8 25.268-71.96 28.236-109.91 3.96-50.61-10.121-90.73-29.368-139.78-17.757-45.25-49.424-82.49-102.116-101.16-23.857-8.45-48.24-14.07-71.845-23.68-19.958-8.12-45.775-13.66-61.14-27.89-21.56-19.96-35.092-31.56-40.305-58.78-6.097-31.85-12.642-66.87-13.508-98.71-.474-17.44 6.838-38.305 12.375-54.599 13.335-39.244 25.333-77.797 36.957-117.616C6 762.521 47.53 681.805 78.285 599.855c26.156-69.695 38.34-139.347 40.056-214.133.695-30.302.322-56.11-13.127-85.152C98.88 286.892-61.064 16.092-63.081 2" stroke="#3F4E4F" stroke-width="2" stroke-linecap="round"/></svg>