<svg width="450" height="1652" fill="none" xmlns="http://www.w3.org/2000/svg"><path d="M442.175 1640.03c18.908-73.74 83.372-147.16-4.657-209.69-22.884-16.25-65.724-22.39-94.265-26.79-27.056-4.16-57.485-13.64-82.677-23.09-58.091-21.8-109.733-46.93-117.348-104.01-6.62-49.63 1.615-92.12 34.592-134.64 12.499-16.12 30.211-28.78 42.716-44.9 19.744-25.46 34.894-51.34 44.245-80.76 7.503-23.611 12.682-31.3-15.028-43.823-17.015-7.69-41.842-19.256-62.482-13.46-16.577 4.656-30.716 13.48-46.944 18.407-16.454 4.995-38.662 9.729-52.887 17.647-18.933 10.539-44.242 7.829-53.708 27.229-14.523 29.75-1.524 57.1 16.568 85.04 22.715 35.08 54.296 76.11 96.597 97.73 26.407 13.49 69.21 19.38 99.915 19.95 13.063.24 33.536-9.8 41.375-18.31 6.725-7.3 6.787-13.89 15.289-20.26 6.312-4.73 9.573-17.18 10.489-23.68 3.441-24.41 13.318-46.53 14.386-71.57l3.232-75.76c1.285-30.132-4.091-60.728 2.005-90.494 8.132-39.705 28.302-67.434 54.583-100.896 24.245-30.871 57.791-52.568 103.955-55.444 20.9-1.302 41.589-.318 62.547-2.561 17.72-1.896 39.531-.532 54.953-8.113 21.637-10.637 35.009-16.596 45.236-36.358 11.962-23.114 24.989-48.569 32.78-72.816 4.269-13.287 3.093-30.89 2.314-44.599-1.877-33.018-2.841-65.215-3.226-98.302-.809-69.704-15.91-140.68-22.147-210.262-5.304-59.176.518-115.282 15.83-173.053 6.204-23.408 12.257-43.134 29.454-62.5 8.099-9.122 22.43-18.15 27.181-28.527" stroke="#fff" stroke-width="4" stroke-linecap="round"/></svg>