<svg width="491" height="1319" fill="none" xmlns="http://www.w3.org/2000/svg"><path d="M1313.63 440.441c-33.38-27.797-69.8-48.107-114.39-42.337-50.31 6.512-99.23 19.23-147.34 35.016-54.779 17.97-100.166 47.468-150.481 74.899-60.176 32.808-126.495 50.963-186.789 82.87-114.463 60.574-208.506 158.134-310.779 236.563-45.626 34.989-78.791 52.629-135.859 51.416-70.931-1.507-162.599-64.867-148.383-141.833 5.656-30.625 36.441-59.397 62.833-72.577 17.232-8.605 56.583 4.248 71.136 14.588 26.969 19.163 58.116 60.883 57.473 102.135-.344 22.096-.151 36.102-2 54.065-3.001 29.152-35.912 63.481-53.154 90.236-17.241 26.755-22.334 38.818-30.12 63.085-19.162 59.723 32.316 118.393 70.498 161.903 25.772 29.37 58.016 55.36 97.556 62.93 33.14 6.34 72.437 3.62 106.267 3.61 23.93-.01 47.387-5.48 69.701-13.38" stroke="#FDE61B" stroke-width="4" stroke-linecap="round"/></svg>