<svg width="544" height="1140" fill="none" xmlns="http://www.w3.org/2000/svg"><path d="M-770.253 261.441c33.382-27.797 69.802-48.107 114.393-42.337 50.313 6.512 99.225 19.23 147.343 35.016 54.775 17.97 100.162 47.468 150.477 74.899 60.176 32.808 126.495 50.963 186.789 82.87 114.463 60.574 208.506 158.134 310.779 236.563 45.626 34.989 78.791 52.629 135.859 51.416 70.931-1.507 162.599-64.867 148.383-141.833-5.656-30.625-36.442-59.397-62.833-72.577-17.232-8.605-56.584 4.248-71.136 14.588-26.969 19.163-58.116 60.883-57.473 102.135.344 22.096.151 36.102 2 54.065 3 29.152 35.912 63.481 53.154 90.236 17.241 26.755 22.334 38.818 30.12 63.085 19.161 59.722-32.316 118.396-70.498 161.905-25.772 29.368-58.016 55.358-97.557 62.928-33.139 6.34-72.436 3.62-106.266 3.61-23.93-.01-47.387-5.48-69.701-13.38" stroke="#FDE61B" stroke-width="4" stroke-linecap="round"/></svg>