<svg width="601" height="1941" fill="none" xmlns="http://www.w3.org/2000/svg"><path d="M-14.64 5.138C78.637 26.28 144.732 43.204 180.112 63.735c22.183 2.808 91.768 54.176 80.707 119.478-13.827 81.628-200.64 42.918-213.353 218.037-12.713 175.119 104.181 251.866 257.442 262.991 153.262 11.126 219.252-27.195 216.84-102.817-2.411-75.621 11.675-160.823-111.445-151.798-123.12 9.026-145.585 100.805-179.839 191.728-34.254 90.923-109.622 204.011-53.972 362.536 55.651 158.53 156.49 129.92 85.868 286.46-70.622 156.55-152.071 190.15-165.562 376-13.491 185.84 86.165 336.78 204.28 287.87 118.114-48.91 169.682-106.24 172.017-138.41 2.335-32.16.145-165.25-116.932-130.64-117.077 34.62-159.266 17.18-119.488-41 39.779-58.19-42.525-121.65-124.57-188.68C30.06 1348.46-61.4 1302.3-152.304 1302.88" stroke="#FDE61B" stroke-width="4"/></svg>