<svg width="768" height="1764" fill="none" xmlns="http://www.w3.org/2000/svg"><path opacity=".5" d="M-46.512 109.96c4.225 69.558-31.333 151.626 62.919 181.394 24.502 7.739 63.553 1.064 89.655-3.118 24.743-3.965 53.916-4.255 78.52-3.089 56.735 2.69 108.786 10.089 131.445 57.688 19.697 41.379 24.451 80.715 7.654 127.024-6.366 17.552-18.246 33.553-24.615 51.112-10.056 27.726-15.992 54.528-15.881 82.788.089 22.676-2.265 30.829 25.395 33.962 16.984 1.924 41.863 5.033 58.22-5.812 13.136-8.709 22.979-20.367 35.735-29.215 12.935-8.972 30.957-19.33 41.128-30.223 13.538-14.498 36.35-19.243 39.153-38.799 4.302-30.005-14.701-50.18-38.307-69.446-29.64-24.191-68.675-51.078-111.601-58.038-26.797-4.346-65.743 2.543-92.656 10.666-11.451 3.456-26.47 17.954-30.913 27.566-3.811 8.245-2.014 14.006-7.633 21.947-4.171 5.894-3.52 17.651-2.494 23.57 3.854 22.237 1.459 44.285 7.557 66.404l18.452 66.92c7.338 26.611 20.611 51.761 23.655 79.408 4.06 36.879-5.731 66.701-19.236 103.235-12.46 33.704-35.599 62.025-75.014 77.49-17.845 7.001-36.148 11.952-53.779 19.789-14.908 6.626-34.295 11.561-45.604 22.495-15.867 15.342-25.846 24.288-29.209 44.378-3.934 23.497-8.139 49.334-8.12 72.644.01 12.78 5.975 27.79 10.502 39.51 10.904 28.24 20.782 56.03 30.405 84.75 20.273 60.51 53.354 118.11 78.321 176.99 21.233 50.07 31.91 100.59 34.785 155.22 1.165 22.14-25.237 111.63-34.785 133.33-33.481 76.1-168.916 118.12-170.143 128.5" stroke="#FDE61B" stroke-width="4" stroke-linecap="round"/></svg>