<svg width="1791" height="1559" fill="none" xmlns="http://www.w3.org/2000/svg"><path d="M-52 42C15.21 20.493 85.531 2 156.222 2c20.639 0 44.245.844 64.222 6.222 30.609 8.241 60.862 1.945 91.556 6.667C333.41 18.183 354.309 18 376 18c17.245 0 25.379-5.978 42.222 2C466.464 42.851 512.154 74.41 546 115.778c32.769 40.051.453 99.248-10 142.222-14.087 57.912-24.115 110.248-52.222 161.778-11.288 20.693-40.09 34.211-54 54.444-11.199 16.29-30.878 28.657-48.889 35.778-47.188 18.656-58.779-7.715-76-51.111-17.93-45.184-28.456-90.715-8.667-136.889 16.984-39.629 69.659-82.034 115.778-71.111C487.485 268.767 519.647 325.832 561.778 380c30.67 39.434 77.601 92.109 126.222 112 21.658 8.86 50.302 10.671 69.556 24 18.771 12.995 36.332 13.575 58.444 14 14.25.274 27.793 4 42.222 4 21.192 0 43.996-9.332 64-16 26.977-8.992 54.519-16.563 80.888-27.111 12.48-4.991 26.53-5.337 38.67-10.667 12.12-5.321 24.81-12.51 38.22-14 16.41-1.823 25.67 3.734 40.44 9.778 31.94 13.064 68.83 13.479 102.67 14 62.44.961 120.13 32 183.11 32 61.97 0 115.37-28.321 178.89-24.222 21.67 1.398 42.04 6.244 63.11 8 16.86 1.404 32.61.711 45.56 12.222 6.51 5.792 15.34 5.503 22.22 12 8.06 7.611 14.3 14.304 22 22 23.3 23.303 35.1 66.834 42.89 98 8.32 33.301.16 67.639-29.78 86.222-38.33 23.789-90.45 20.1-125.33 50-19.95 17.101-52.54 21.093-77.78 26-42.57 8.277-86.05 10.678-128 20-27.83 6.185-64.32 3.846-92-2.222-33.67-7.38-69.65-4-104-4-50.57 0-96.25-32-145.56-32-70.11 0-137.712 8-208.218 8-36.273 0-72.209 4-108.222 4-31.465 0-38.532 3.244-64 20.222-29.967 19.978-61.052 64.726-32 93.778 15.529 15.529 10.115 39.403 26 56.222 12.973 13.737 20.691 29.688 35.111 42.668 17.02 15.32 49.39 19.11 71.111 19.11 35.053 0 66.705-16 101.778-16 41.912 0 88.389-5.62 129.56 2 28.22 5.23 61.39-9.68 88.44-18 23.41-7.202 49.71-27.009 74-28 28.83-1.177 74.15-15.676 98-34.222 16.43-12.781 44.8-13.778 65.11-13.778 44.41 0 87.84-1.609 128.89 17.778 19.16 9.049 75.25 14.376 96 4 31.5-15.751 69.16-4.661 100 6.222 25.62 9.043 58.57 22.575 78 42 27.6 27.6 30 86 30 122 0 9.22 2.87 24.66-.44 33.78-2.12 5.82-11.5 7.65-15.56 12.22-11.26 12.67-32.66 13.18-46.67 22-17.11 10.78-38.42 8.04-57.33 12.89-17.88 4.58-29.63 7.11-48.44 7.11-43.26 0-85.19 12.25-126.67 24-54.03 15.31-108.77 22.16-163.56 35.56-104.08 25.44-218.21 17.69-320.44 50.22-15.394 4.9-30.097.86-45.112-4-20.074-6.5-52.449-13.6-67.778-29.78-16.95-17.89-14.65-38.53 6-50 13.373-7.43 42.297-8.19 51.778 4 13.74 17.67 22.023 34.36 11.111 54-10.431 18.78-41.381 36-62.889 36-19.925 0-37.711 4-58 4-26.341 0-49.92-4-76-4-24.016 0-54.193-11.16-78-2-39.567 15.22-144-12.22-227 95-87 88-249.728 120.64-223 134" stroke="#FDE61B" stroke-width="3" stroke-linecap="round"/></svg>