<svg width="620" height="1561" fill="none" xmlns="http://www.w3.org/2000/svg"><path opacity=".5" d="M4.759 61.184C.352 130.731-45.08 207.773 44.769 248.965c23.358 10.708 62.935 8.913 89.354 7.989 25.043-.875 54.028 2.444 78.299 6.643 55.968 9.682 106.705 23.459 123.305 73.494 14.431 43.497 14.285 83.12-8.107 126.996-8.488 16.631-22.255 31.04-30.745 47.677-13.407 26.27-22.611 52.133-25.994 80.189-2.715 22.514-6.059 30.313 21.001 36.842 16.616 4.009 40.92 10.169 58.492 1.43 14.112-7.019 25.32-17.37 39.073-24.574 13.945-7.303 33.109-15.354 44.548-24.906 15.227-12.713 38.451-14.602 43.65-33.661 7.978-29.243-8.384-51.613-29.428-73.649-26.422-27.669-61.834-59.176-103.57-71.39-26.054-7.624-65.553-5.603-93.264-.87-11.79 2.014-28.486 14.544-34.083 23.533-4.802 7.71-3.731 13.65-10.288 20.835-4.868 5.333-5.675 17.08-5.389 23.081 1.076 22.543-4.027 44.126-.71 66.829l10.038 68.688c3.991 27.314 14.053 53.912 13.656 81.722-.53 37.099-13.933 65.482-31.851 100.065-16.531 31.906-42.993 57.149-84.018 67.622-18.574 4.742-37.348 7.392-55.813 12.989-15.612 4.733-35.461 7.233-48.035 16.685-17.642 13.263-28.65 20.906-34.471 40.427-6.809 22.83-14.175 47.949-17.04 71.086-1.569 12.683 2.496 28.303 5.539 40.503 7.328 29.37 13.696 58.17 19.695 87.86 12.637 62.55 38.343 123.8 55.84 185.31 14.88 52.31 19.23 103.76 15.328 158.34-1.58 22.11-3.654 40.88-15.811 61.24-5.726 9.58-17.071 20.15-19.571 30.29" stroke="#FDE61B" stroke-width="4" stroke-linecap="round"/></svg>