<svg width="24" height="24" viewBox="0 0 24 24" fill="none" xmlns="http://www.w3.org/2000/svg">
<path d="M13.2803 12.5303L9.34397 16.4678C9.23909 16.5727 9.10545 16.6442 8.95994 16.6732C8.81442 16.7022 8.66358 16.6873 8.5265 16.6306C8.38942 16.5738 8.27225 16.4776 8.18982 16.3543C8.1074 16.2309 8.06341 16.0859 8.06344 15.9375V12.75H2.25C2.05109 12.75 1.86032 12.671 1.71967 12.5303C1.57902 12.3897 1.5 12.1989 1.5 12C1.5 11.8011 1.57902 11.6103 1.71967 11.4697C1.86032 11.329 2.05109 11.25 2.25 11.25H8.06344V8.0625C8.06341 7.91413 8.1074 7.76909 8.18982 7.64572C8.27225 7.52235 8.38942 7.4262 8.5265 7.36944C8.66358 7.31267 8.81442 7.29784 8.95994 7.32683C9.10545 7.35581 9.23909 7.4273 9.34397 7.53225L13.2803 11.4698C13.4209 11.6104 13.4999 11.8011 13.4999 12C13.4999 12.1989 13.4209 12.3896 13.2803 12.5303ZM18 3H12.75C12.5511 3 12.3603 3.07902 12.2197 3.21967C12.079 3.36032 12 3.55109 12 3.75C12 3.94891 12.079 4.13968 12.2197 4.28033C12.3603 4.42098 12.5511 4.5 12.75 4.5H18V19.5H12.75C12.5511 19.5 12.3603 19.579 12.2197 19.7197C12.079 19.8603 12 20.0511 12 20.25C12 20.4489 12.079 20.6397 12.2197 20.7803C12.3603 20.921 12.5511 21 12.75 21H18C18.3977 20.9996 18.779 20.8414 19.0602 20.5602C19.3414 20.279 19.4996 19.8977 19.5 19.5V4.5C19.4996 4.10231 19.3414 3.72104 19.0602 3.43983C18.779 3.15863 18.3977 3.00045 18 3Z" fill="#222F3B"/>
</svg>
