<svg width="18" height="18" viewBox="0 0 18 18" fill="none" xmlns="http://www.w3.org/2000/svg">
<path d="M16.8104 8.76562C15.1254 5.65062 12.1704 3.76562 8.90035 3.76562C5.63035 3.76562 2.67035 5.65062 1.00035 8.76562L0.860352 9.00062L0.990352 9.24062C2.67535 12.3556 5.63035 14.2406 8.90035 14.2406C12.1704 14.2406 15.1304 12.3806 16.8104 9.24062L16.9404 9.00062L16.8104 8.76562ZM8.90035 13.2156C6.08535 13.2156 3.50035 11.6456 2.00035 9.00062C3.50035 6.35562 6.08535 4.78562 8.90035 4.78562C11.7154 4.78562 14.2704 6.36062 15.7954 9.00062C14.2704 11.6456 11.7104 13.2156 8.90035 13.2156Z" fill="#222F3B"/>
<path d="M9.04462 5.58408C8.36668 5.58902 7.70541 5.79477 7.14433 6.17532C6.58325 6.55587 6.14753 7.09416 5.8922 7.7222C5.63687 8.35024 5.57339 9.03986 5.70976 9.70396C5.84614 10.3681 6.17626 10.9769 6.65844 11.4534C7.14061 11.93 7.7532 12.253 8.41885 12.3817C9.08449 12.5103 9.77332 12.4388 10.3983 12.1762C11.0234 11.9136 11.5566 11.4716 11.9305 10.9061C12.3045 10.3406 12.5026 9.67703 12.4996 8.99908C12.4977 8.54779 12.4067 8.10134 12.2318 7.68529C12.057 7.26923 11.8018 6.89177 11.4809 6.57453C11.1599 6.25728 10.7795 6.0065 10.3614 5.83653C9.94338 5.66657 9.49589 5.58078 9.04462 5.58408ZM9.04462 11.4441C8.56574 11.4391 8.09901 11.2928 7.70302 11.0235C7.30704 10.7541 6.99947 10.3738 6.81894 9.93025C6.63841 9.48668 6.59297 8.99966 6.68832 8.53035C6.78368 8.06104 7.01558 7.63037 7.35491 7.29243C7.69423 6.95449 8.12584 6.72435 8.59553 6.63091C9.06523 6.53747 9.55206 6.5849 9.99488 6.76724C10.4377 6.94958 10.8168 7.2587 11.0845 7.65578C11.3522 8.05286 11.4966 8.52019 11.4996 8.99908C11.501 9.32138 11.4383 9.64073 11.3153 9.93863C11.1922 10.2365 11.0113 10.507 10.7829 10.7345C10.5546 10.9619 10.2833 11.1417 9.98492 11.2636C9.68652 11.3854 9.36691 11.4467 9.04462 11.4441Z" fill="#222F3B"/>
</svg>
